<svg width="105" height="99" viewBox="0 0 105 99" fill="none" xmlns="http://www.w3.org/2000/svg">
<rect y="23.667" width="69.5068" height="69.2472" rx="31.932" fill="#376853"/>
<g filter="url(#filter0_b_1153_2333)">
<path d="M79.0813 73.5423C80.9415 71.7016 83.9235 71.7016 85.7837 73.5423L103.024 88.0509C105.512 90.5556 105.725 94.6167 103.238 97.1214C100.75 99.6262 96.7175 99.6262 94.2301 97.1214L79.0813 80.8503L78.6941 80.4151C77.9729 79.5056 77.5746 78.3717 77.5746 77.1963C77.5746 75.8251 78.1167 74.5102 79.0813 73.5423ZM47.4403 0C58.3888 0 68.8889 4.37966 76.6307 12.1755C84.3725 19.9714 88.7218 30.5448 88.7218 41.5698C88.7218 64.5282 70.2394 83.1396 47.4403 83.1396C24.6412 83.1396 6.15881 64.5282 6.15881 41.5698C6.15881 18.6114 24.6412 0 47.4403 0Z" fill="#9EBEB1" fill-opacity="0.35"/>
<path d="M85.5194 73.8093L85.5302 73.82L85.5418 73.8297L102.769 88.3273C105.117 90.703 105.293 94.5183 102.971 96.8567C100.632 99.2121 96.8417 99.2135 94.5008 96.8609L79.362 80.6007L79.3563 80.5944L78.982 80.1735C78.3174 79.3316 77.9502 78.2832 77.9502 77.1963C77.9502 75.9245 78.453 74.7055 79.3465 73.8083C81.0605 72.1135 83.8059 72.1138 85.5194 73.8093ZM47.4403 0.375671C58.2883 0.375671 68.6926 4.71512 76.3641 12.4402C84.0358 20.1654 88.3461 30.6436 88.3461 41.5698C88.3461 64.3232 70.0295 82.7639 47.4403 82.7639C24.8511 82.7639 6.53448 64.3232 6.53448 41.5698C6.53448 18.8164 24.8511 0.375671 47.4403 0.375671Z" stroke="white" stroke-opacity="0.3" stroke-width="0.751342"/>
</g>
<defs>
<filter id="filter0_b_1153_2333" x="-10.1203" y="-16.2791" width="131.399" height="131.558" filterUnits="userSpaceOnUse" color-interpolation-filters="sRGB">
<feFlood flood-opacity="0" result="BackgroundImageFix"/>
<feGaussianBlur in="BackgroundImageFix" stdDeviation="8.13954"/>
<feComposite in2="SourceAlpha" operator="in" result="effect1_backgroundBlur_1153_2333"/>
<feBlend mode="normal" in="SourceGraphic" in2="effect1_backgroundBlur_1153_2333" result="shape"/>
</filter>
</defs>
</svg>
