<svg width="22" height="20" viewBox="0 0 22 20" fill="none" xmlns="http://www.w3.org/2000/svg">
<path id="Vector" d="M9.64312 18.2308C9.64557 18.579 9.53189 18.92 9.31651 19.2106C9.10112 19.5012 8.79373 19.7282 8.4333 19.863C8.07288 19.9978 7.67564 20.0341 7.29197 19.9675C6.9083 19.9009 6.55546 19.7344 6.2782 19.4889C6.00093 19.2435 5.81172 18.9302 5.73456 18.5889C5.6574 18.2475 5.69576 17.8934 5.84478 17.5715C5.99379 17.2496 6.24676 16.9744 6.5716 16.7807C6.89643 16.587 7.27852 16.4836 7.66941 16.4836C8.19074 16.4836 8.6909 16.6673 9.06069 16.9947C9.43048 17.322 9.63987 17.7664 9.64312 18.2308ZM17.7724 16.4836C17.382 16.4836 17.0004 16.5867 16.6758 16.7799C16.3513 16.9731 16.0983 17.2477 15.9489 17.569C15.7995 17.8902 15.7604 18.2437 15.8366 18.5848C15.9127 18.9259 16.1007 19.2391 16.3768 19.485C16.6528 19.7309 17.0045 19.8984 17.3873 19.9662C17.7702 20.0341 18.167 19.9992 18.5277 19.8662C18.8883 19.7331 19.1966 19.5077 19.4135 19.2186C19.6304 18.9295 19.7461 18.5895 19.7461 18.2418C19.7461 17.7755 19.5382 17.3283 19.168 16.9986C18.7979 16.6688 18.2958 16.4836 17.7724 16.4836ZM21.9542 5.76956L19.9558 12.9013C19.7528 13.6119 19.2895 14.242 18.6394 14.6917C17.9892 15.1415 17.1893 15.3854 16.3661 15.3847H9.07568C8.25085 15.3848 7.44964 15.1393 6.79928 14.6874C6.14892 14.2355 5.68669 13.603 5.48598 12.8903L2.73092 3.5L2.16418 2.5C1.83701 2.5 0.900784 2.38423 0.669444 2.17815C0.438104 1.97207 0.102705 1.96959 0.102705 1.67815C0.102705 1.38671 -0.128483 0.884225 0.102857 0.678146C0.334197 0.472067 0.909169 0.178146 1.23633 0.178146L3.48759 0.000466375C3.76938 -0.00684705 4.04548 0.0720395 4.26993 0.223993C4.49438 0.375946 4.65362 0.591797 4.72116 0.835612L5.68335 4.39597H20.6096H20.7206C20.835 4.37973 20.9516 4.37973 21.066 4.39597C21.226 4.43164 21.3763 4.49553 21.5081 4.58385C21.6398 4.67217 21.7504 4.78312 21.8332 4.91016C21.916 5.03719 21.9694 5.17772 21.9902 5.32345C22.0109 5.46917 21.9987 5.61713 21.9542 5.75857V5.76956ZM19.1787 6.59372H6.30014L7.91612 12.3518C7.98061 12.5847 8.12885 12.7923 8.33821 12.9431C8.54758 13.0939 8.80657 13.1796 9.07568 13.187H16.3291C16.6109 13.1943 16.887 13.1154 17.1114 12.9634C17.3359 12.8115 17.4951 12.5956 17.5627 12.3518L19.1787 6.59372Z" fill="#BA704F" fill-opacity="0.85"/>
</svg>
