<?xml version="1.0" encoding="UTF-8"?>
<svg version="1.1" xmlns="http://www.w3.org/2000/svg" width="279" height="263">
<path d="M0 0 C92.07 0 184.14 0 279 0 C279 86.79 279 173.58 279 263 C186.93 263 94.86 263 0 263 C0 176.21 0 89.42 0 0 Z " fill="#FEFEFE" transform="translate(0,0)"/>
<path d="M0 0 C0.66 0 1.32 0 2 0 C3.15063477 1.55932617 3.15063477 1.55932617 4.44140625 3.79296875 C5.17979736 5.05717651 5.17979736 5.05717651 5.93310547 6.34692383 C6.47080566 7.28431396 7.00850586 8.2217041 7.5625 9.1875 C8.1311377 10.16420654 8.69977539 11.14091309 9.28564453 12.1472168 C10.53232964 14.28885924 11.77599673 16.43226056 13.01708984 18.57714844 C16.09314953 23.88696828 19.19534986 29.18140393 22.2984314 34.47546387 C23.38293805 36.32604533 24.46649442 38.17718117 25.55004883 40.02832031 C30.84841394 49.07318339 36.22006825 58.07235435 41.62548828 67.05371094 C46.04958362 74.4064988 50.43154711 81.78287923 54.7902832 89.17456055 C59.82387452 97.70891466 64.87901982 106.23038402 69.9375 114.75 C70.34464233 115.43595245 70.75178467 116.12190491 71.17126465 116.8286438 C71.96744087 118.17000138 72.76377339 119.51126621 73.56027222 120.85243225 C74.32094896 122.13350696 75.08115358 123.41486214 75.84085083 124.69651794 C78.51881143 129.2092306 81.24361191 133.69173475 84.00610352 138.15332031 C85 140 85 140 85 142 C77.41 142 69.82 142 62 142 C60.989375 138.761875 59.97875 135.52375 58.9375 132.1875 C56.24937784 123.91410677 53.37181641 116.91766286 48 110 C47.53464844 109.37996094 47.06929687 108.75992188 46.58984375 108.12109375 C44.85746243 105.92250583 43.3255003 104.18771921 40.88671875 102.78125 C39 101 39 101 38.53125 97.75 C38.51041667 95.25 38.48958333 92.75 38.46875 90.25 C38.31885602 86.50356446 38.31885602 86.50356446 34 84 C33.67 87.63 33.34 91.26 33 95 C31.02 94.01 31.02 94.01 29 93 C28.6015625 90.06640625 28.6015625 90.06640625 28.625 86.5625 C28.55229932 83.09665264 28.55229932 83.09665264 28 80 C25.15899225 77.53025527 25.15899225 77.53025527 22 77 C22 80.63 22 84.26 22 88 C20.02 87.505 20.02 87.505 18 87 C17.67 82.71 17.34 78.42 17 74 C14.69 73.01 12.38 72.02 10 71 C9.67 74.63 9.34 78.26 9 82 C7.02 81.505 7.02 81.505 5 81 C5 76.71 5 72.42 5 68 C2.36 67.34 -0.28 66.68 -3 66 C-3 69.96 -3 73.92 -3 78 C-4.98 77.505 -4.98 77.505 -7 77 C-7 72.38 -7 67.76 -7 63 C-9.31 62.67 -11.62 62.34 -14 62 C-14 65.63 -14 69.26 -14 73 C-16.97 72.67 -19.94 72.34 -23 72 C-22.04738281 72.556875 -21.09476563 73.11375 -20.11328125 73.6875 C-11.85807323 78.6561862 -6.19432335 82.41702995 -3 92 C-2.71278463 96.24524122 -2.72225376 100.4961398 -2.6875 104.75 C-2.64399414 106.50183594 -2.64399414 106.50183594 -2.59960938 108.2890625 C-2.54140706 116.18666858 -3.13870862 120.90577688 -8.68359375 126.78515625 C-26.67343679 139.88689049 -48.20972213 142.40139707 -69.875 142.125 C-71.25650378 142.11493026 -72.63801484 142.1058116 -74.01953125 142.09765625 C-77.34654732 142.0743904 -80.67317285 142.04170564 -84 142 C-79.74823874 134.06133977 -75.28730749 126.25604502 -70.72363281 118.49414062 C-69.63114894 116.6354614 -68.54195554 114.77488371 -67.453125 112.9140625 C-66.73201627 111.68475183 -66.01066328 110.4555844 -65.2890625 109.2265625 C-64.93653412 108.62480698 -64.58400574 108.02305145 -64.22079468 107.40306091 C-62.43255352 104.36701993 -60.60885482 101.36273047 -58.70947266 98.39477539 C-58.34115326 97.81484833 -57.97283386 97.23492126 -57.59335327 96.63742065 C-56.58126112 95.05203411 -55.55714826 93.47433967 -54.53222656 91.8972168 C-52.07914187 87.25879168 -51.64214235 83.05468395 -53 78 C-54.6808583 74.98332762 -56.69240775 72.5504967 -59 70 C-59.495 69.01 -59.495 69.01 -60 68 C-55.92408457 69.2322535 -52.6285039 70.80380027 -49 73 C-47.68 73.33 -46.36 73.66 -45 74 C-45 71.03 -45 68.06 -45 65 C-47.31 64.67 -49.62 64.34 -52 64 C-52.33 60.37 -52.66 56.74 -53 53 C-54.98 53.495 -54.98 53.495 -57 54 C-56.67 55.98 -56.34 57.96 -56 60 C-62.435 60.495 -62.435 60.495 -69 61 C-69.66 60.01 -70.32 59.02 -71 58 C-68.36 56.68 -65.72 55.36 -63 54 C-64.485 53.505 -64.485 53.505 -66 53 C-66 52.34 -66 51.68 -66 51 C-67.32 50.34 -68.64 49.68 -70 49 C-70 48.67 -70 48.34 -70 48 C-67.36 47.34 -64.72 46.68 -62 46 C-62.474375 45.21625 -62.94875 44.4325 -63.4375 43.625 C-64.33898023 42.11051322 -65.21179485 40.5764103 -66 39 C-63.36 38.67 -60.72 38.34 -58 38 C-58.99 34.535 -58.99 34.535 -60 31 C-57.03 31 -54.06 31 -51 31 C-51.350625 30.236875 -51.70125 29.47375 -52.0625 28.6875 C-53 26 -53 26 -52 23 C-47.545 24.98 -47.545 24.98 -43 27 C-43.66 24.03 -44.32 21.06 -45 18 C-41.66666667 19.66666667 -38.33333333 21.33333333 -35 23 C-35 20.03 -35 17.06 -35 14 C-33.88625 15.1446875 -33.88625 15.1446875 -32.75 16.3125 C-30.5736677 18.4393702 -28.47832204 20.2559956 -26 22 C-26 19.36 -26 16.72 -26 14 C-25.34 13.67 -24.68 13.34 -24 13 C-18.94091904 19.89715536 -18.94091904 19.89715536 -19.1875 24.5 C-19.455625 25.325 -19.72375 26.15 -20 27 C-20.99 27.33 -21.98 27.66 -23 28 C-23 28.66 -23 29.32 -23 30 C-23.66 30 -24.32 30 -25 30 C-25.495 29.01 -25.495 29.01 -26 28 C-26.99 28.99 -27.98 29.98 -29 31 C-25.37 31 -21.74 31 -18 31 C-17.42779253 26.92302175 -16.99195009 23.24954732 -17.125 19.125 C-17.08375 18.09375 -17.0425 17.0625 -17 16 C-16.01 15.34 -15.02 14.68 -14 14 C-13.505 16.97 -13.505 16.97 -13 20 C-8.97943781 16.49584029 -6.75597864 12.37014303 -4.25 7.75 C-3.63318359 6.63238281 -3.63318359 6.63238281 -3.00390625 5.4921875 C-1.99650456 3.66480769 -0.99741214 1.83285137 0 0 Z " fill="#9BBCAF" transform="translate(141,34)"/>
<path d="M0 0 C2.31 0.33 4.62 0.66 7 1 C7 5.62 7 10.24 7 15 C7.99 15 8.98 15 10 15 C10.33 11.37 10.66 7.74 11 4 C16.75 4.875 16.75 4.875 19 6 C19 10.29 19 14.58 19 19 C20.32 19.33 21.64 19.66 23 20 C23 16.04 23 12.08 23 8 C27.455 9.98 27.455 9.98 32 12 C32 16.29 32 20.58 32 25 C33.98 25.495 33.98 25.495 36 26 C36 22.37 36 18.74 36 15 C40 16 40 16 43 18 C43.45915688 21.35537717 43.50391021 24.64728452 43.59375 28.03125 C43.79484375 29.50078125 43.79484375 29.50078125 44 31 C44.99 31.66 45.98 32.32 47 33 C47 29.04 47 25.08 47 21 C52 24 52 24 53 25 C53.07949675 27.24946361 53.1384782 29.499666 53.1875 31.75 C53.39608842 37.33305088 53.39608842 37.33305088 56.5625 41.6875 C57.10003906 42.02394531 57.63757813 42.36039063 58.19140625 42.70703125 C69.43694531 50.7464987 73.49086127 67.45430633 76 80 C37.72 80 -0.56 80 -40 80 C-40 79.67 -40 79.34 -40 79 C-38.85144531 78.82984375 -37.70289062 78.6596875 -36.51953125 78.484375 C-21.36939373 76.15824367 -4.33168533 73.33168533 7 62 C10.98421942 56.17991476 10.51528472 50.03641699 10.5 43.25 C10.54253906 41.55617188 10.54253906 41.55617188 10.5859375 39.828125 C10.60352692 32.22949388 9.63542388 26.18627206 5 20 C2.58889609 17.72950602 0.04088721 16.04061358 -2.8125 14.375 C-3.50537109 13.94316406 -4.19824219 13.51132813 -4.91210938 13.06640625 C-6.59453703 12.02214081 -8.29543695 11.0077291 -10 10 C-6.06329512 8.68776504 -3.87511856 9.75703744 0 11 C0 7.37 0 3.74 0 0 Z " fill="#E4E5E5" transform="translate(127,96)"/>
<path d="M0 0 C0.33 0 0.66 0 1 0 C0.96777344 0.95261719 0.93554688 1.90523438 0.90234375 2.88671875 C0.66226865 10.11450071 0.66226865 10.11450071 4.0703125 16.04296875 C6.81486987 17.5843118 6.81486987 17.5843118 11 19 C11.33 15.04 11.66 11.08 12 7 C12.99 7.33 13.98 7.66 15 8 C14.67 12.62 14.34 17.24 14 22 C15.32 22.66 16.64 23.32 18 24 C18.66 24.33 19.32 24.66 20 25 C20 20.71 20 16.42 20 12 C20.99 12.33 21.98 12.66 23 13 C22.34 13.33 21.68 13.66 21 14 C21 18.29 21 22.58 21 27 C23.475 27.99 23.475 27.99 26 29 C26 24.71 26 20.42 26 16 C27.32 16.66 28.64 17.32 30 18 C29.96519531 19.03640625 29.93039063 20.0728125 29.89453125 21.140625 C29.86638518 22.51040042 29.83908589 23.88019341 29.8125 25.25 C29.78736328 25.93191406 29.76222656 26.61382812 29.73632812 27.31640625 C29.66777926 32.02342814 30.01566345 33.0208846 33 37 C33.33 32.38 33.66 27.76 34 23 C36 25 36 25 36.1953125 28.6953125 C36.182009 30.17200108 36.15814835 31.64862358 36.125 33.125 C36.11597656 33.87910156 36.10695313 34.63320312 36.09765625 35.41015625 C36.0740687 37.27357254 36.03819719 39.13682593 36 41 C36.66 41 37.32 41 38 41 C38 37.37 38 33.74 38 30 C38.66 30.33 39.32 30.66 40 31 C40.11693501 34.85390817 40.1874962 38.70735512 40.25 42.5625 C40.28351563 43.64853516 40.31703125 44.73457031 40.3515625 45.85351562 C40.44487024 53.52807753 39.71018895 58.06599455 34.31640625 63.78515625 C16.32656321 76.88689049 -5.20972213 79.40139707 -26.875 79.125 C-28.25650378 79.11493026 -29.63801484 79.1058116 -31.01953125 79.09765625 C-34.34654732 79.0743904 -37.67317285 79.04170564 -41 79 C-36.74823874 71.06133977 -32.28730749 63.25604502 -27.72363281 55.49414062 C-26.63114894 53.6354614 -25.54195554 51.77488371 -24.453125 49.9140625 C-23.73201627 48.68475183 -23.01066328 47.4555844 -22.2890625 46.2265625 C-21.76026993 45.32392921 -21.76026993 45.32392921 -21.22079468 44.40306091 C-19.43255352 41.36701993 -17.60885482 38.36273047 -15.70947266 35.39477539 C-15.34115326 34.81484833 -14.97283386 34.23492126 -14.59335327 33.63742065 C-13.58126112 32.05203411 -12.55714826 30.47433967 -11.53222656 28.8972168 C-9.07914187 24.25879168 -8.64214235 20.05468395 -10 15 C-11.6808583 11.98332762 -13.69240775 9.5504967 -16 7 C-16.33 6.34 -16.66 5.68 -17 5 C-10.81038647 6.67286852 -5.55794051 9.88213093 0 13 C0 8.71 0 4.42 0 0 Z " fill="#346C5B" transform="translate(98,97)"/>
<path d="M0 0 C0.33 0 0.66 0 1 0 C0.96777344 0.95261719 0.93554688 1.90523438 0.90234375 2.88671875 C0.66226865 10.11450071 0.66226865 10.11450071 4.0703125 16.04296875 C6.81486987 17.5843118 6.81486987 17.5843118 11 19 C11.33 15.04 11.66 11.08 12 7 C12.99 7.33 13.98 7.66 15 8 C14.67 12.62 14.34 17.24 14 22 C15.32 22.66 16.64 23.32 18 24 C18.66 24.33 19.32 24.66 20 25 C20 20.71 20 16.42 20 12 C20.99 12.33 21.98 12.66 23 13 C22.34 13.33 21.68 13.66 21 14 C21 18.29 21 22.58 21 27 C21.66 27.33 22.32 27.66 23 28 C21.68 28 20.36 28 19 28 C19 37.24 19 46.48 19 56 C16.525 56.495 16.525 56.495 14 57 C14 46.11 14 35.22 14 24 C12.68 23.67 11.36 23.34 10 23 C10 34.88 10 46.76 10 59 C8.02 59.495 8.02 59.495 6 60 C6 46.47 6 32.94 6 19 C4.68 18.67 3.36 18.34 2 18 C2 32.19 2 46.38 2 61 C-5.920547 62.44009945 -13.0691347 63.44017421 -21 64 C-21.33 68.95 -21.66 73.9 -22 79 C-28.27 79 -34.54 79 -41 79 C-36.7315517 71.06903454 -32.28787208 63.25700528 -27.72363281 55.49414062 C-26.63114894 53.6354614 -25.54195554 51.77488371 -24.453125 49.9140625 C-23.73201627 48.68475183 -23.01066328 47.4555844 -22.2890625 46.2265625 C-21.76026993 45.32392921 -21.76026993 45.32392921 -21.22079468 44.40306091 C-19.43255352 41.36701993 -17.60885482 38.36273047 -15.70947266 35.39477539 C-15.34115326 34.81484833 -14.97283386 34.23492126 -14.59335327 33.63742065 C-13.58126112 32.05203411 -12.55714826 30.47433967 -11.53222656 28.8972168 C-9.07914187 24.25879168 -8.64214235 20.05468395 -10 15 C-11.6808583 11.98332762 -13.69240775 9.5504967 -16 7 C-16.33 6.34 -16.66 5.68 -17 5 C-10.81038647 6.67286852 -5.55794051 9.88213093 0 13 C0 8.71 0 4.42 0 0 Z " fill="#396B56" transform="translate(98,97)"/>
<path d="M0 0 C1 1.33333333 2 2.66666667 3 4 C3.86625 4.928125 3.86625 4.928125 4.75 5.875 C6.49975546 8.84958428 5.81362092 10.74551631 5 14 C4.01 14.33 3.02 14.66 2 15 C2 15.66 2 16.32 2 17 C1.34 17 0.68 17 0 17 C-0.495 16.01 -0.495 16.01 -1 15 C-1.99 15.99 -2.98 16.98 -4 18 C-0.7 18.33 2.6 18.66 6 19 C4.49256279 23.08073912 2.54408628 26.73218478 0.375 30.5 C0.02888672 31.10150879 -0.31722656 31.70301758 -0.67382812 32.32275391 C-4.32283119 38.62632452 -8.1417756 44.82273646 -12 51 C-14.64 50.34 -17.28 49.68 -20 49 C-20 49.99 -20 50.98 -20 52 C-23.465 51.505 -23.465 51.505 -27 51 C-27.33 47.37 -27.66 43.74 -28 40 C-29.98 40.495 -29.98 40.495 -32 41 C-31.67 42.98 -31.34 44.96 -31 47 C-37.435 47.495 -37.435 47.495 -44 48 C-44.66 47.01 -45.32 46.02 -46 45 C-43.36 43.68 -40.72 42.36 -38 41 C-38.99 40.67 -39.98 40.34 -41 40 C-41 39.34 -41 38.68 -41 38 C-42.32 37.34 -43.64 36.68 -45 36 C-45 35.67 -45 35.34 -45 35 C-42.36 34.34 -39.72 33.68 -37 33 C-37.474375 32.21625 -37.94875 31.4325 -38.4375 30.625 C-39.33898023 29.11051322 -40.21179485 27.5764103 -41 26 C-37.04 25.505 -37.04 25.505 -33 25 C-33.66 22.69 -34.32 20.38 -35 18 C-32.03 18 -29.06 18 -26 18 C-26.350625 17.236875 -26.70125 16.47375 -27.0625 15.6875 C-28 13 -28 13 -27 10 C-22.545 11.98 -22.545 11.98 -18 14 C-18.66 11.03 -19.32 8.06 -20 5 C-16.66666667 6.66666667 -13.33333333 8.33333333 -10 10 C-10 7.03 -10 4.06 -10 1 C-9.2575 1.763125 -8.515 2.52625 -7.75 3.3125 C-5.5736677 5.4393702 -3.47832204 7.2559956 -1 9 C-1.020625 7.700625 -1.04125 6.40125 -1.0625 5.0625 C-1.08399454 3.70834367 -1.07148199 2.35243917 -1 1 C-0.67 0.67 -0.34 0.34 0 0 Z " fill="#FAF2EC" transform="translate(116,47)"/>
<path d="M0 0 C6.33668018 -0.42650732 11.50784394 1.08875949 17.5 3.0625 C18.47686768 3.3812207 19.45373535 3.69994141 20.46020508 4.02832031 C44.82684886 12.17260069 74.83799025 26.37260343 86.875 50.25 C89.70100418 56.05408034 91.13190454 60.20194677 91.09765625 66.640625 C91.09282227 68.24550781 91.09282227 68.24550781 91.08789062 69.8828125 C91.07532227 71.54957031 91.07532227 71.54957031 91.0625 73.25 C91.05798828 74.37664062 91.05347656 75.50328125 91.04882812 76.6640625 C91.03705397 79.44276217 91.0206084 82.22135409 91 85 C90.01 85 89.02 85 88 85 C87.82460693 84.42145264 87.64921387 83.84290527 87.46850586 83.24682617 C82.59930097 67.22693693 82.59930097 67.22693693 74 53 C73.53464844 52.37996094 73.06929688 51.75992188 72.58984375 51.12109375 C70.85746243 48.92250583 69.3255003 47.18771921 66.88671875 45.78125 C65 44 65 44 64.53125 40.75 C64.51041667 38.25 64.48958333 35.75 64.46875 33.25 C64.31885602 29.50356446 64.31885602 29.50356446 60 27 C59.67 30.63 59.34 34.26 59 38 C57.68 37.34 56.36 36.68 55 36 C54.6015625 33.06640625 54.6015625 33.06640625 54.625 29.5625 C54.55229932 26.09665264 54.55229932 26.09665264 54 23 C51.15899225 20.53025527 51.15899225 20.53025527 48 20 C48 23.63 48 27.26 48 31 C46.68 30.67 45.36 30.34 44 30 C43.67 25.71 43.34 21.42 43 17 C40.69 16.01 38.38 15.02 36 14 C35.67 17.63 35.34 21.26 35 25 C33.68 24.67 32.36 24.34 31 24 C31 19.71 31 15.42 31 11 C28.36 10.34 25.72 9.68 23 9 C23 12.96 23 16.92 23 21 C21.68 20.67 20.36 20.34 19 20 C19 15.38 19 10.76 19 6 C16.69 5.67 14.38 5.34 12 5 C12 8.63 12 12.26 12 16 C10.68 16 9.36 16 8 16 C7.67 11.71 7.34 7.42 7 3 C4.525 2.01 4.525 2.01 2 1 C2 4.96 2 8.92 2 13 C1.34 13 0.68 13 0 13 C0 8.71 0 4.42 0 0 Z " fill="#619D87" transform="translate(115,91)"/>
<path d="M0 0 C1.32 0.33 2.64 0.66 4 1 C4 14.53 4 28.06 4 42 C5.98 41.505 5.98 41.505 8 41 C8 29.12 8 17.24 8 5 C9.32 5.33 10.64 5.66 12 6 C12 16.89 12 27.78 12 39 C14.475 38.505 14.475 38.505 17 38 C17 29.09 17 20.18 17 11 C18.32 11.66 19.64 12.32 21 13 C21.33 20.26 21.66 27.52 22 35 C22.66 34.67 23.32 34.34 24 34 C24.31241455 31.28553021 24.51336592 28.66090639 24.625 25.9375 C24.66367188 25.17888672 24.70234375 24.42027344 24.7421875 23.63867188 C24.83673562 21.75952805 24.91946756 19.87979664 25 18 C25.66 18 26.32 18 27 18 C29.24234009 21.36351013 29.27098215 22.62310056 29.25 26.5625 C29.25773437 28.01849609 29.25773437 28.01849609 29.265625 29.50390625 C29 32 29 32 27 34 C27.66 34.66 28.32 35.32 29 36 C29.30078125 37.875 29.30078125 37.875 29.3125 40 C29.32925781 40.70125 29.34601563 41.4025 29.36328125 42.125 C29.24339844 42.74375 29.12351563 43.3625 29 44 C28.01 44.66 27.02 45.32 26 46 C26 43.03 26 40.06 26 37 C23.3202093 37.76974753 23.3202093 37.76974753 21 40 C20.53912752 43.36708009 20.71473072 46.62114388 21 50 C19.02 50.495 19.02 50.495 17 51 C17 47.7 17 44.4 17 41 C15.35 41.66 13.7 42.32 12 43 C12 46.63 12 50.26 12 54 C10.68 54 9.36 54 8 54 C8 50.7 8 47.4 8 44 C6.68 44 5.36 44 4 44 C4 47.96 4 51.92 4 56 C2.68 56 1.36 56 0 56 C0 52.7 0 49.4 0 46 C-1.5159375 46.2475 -1.5159375 46.2475 -3.0625 46.5 C-9.66441708 47.34762407 -16.3568696 47.07784918 -23 47 C-23.33 46.34 -23.66 45.68 -24 45 C-16.08 44.34 -8.16 43.68 0 43 C0 28.81 0 14.62 0 0 Z " fill="#5D8F7C" transform="translate(100,115)"/>
<path d="M0 0 C8 0 8 0 10.19335938 1.74414062 C10.73798828 2.54013672 11.28261719 3.33613281 11.84375 4.15625 C12.75253906 5.44208984 12.75253906 5.44208984 13.6796875 6.75390625 C14.28039062 7.66011719 14.88109375 8.56632813 15.5 9.5 C16.13164063 10.40621094 16.76328125 11.31242188 17.4140625 12.24609375 C18.96668429 14.48092814 20.48660867 16.7384152 22 19 C22.33 12.73 22.66 6.46 23 0 C25.31 0 27.62 0 30 0 C30 10.89 30 21.78 30 33 C23 33 23 33 20.92016602 31.34765625 C20.37030029 30.59355469 19.82043457 29.83945313 19.25390625 29.0625 C18.64482422 28.25039062 18.03574219 27.43828125 17.40820312 26.6015625 C16.79912109 25.74304688 16.19003906 24.88453125 15.5625 24 C14.92634766 23.14148438 14.29019531 22.28296875 13.63476562 21.3984375 C12.06972809 19.28034159 10.53213624 17.14201571 9 15 C8.67 21.27 8.34 27.54 8 34 C5.36 34 2.72 34 0 34 C0 22.78 0 11.56 0 0 Z " fill="#416F5C" transform="translate(54,188)"/>
<path d="M0 0 C0.33 0.99 0.66 1.98 1 3 C-0.4375 5.1875 -0.4375 5.1875 -2 7 C-2.845625 6.67 -3.69125 6.34 -4.5625 6 C-8.36487737 4.89385386 -11.06476276 4.49915162 -15 5 C-18.07504636 7.02822207 -19.66581629 8.49753176 -20.48046875 12.16015625 C-20.73229154 16.23696312 -20.29042369 18.5092841 -18.1875 22.0625 C-13.53688468 24.88934461 -9.30836275 24.41834733 -4 24 C-4 22.35 -4 20.7 -4 19 C-6.64 19 -9.28 19 -12 19 C-12 16.69 -12 14.38 -12 12 C-7.05 12 -2.1 12 3 12 C3.12375 14.3925 3.2475 16.785 3.375 19.25 C3.42962402 19.99668945 3.48424805 20.74337891 3.54052734 21.51269531 C3.5859375 23.328125 3.5859375 23.328125 3 27 C-2.14872863 31.49607288 -7.0087155 32.3753856 -13.62109375 32.27734375 C-19.22639314 31.62385236 -22.96204165 29.30410152 -26.4375 24.9375 C-29.12035498 19.89373265 -29.67350382 15.62188604 -29 10 C-26.91410214 4.18442606 -22.99902048 0.57843183 -17.625 -2.25 C-11.07474776 -4.12150064 -5.98217894 -2.78480744 0 0 Z " fill="#3E6D59" transform="translate(160,190)"/>
<path d="M0 0 C0.90105469 0.00902344 1.80210938 0.01804687 2.73046875 0.02734375 C3.41753906 0.03894531 4.10460937 0.05054687 4.8125 0.0625 C3.30506279 4.14323912 1.35658628 7.79468478 -0.8125 11.5625 C-1.15861328 12.16400879 -1.50472656 12.76551758 -1.86132812 13.38525391 C-5.51033119 19.68882452 -9.3292756 25.88523646 -13.1875 32.0625 C-15.8275 31.4025 -18.4675 30.7425 -21.1875 30.0625 C-21.1875 31.0525 -21.1875 32.0425 -21.1875 33.0625 C-23.4975 32.7325 -25.8075 32.4025 -28.1875 32.0625 C-29.03040898 23.25878403 -27.06106271 16.9796682 -21.578125 10.01953125 C-15.79966044 3.80370584 -8.56433741 -0.11122516 0 0 Z " fill="#EACA75" transform="translate(117.1875,65.9375)"/>
<path d="M0 0 C2.64 0 5.28 0 8 0 C11.65786593 7.04624557 14.84522499 14.2010906 17.8125 21.5625 C18.42254883 23.05620117 18.42254883 23.05620117 19.04492188 24.58007812 C22 31.85602679 22 31.85602679 22 33 C19.36 33 16.72 33 14 33 C13.34 30.69 12.68 28.38 12 26 C9.55764178 26.00600826 7.12806579 26.05328457 4.6875 26.125 C3.99720703 26.12242187 3.30691406 26.11984375 2.59570312 26.1171875 C0.29299308 26.14483876 0.29299308 26.14483876 -3 27 C-5.0645852 29.91718568 -5.0645852 29.91718568 -6 33 C-8.31 33 -10.62 33 -13 33 C-10.66737643 25.63014946 -7.8202139 18.55561321 -4.8125 11.4375 C-4.11737305 9.78137695 -4.11737305 9.78137695 -3.40820312 8.09179688 C-2.27506147 5.39328426 -1.1389372 2.69607042 0 0 Z " fill="#3F6E5A" transform="translate(105,188)"/>
<path d="M0 0 C1.134375 0.020625 2.26875 0.04125 3.4375 0.0625 C7.09536593 7.10874557 10.28272499 14.2635906 13.25 21.625 C13.86004883 23.11870117 13.86004883 23.11870117 14.48242188 24.64257812 C17.4375 31.91852679 17.4375 31.91852679 17.4375 33.0625 C14.7975 33.0625 12.1575 33.0625 9.4375 33.0625 C7.9768715 30.41511084 7.4375 29.16801666 7.4375 26.0625 C4.99514178 26.06850826 2.56556579 26.11578457 0.125 26.1875 C-0.56529297 26.18492187 -1.25558594 26.18234375 -1.96679688 26.1796875 C-4.26950692 26.20733876 -4.26950692 26.20733876 -7.5625 27.0625 C-9.6270852 29.97968568 -9.6270852 29.97968568 -10.5625 33.0625 C-12.8725 33.0625 -15.1825 33.0625 -17.5625 33.0625 C-15.29267099 25.84714951 -12.48131005 18.98343985 -9.4375 12.0625 C-8.98246094 11.01449219 -8.52742187 9.96648437 -8.05859375 8.88671875 C-4.20651316 0.07379848 -4.20651316 0.07379848 0 0 Z " fill="#3E6D59" transform="translate(187.5625,187.9375)"/>
<path d="M0 0 C2.05078125 0.03255208 4.1015625 0.06510417 6.15234375 0.09765625 C8.00828582 4.4740041 9.85957611 8.8522786 11.70654297 13.23242188 C12.33579401 14.72287297 12.96632309 16.21278515 13.59814453 17.70214844 C14.50497909 19.84039884 15.40723164 21.98053177 16.30859375 24.12109375 C16.59295288 24.78885834 16.87731201 25.45662292 17.17028809 26.1446228 C19.15234375 30.86991284 19.15234375 30.86991284 19.15234375 33.09765625 C16.51234375 33.09765625 13.87234375 33.09765625 11.15234375 33.09765625 C10.49234375 30.78765625 9.83234375 28.47765625 9.15234375 26.09765625 C4.20234375 26.09765625 -0.74765625 26.09765625 -5.84765625 26.09765625 C-6.50765625 28.40765625 -7.16765625 30.71765625 -7.84765625 33.09765625 C-10.15765625 33.09765625 -12.46765625 33.09765625 -14.84765625 33.09765625 C-14.26085374 28.66721443 -13.13268278 24.96420597 -11.37890625 20.859375 C-10.89035156 19.71017578 -10.40179687 18.56097656 -9.8984375 17.37695312 C-9.38667969 16.19166016 -8.87492187 15.00636719 -8.34765625 13.78515625 C-7.83589844 12.58052734 -7.32414062 11.37589844 -6.796875 10.13476562 C-2.52098495 0.13324445 -2.52098495 0.13324445 0 0 Z " fill="#406F5B" transform="translate(26.84765625,187.90234375)"/>
<path d="M0 0 C1.134375 0.020625 2.26875 0.04125 3.4375 0.0625 C6.89612841 6.53080025 9.86802236 13.1977419 12.75 19.9375 C13.11158203 20.76999268 13.47316406 21.60248535 13.84570312 22.46020508 C14.18150391 23.25450928 14.51730469 24.04881348 14.86328125 24.8671875 C15.31828003 25.93428955 15.31828003 25.93428955 15.7824707 27.02294922 C16.4375 29.0625 16.4375 29.0625 16.4375 33.0625 C14.1275 33.0625 11.8175 33.0625 9.4375 33.0625 C8.7775 30.7525 8.1175 28.4425 7.4375 26.0625 C2.4875 26.0625 -2.4625 26.0625 -7.5625 26.0625 C-8.2225 28.3725 -8.8825 30.6825 -9.5625 33.0625 C-11.8725 33.0625 -14.1825 33.0625 -16.5625 33.0625 C-15.97569749 28.63205818 -14.84752653 24.92904972 -13.09375 20.82421875 C-12.60519531 19.67501953 -12.11664063 18.52582031 -11.61328125 17.34179688 C-11.10152344 16.15650391 -10.58976563 14.97121094 -10.0625 13.75 C-9.55074219 12.54537109 -9.03898438 11.34074219 -8.51171875 10.09960938 C-4.22558733 0.07413311 -4.22558733 0.07413311 0 0 Z " fill="#3E6D59" transform="translate(252.5625,187.9375)"/>
<path d="M0 0 C9.24 0 18.48 0 28 0 C28 2.31 28 4.62 28 7 C24.7 7 21.4 7 18 7 C18 15.91 18 24.82 18 34 C15.36 34 12.72 34 10 34 C10 25.09 10 16.18 10 7 C6.7 7 3.4 7 0 7 C0 4.69 0 2.38 0 0 Z " fill="#43715E" transform="translate(206,188)"/>
<path d="M0 0 C1 1.33333333 2 2.66666667 3 4 C3.86625 4.928125 3.86625 4.928125 4.75 5.875 C6.49975546 8.84958428 5.81362092 10.74551631 5 14 C4.01 14.33 3.02 14.66 2 15 C2 15.66 2 16.32 2 17 C1.34 17 0.68 17 0 17 C-0.33 16.34 -0.66 15.68 -1 15 C-1.6496875 15.928125 -1.6496875 15.928125 -2.3125 16.875 C-4.71746153 19.90347007 -7.65692335 21.38835671 -11.0625 23.0625 C-12.10083984 23.57490234 -12.10083984 23.57490234 -13.16015625 24.09765625 C-13.76730469 24.39542969 -14.37445313 24.69320312 -15 25 C-15.66 25.33 -16.32 25.66 -17 26 C-17 25.34 -17 24.68 -17 24 C-17.66 24 -18.32 24 -19 24 C-19.04125 23.4225 -19.0825 22.845 -19.125 22.25 C-20.43325261 18.88592187 -23.01421964 17.88896309 -26 16 C-26.66 15.01 -27.32 14.02 -28 13 C-27.67 12.01 -27.34 11.02 -27 10 C-22.545 11.98 -22.545 11.98 -18 14 C-18.66 11.03 -19.32 8.06 -20 5 C-16.66666667 6.66666667 -13.33333333 8.33333333 -10 10 C-10 7.03 -10 4.06 -10 1 C-9.2575 1.763125 -8.515 2.52625 -7.75 3.3125 C-5.5736677 5.4393702 -3.47832204 7.2559956 -1 9 C-1.020625 7.700625 -1.04125 6.40125 -1.0625 5.0625 C-1.08399454 3.70834367 -1.07148199 2.35243917 -1 1 C-0.67 0.67 -0.34 0.34 0 0 Z " fill="#FAF0EA" transform="translate(116,47)"/>
<path d="M0 0 C1.32 0.66 2.64 1.32 4 2 C3.96519531 3.03640625 3.93039063 4.0728125 3.89453125 5.140625 C3.86638518 6.51040042 3.83908589 7.88019341 3.8125 9.25 C3.78736328 9.93191406 3.76222656 10.61382812 3.73632812 11.31640625 C3.66777926 16.02342814 4.01566345 17.0208846 7 21 C7.33 16.38 7.66 11.76 8 7 C10 9 10 9 10.1953125 12.6953125 C10.182009 14.17200108 10.15814835 15.64862358 10.125 17.125 C10.11597656 17.87910156 10.10695312 18.63320312 10.09765625 19.41015625 C10.0740687 21.27357254 10.03819719 23.13682593 10 25 C10.66 25 11.32 25 12 25 C12 21.37 12 17.74 12 14 C12.66 14.33 13.32 14.66 14 15 C14.05797565 18.93743833 14.09358789 22.87476719 14.125 26.8125 C14.14175781 27.93205078 14.15851563 29.05160156 14.17578125 30.20507812 C14.18222656 31.27822266 14.18867188 32.35136719 14.1953125 33.45703125 C14.20578613 34.44678955 14.21625977 35.43654785 14.22705078 36.45629883 C14 39 14 39 12 42 C11.505 37.05 11.505 37.05 11 32 C9.88625 33.2684375 9.88625 33.2684375 8.75 34.5625 C7.8425 35.366875 6.935 36.17125 6 37 C3.6875 36.8125 3.6875 36.8125 2 36 C2.66 35.34 3.32 34.68 4 34 C4.2816485 31.43343678 4.2816485 31.43343678 4.1875 28.5625 C4.18105469 27.59441406 4.17460937 26.62632812 4.16796875 25.62890625 C4.105232 22.89054038 4.105232 22.89054038 3 20 C2.34 20 1.68 20 1 20 C1 25.28 1 30.56 1 36 C-0.32 36.66 -1.64 37.32 -3 38 C-3.01458252 37.31897217 -3.02916504 36.63794434 -3.04418945 35.9362793 C-3.11862696 32.85277785 -3.21530083 29.77036433 -3.3125 26.6875 C-3.33505859 25.61564453 -3.35761719 24.54378906 -3.38085938 23.43945312 C-3.41630859 22.41142578 -3.45175781 21.38339844 -3.48828125 20.32421875 C-3.51446533 19.37635498 -3.54064941 18.42849121 -3.56762695 17.4519043 C-4.06200245 14.64839606 -4.80655626 13.74403036 -7 12 C-4.69 12.33 -2.38 12.66 0 13 C0 8.71 0 4.42 0 0 Z " fill="#376F5E" transform="translate(124,113)"/>
<path d="M0 0 C3.80029297 0.75390625 3.80029297 0.75390625 5.59765625 2.96875 C6.32275391 4.22171875 6.32275391 4.22171875 7.0625 5.5 C7.54847656 6.3146875 8.03445312 7.129375 8.53515625 7.96875 C12.56580939 16.30951489 13.40493951 23.31295795 13.1875 32.5625 C13.17396484 33.66658203 13.16042969 34.77066406 13.14648438 35.90820312 C13.11144815 38.60599272 13.06232591 41.30272636 13 44 C12.01 44 11.02 44 10 44 C9.80365967 43.39003174 9.60731934 42.78006348 9.4050293 42.15161133 C8.5055952 39.36978827 7.59664776 36.59116287 6.6875 33.8125 C6.37876953 32.85279297 6.07003906 31.89308594 5.75195312 30.90429688 C3.99733212 25.43098862 3.99733212 25.43098862 1.28125 20.40625 C-0.73144051 16.62631904 -0.3169339 12.89244223 -0.1875 8.6875 C-0.17396484 7.85154297 -0.16042969 7.01558594 -0.14648438 6.15429688 C-0.11131217 4.10258502 -0.05751048 2.05120725 0 0 Z " fill="#599A80" transform="translate(193,132)"/>
<path d="M0 0 C1.32 0.33 2.64 0.66 4 1 C4 14.53 4 28.06 4 42 C5.98 41.505 5.98 41.505 8 41 C10.30143236 44.45214853 10.13833854 45.23479324 9.625 49.1875 C9.51414063 50.08855469 9.40328125 50.98960937 9.2890625 51.91796875 C9.19367188 52.60503906 9.09828125 53.29210937 9 54 C8.67 54 8.34 54 8 54 C8 50.7 8 47.4 8 44 C6.68 44 5.36 44 4 44 C4 47.96 4 51.92 4 56 C2.68 56 1.36 56 0 56 C0 52.7 0 49.4 0 46 C-1.5159375 46.2475 -1.5159375 46.2475 -3.0625 46.5 C-9.66441708 47.34762407 -16.3568696 47.07784918 -23 47 C-23.33 46.34 -23.66 45.68 -24 45 C-16.08 44.34 -8.16 43.68 0 43 C0 28.81 0 14.62 0 0 Z " fill="#54957B" transform="translate(100,115)"/>
<path d="M0 0 C0.61514563 10.71378641 0.61514563 10.71378641 -1.375 14.875 C-9.98588888 21.84571957 -19.87348574 27.19079896 -31 28 C-31 24.04 -31 20.08 -31 16 C-30.01 16 -29.02 16 -28 16 C-28 18.97 -28 21.94 -28 25 C-26.68 25 -25.36 25 -24 25 C-24.33 21.04 -24.66 17.08 -25 13 C-23.02 12.67 -21.04 12.34 -19 12 C-19 15.3 -19 18.6 -19 22 C-17.68 21.67 -16.36 21.34 -15 21 C-15.33 17.37 -15.66 13.74 -16 10 C-14.02 9.34 -12.04 8.68 -10 8 C-9.67 10.64 -9.34 13.28 -9 16 C-8.67 15.67 -8.34 15.34 -8 15 C-8.11175648 13.60304396 -8.23948675 12.20735191 -8.375 10.8125 C-8.43768834 7.7938153 -8.36943685 6.46915631 -6.48046875 4.0703125 C-1.6993122 0 -1.6993122 0 0 0 Z " fill="#3C7462" transform="translate(136,144)"/>
<path d="M0 0 C6.49199632 -0.4682161 11.80781752 1.2219484 17.9375 3.25 C19.36352539 3.70052734 19.36352539 3.70052734 20.81835938 4.16015625 C26.50832746 6.00321966 31.72318928 8.18403961 37 11 C37 11.66 37 12.32 37 13 C38.32 13.66 39.64 14.32 41 15 C38.525 14.505 38.525 14.505 36 14 C35.67 17.63 35.34 21.26 35 25 C33.68 24.67 32.36 24.34 31 24 C31 19.71 31 15.42 31 11 C28.36 10.34 25.72 9.68 23 9 C23 12.96 23 16.92 23 21 C21.68 20.67 20.36 20.34 19 20 C19 15.38 19 10.76 19 6 C16.69 5.67 14.38 5.34 12 5 C12 8.63 12 12.26 12 16 C10.68 16 9.36 16 8 16 C7.67 11.71 7.34 7.42 7 3 C4.525 2.01 4.525 2.01 2 1 C2 4.96 2 8.92 2 13 C1.34 13 0.68 13 0 13 C0 8.71 0 4.42 0 0 Z " fill="#4E9281" transform="translate(115,91)"/>
<path d="M0 0 C4.51413788 1.45244656 7.34485828 3.80624163 10.8125 7 C11.78832031 7.886875 12.76414063 8.77375 13.76953125 9.6875 C16 12 16 12 16 14 C15.34 14 14.68 14 14 14 C14 19.28 14 24.56 14 30 C10.67774938 26.67774938 7.85627328 23.64421073 5 20 C4.34 19.34 3.68 18.68 3 18 C2.89755501 14.44560413 3.07064004 10.93480101 3.22265625 7.3828125 C2.9868185 3.79973374 2.44559154 2.54137189 0 0 Z " fill="#579882" transform="translate(179,118)"/>
<path d="M0 0 C1.98 0.495 1.98 0.495 4 1 C4 16.84 4 32.68 4 49 C3.01 49 2.02 49 1 49 C1.02320312 48.30132812 1.04640625 47.60265625 1.0703125 46.8828125 C1.08835937 45.97273438 1.10640625 45.06265625 1.125 44.125 C1.15980469 42.76761719 1.15980469 42.76761719 1.1953125 41.3828125 C1.24324836 38.81193006 1.24324836 38.81193006 -1 37 C-1.10457575 34.19835144 -1.08917671 31.50565087 -0.9765625 28.7109375 C-0.95153656 27.89251373 -0.92651062 27.07408997 -0.90072632 26.23086548 C-0.8184256 23.61182852 -0.72187618 20.99353446 -0.625 18.375 C-0.56677066 16.60159304 -0.50946717 14.82815542 -0.453125 13.0546875 C-0.31283201 8.70269621 -0.15975672 4.35131852 0 0 Z " fill="#C6D6D0" transform="translate(108,120)"/>
<path d="M0 0 C0.99 0.33 1.98 0.66 3 1 C3 14.53 3 28.06 3 42 C1.515 42.495 1.515 42.495 0 43 C0 28.81 0 14.62 0 0 Z " fill="#E7EEEC" transform="translate(100,115)"/>
<path d="M0 0 C4.455 1.98 4.455 1.98 9 4 C9 7.96 9 11.92 9 16 C5.59687262 14.94124926 2.98646769 13.99097846 0 12 C-0.29296875 9.1796875 -0.29296875 9.1796875 -0.1875 5.875 C-0.16042969 4.77929688 -0.13335937 3.68359375 -0.10546875 2.5546875 C-0.07066406 1.71164063 -0.03585938 0.86859375 0 0 Z " fill="#9BBCB0" transform="translate(150,104)"/>
<path d="M0 0 C0.33 0 0.66 0 1 0 C1 2.31 1 4.62 1 7 C3.31 7.33 5.62 7.66 8 8 C8 10.97 8 13.94 8 17 C4.25293882 16.63443306 1.50651634 15.86070558 -1.6875 13.9375 C-4.79200708 11.74755834 -4.79200708 11.74755834 -8 12 C-7.67 11.01 -7.34 10.02 -7 9 C-3.4375 7.8125 -3.4375 7.8125 0 7 C0 4.69 0 2.38 0 0 Z " fill="#E2E2DF" transform="translate(88,91)"/>
<path d="M0 0 C5.75 0.875 5.75 0.875 8 2 C8 6.29 8 10.58 8 15 C5.36 14.01 2.72 13.02 0 12 C0 8.04 0 4.08 0 0 Z " fill="#9ABCAF" transform="translate(138,100)"/>
<path d="M0 0 C2.52479589 2.19547468 3.51205497 3.68421723 4 7 C4.08026745 8.87877624 4.10765872 10.7601615 4.09765625 12.640625 C4.09282227 14.24550781 4.09282227 14.24550781 4.08789062 15.8828125 C4.07951172 16.99398437 4.07113281 18.10515625 4.0625 19.25 C4.05798828 20.37664062 4.05347656 21.50328125 4.04882812 22.6640625 C4.03705397 25.44276217 4.0206084 28.22135409 4 31 C0.01958497 27.01958497 -0.12383175 21.87870884 -0.1953125 16.50390625 C-0.18215261 14.52334254 -0.1584993 12.54282411 -0.125 10.5625 C-0.11597656 9.54478516 -0.10695312 8.52707031 -0.09765625 7.47851562 C-0.07424698 4.98542844 -0.041457 2.49284141 0 0 Z " fill="#368478" transform="translate(200,144)"/>
<path d="M0 0 C0.66 0.33 1.32 0.66 2 1 C2.05797565 4.93743833 2.09358789 8.87476719 2.125 12.8125 C2.14175781 13.93205078 2.15851563 15.05160156 2.17578125 16.20507812 C2.18222656 17.27822266 2.18867188 18.35136719 2.1953125 19.45703125 C2.20578613 20.44678955 2.21625977 21.43654785 2.22705078 22.45629883 C2 25 2 25 0 28 C-0.33 24.7 -0.66 21.4 -1 18 C-1.7425 18.845625 -2.485 19.69125 -3.25 20.5625 C-4.1575 21.366875 -5.065 22.17125 -6 23 C-8.3125 22.8125 -8.3125 22.8125 -10 22 C-8.625 20.5 -8.625 20.5 -7 19 C-6.34 19 -5.68 19 -5 19 C-3.92474806 16.34771188 -2.90543849 13.71631546 -2 11 C-1.34 11 -0.68 11 0 11 C0 7.37 0 3.74 0 0 Z " fill="#5B997D" transform="translate(136,127)"/>
<path d="M0 0 C2.31 0.33 4.62 0.66 7 1 C7 5.29 7 9.58 7 14 C2.545 13.01 2.545 13.01 -2 12 C-1.34 11.67 -0.68 11.34 0 11 C0 7.37 0 3.74 0 0 Z " fill="#9ABBAF" transform="translate(127,96)"/>
<path d="M0 0 C4.97494732 -0.29264396 8.10355529 -0.25593325 12 3 C12.48828125 6.13671875 12.48828125 6.13671875 12.3125 9.6875 C12.26738281 10.86699219 12.22226563 12.04648438 12.17578125 13.26171875 C12.11777344 14.16535156 12.05976562 15.06898437 12 16 C10.68 16 9.36 16 8 16 C7.67 11.71 7.34 7.42 7 3 C4.525 2.01 4.525 2.01 2 1 C2 4.96 2 8.92 2 13 C1.34 13 0.68 13 0 13 C0 8.71 0 4.42 0 0 Z " fill="#448B7F" transform="translate(115,91)"/>
<path d="M0 0 C4 1 4 1 7 3 C7.29296875 6.0390625 7.29296875 6.0390625 7.1875 9.625 C7.16042969 10.81351563 7.13335937 12.00203125 7.10546875 13.2265625 C7.07066406 14.14179687 7.03585938 15.05703125 7 16 C4.36 14.68 1.72 13.36 -1 12 C-0.67 8.04 -0.34 4.08 0 0 Z " fill="#9DBDB0" transform="translate(163,111)"/>
<path d="M0 0 C3.80374784 0.80463897 6.37581712 1.40219105 9.21875 4.125 C11.47559144 7.76762127 11.40882929 10.06381661 11.25 14.3125 C11.21390625 15.56675781 11.1778125 16.82101563 11.140625 18.11328125 C11.07101563 19.54220703 11.07101563 19.54220703 11 21 C10.01 20.67 9.02 20.34 8 20 C7.97421875 19.02417969 7.9484375 18.04835937 7.921875 17.04296875 C7.86515625 15.77066406 7.8084375 14.49835938 7.75 13.1875 C7.70359375 11.92292969 7.6571875 10.65835938 7.609375 9.35546875 C7.30581055 5.52111319 7.30581055 5.52111319 3 3 C2.67 6.63 2.34 10.26 2 14 C1.34 14 0.68 14 0 14 C0 9.38 0 4.76 0 0 Z " fill="#438B7F" transform="translate(172,115)"/>
<path d="M0 0 C0.66 0.33 1.32 0.66 2 1 C2 1.66 2 2.32 2 3 C2.66 3 3.32 3 4 3 C4.97556564 5.92669691 5.0606341 7.44061321 4.87890625 10.44921875 C4.83056641 11.29677734 4.78222656 12.14433594 4.73242188 13.01757812 C4.67634766 13.89865234 4.62027344 14.77972656 4.5625 15.6875 C4.51029297 16.58017578 4.45808594 17.47285156 4.40429688 18.39257812 C4.2747182 20.5954156 4.13975754 22.79778873 4 25 C-1.67507965 16.48738052 -1.04834919 9.81406409 0 0 Z " fill="#4B917D" transform="translate(196,138)"/>
<path d="M0 0 C4.875 2.875 4.875 2.875 6 4 C6.07258946 6.18639453 6.08373783 8.37500389 6.0625 10.5625 C6.05347656 11.76003906 6.04445312 12.95757812 6.03515625 14.19140625 C6.02355469 15.11824219 6.01195312 16.04507813 6 17 C1.77202073 15.32642487 1.77202073 15.32642487 0 13 C-0.55116813 8.62848019 -0.34213687 4.38442064 0 0 Z " fill="#9BBCAF" transform="translate(174,117)"/>
<path d="M0 0 C0.99 0.33 1.98 0.66 3 1 C3 9.25 3 17.5 3 26 C2.01 26 1.02 26 0 26 C0 17.42 0 8.84 0 0 Z " fill="#E9F0EC" transform="translate(117,126)"/>
<path d="M0 0 C0.99 0.33 1.98 0.66 3 1 C2.67 5.62 2.34 10.24 2 15 C2.99 15.33 3.98 15.66 5 16 C4.34 16.33 3.68 16.66 3 17 C3 27.89 3 38.78 3 50 C2.67 50 2.34 50 2 50 C2 39.11 2 28.22 2 17 C0.68 16.34 -0.64 15.68 -2 15 C-1.67 14.34 -1.34 13.68 -1 13 C-0.77049681 10.795636 -0.58924067 8.58607827 -0.4375 6.375 C-0.35371094 5.18648438 -0.26992187 3.99796875 -0.18359375 2.7734375 C-0.12300781 1.85820313 -0.06242187 0.94296875 0 0 Z " fill="#44725F" transform="translate(110,104)"/>
<path d="M0 0 C1.875 0.3125 1.875 0.3125 4 1 C6.1519437 4.22791555 6.20086443 5.28400809 6 9 C5.34 8.34 4.68 7.68 4 7 C3.67 11.62 3.34 16.24 3 21 C0 18 0 18 -0.34057617 16.00708008 C-0.32486572 15.26868896 -0.30915527 14.53029785 -0.29296875 13.76953125 C-0.28330078 12.96708984 -0.27363281 12.16464844 -0.26367188 11.33789062 C-0.23853516 10.50451172 -0.21339844 9.67113281 -0.1875 8.8125 C-0.17396484 7.96751953 -0.16042969 7.12253906 -0.14648438 6.25195312 C-0.11115799 4.16769616 -0.05735139 2.08376723 0 0 Z " fill="#428B79" transform="translate(193,132)"/>
<path d="M0 0 C2.48046875 1.01953125 2.48046875 1.01953125 5 3 C5.38060051 5.78599571 5.47962905 7.93372751 5.3125 10.6875 C5.28994141 11.38939453 5.26738281 12.09128906 5.24414062 12.81445312 C5.18531647 14.5438833 5.09563389 16.27221438 5 18 C0.68393782 15.62176166 0.68393782 15.62176166 -1 13 C-1.24090742 8.57801042 -0.70271682 4.36323265 0 0 Z " fill="#92B7AA" transform="translate(183,124)"/>
<path d="M0 0 C0.33 0 0.66 0 1 0 C1.22331199 1.58129029 1.42804644 3.16521089 1.625 4.75 C1.74101563 5.63171875 1.85703125 6.5134375 1.9765625 7.421875 C2 10 2 10 0 14 C-3.96 14 -7.92 14 -12 14 C-10.35 12.35 -8.7 10.7 -7 9 C-7 9.99 -7 10.98 -7 12 C-6.34 12 -5.68 12 -5 12 C-5 11.34 -5 10.68 -5 10 C-4.505 9.566875 -4.01 9.13375 -3.5 8.6875 C-1.72788682 7.03979648 -1.72788682 7.03979648 -1.8125 4.3125 C-1.874375 3.549375 -1.93625 2.78625 -2 2 C-1.34 2 -0.68 2 0 2 C0 1.34 0 0.68 0 0 Z " fill="#FBF4F1" transform="translate(123,52)"/>
<path d="M0 0 C0.33 0 0.66 0 1 0 C1 13.53 1 27.06 1 41 C2.98 40.505 2.98 40.505 5 40 C7.30143236 43.45214853 7.13833854 44.23479324 6.625 48.1875 C6.45871094 49.53908203 6.45871094 49.53908203 6.2890625 50.91796875 C6.19367188 51.60503906 6.09828125 52.29210937 6 53 C5.67 53 5.34 53 5 53 C5 49.7 5 46.4 5 43 C2.69 43 0.38 43 -2 43 C-1.67 42.34 -1.34 41.68 -1 41 C-0.84254174 37.9395806 -0.74133123 34.898581 -0.68359375 31.8359375 C-0.66281265 30.92872955 -0.64203156 30.02152161 -0.62062073 29.08682251 C-0.55512865 26.1829602 -0.49624186 23.27900595 -0.4375 20.375 C-0.39431445 18.40884458 -0.35070015 16.44269853 -0.30664062 14.4765625 C-0.19944761 9.65113638 -0.09817919 4.8256176 0 0 Z " fill="#789F90" transform="translate(103,116)"/>
<path d="M0 0 C2.475 0.99 2.475 0.99 5 2 C5 6.29 5 10.58 5 15 C2.525 14.01 2.525 14.01 0 13 C0 8.71 0 4.42 0 0 Z " fill="#D0D9DA" transform="translate(119,111)"/>
<path d="M0 0 C1 1.33333333 2 2.66666667 3 4 C3.5775 4.61875 4.155 5.2375 4.75 5.875 C6 8 6 8 5.9375 11.125 C5 14 5 14 2.9375 15.375 C2.298125 15.58125 1.65875 15.7875 1 16 C-0.74511597 10.76465209 -1.2857653 6.52479577 -1 1 C-0.67 0.67 -0.34 0.34 0 0 Z " fill="#F27248" transform="translate(116,47)"/>
<path d="M0 0 C3.95941302 1.67513628 7.03109732 3.89300882 10 7 C9.875 10.8125 9.875 10.8125 9 14 C8.34 14 7.68 14 7 14 C5.97388051 12.34928604 4.97691857 10.68029994 4 9 C3.46375 8.525625 2.9275 8.05125 2.375 7.5625 C0.35942537 5.27207428 0.32936135 2.96425214 0 0 Z " fill="#F27147" transform="translate(96,52)"/>
<path d="M0 0 C0.66 0.66 1.32 1.32 2 2 C1.67 2.99 1.34 3.98 1 5 C-4.94 5.495 -4.94 5.495 -11 6 C-11.66 5.01 -12.32 4.02 -13 3 C-8.47351478 0.35035011 -5.24601514 -0.50442453 0 0 Z " fill="#F26436" transform="translate(83,89)"/>
<path d="M0 0 C2 2 2 2 2 5 C-8.15317287 5.63019694 -8.15317287 5.63019694 -11.6875 3 C-12.120625 2.34 -12.55375 1.68 -13 1 C-8.60854301 0.14313034 -4.47525292 -0.25818767 0 0 Z " fill="#F16D42" transform="translate(84,81)"/>
<path d="M0 0 C1.77049689 -0.05410687 3.54146849 -0.09284119 5.3125 -0.125 C6.29863281 -0.14820312 7.28476563 -0.17140625 8.30078125 -0.1953125 C11 0 11 0 14 2 C14.1875 4.625 14.1875 4.625 14 7 C4.82713348 5.82713348 4.82713348 5.82713348 1.375 2.375 C0.92125 1.59125 0.4675 0.8075 0 0 Z " fill="#F26E43" transform="translate(75,73)"/>
<path d="M0 0 C7.96132664 0.49333007 7.96132664 0.49333007 11.5625 2.25 C13 4 13 4 13.25 6.6875 C13.1675 7.450625 13.085 8.21375 13 9 C12.484375 8.731875 11.96875 8.46375 11.4375 8.1875 C8.84162209 6.87726448 8.84162209 6.87726448 5.375 5.625 C1.8024993 3.90490707 1.42762698 3.43478571 0 0 Z " fill="#F26E43" transform="translate(81,65)"/>
<path d="M0 0 C1.984375 1.01953125 1.984375 1.01953125 4 3 C4.29642569 5.71229503 4.38061189 7.99739732 4.25 10.6875 C4.23195312 11.38939453 4.21390625 12.09128906 4.1953125 12.81445312 C4.14826213 14.54355436 4.07651873 16.27195205 4 18 C2.015625 16.453125 2.015625 16.453125 0 14 C-0.390625 10.546875 -0.390625 10.546875 -0.25 6.75 C-0.21390625 5.48671875 -0.1778125 4.2234375 -0.140625 2.921875 C-0.09421875 1.95765625 -0.0478125 0.9934375 0 0 Z " fill="#D1DCDA" transform="translate(127,116)"/>
<path d="M0 0 C1.64703306 0.81006526 3.29259506 1.6231221 4.9375 2.4375 C5.85402344 2.88996094 6.77054687 3.34242187 7.71484375 3.80859375 C10 5 10 5 11 6 C11.04080783 7.99958364 11.04254356 10.00045254 11 12 C9 12 9 12 7.6875 10.75 C7.130625 10.1725 6.57375 9.595 6 9 C5.13375 8.38125 4.2675 7.7625 3.375 7.125 C0.62995253 4.6689049 0.52360923 3.5256355 0 0 Z " fill="#F2693C" transform="translate(88,57)"/>
<path d="M0 0 C7 7 7 7 7.3125 10.5 C7.209375 11.655 7.10625 12.81 7 14 C6.01 14.66 5.02 15.32 4 16 C3.566875 14.576875 3.566875 14.576875 3.125 13.125 C2.23174891 9.94788422 2.23174891 9.94788422 0 8 C-0.26991906 5.31160615 -0.08737357 2.70858064 0 0 Z " fill="#F26C40" transform="translate(106,48)"/>
<path d="M0 0 C2.67901932 2.31881505 3.66204403 4.31814468 4.6875 7.6875 C4.93886719 8.49574219 5.19023437 9.30398437 5.44921875 10.13671875 C5.63097656 10.75160156 5.81273437 11.36648437 6 12 C5.67 12 5.34 12 5 12 C4.67 15.3 4.34 18.6 4 22 C3.34 22 2.68 22 2 22 C1.93941406 20.91460937 1.87882813 19.82921875 1.81640625 18.7109375 C1.73193936 17.26561514 1.64729449 15.82030318 1.5625 14.375 C1.52318359 13.66214844 1.48386719 12.94929687 1.44335938 12.21484375 C1.19690319 8.08196318 0.76529947 4.07730976 0 0 Z " fill="#84B19E" transform="translate(132,116)"/>
<path d="M0 0 C1.98 0.99 1.98 0.99 4 2 C4 5.96 4 9.92 4 14 C2.68 13.34 1.36 12.68 0 12 C0 8.04 0 4.08 0 0 Z " fill="#CDD8D3" transform="translate(113,107)"/>
<path d="M0 0 C1.32 0.33 2.64 0.66 4 1 C4 5.29 4 9.58 4 14 C2.68 13.34 1.36 12.68 0 12 C0 8.04 0 4.08 0 0 Z " fill="#D5DDDB" transform="translate(106,103)"/>
<path d="M0 0 C1.32 0.33 2.64 0.66 4 1 C4 5.29 4 9.58 4 14 C2.68 13.34 1.36 12.68 0 12 C0 8.04 0 4.08 0 0 Z " fill="#CFD8D2" transform="translate(99,99)"/>
<path d="M0 0 C2.015625 1.546875 2.015625 1.546875 4 4 C4.171875 7.453125 4.171875 7.453125 3.75 11.25 C3.62109375 12.51328125 3.4921875 13.7765625 3.359375 15.078125 C3.24078125 16.04234375 3.1221875 17.0065625 3 18 C2.01 17.34 1.02 16.68 0 16 C-0.22107787 13.2114711 -0.28107535 10.65346819 -0.1875 7.875 C-0.17396484 7.12089844 -0.16042969 6.36679688 -0.14648438 5.58984375 C-0.11109985 3.72625873 -0.05729167 1.86304022 0 0 Z " fill="#418B7D" transform="translate(188,127)"/>
<path d="M0 0 C0.66 0.33 1.32 0.66 2 1 C1.67 1.33 1.34 1.66 1 2 C0.76572222 4.01594582 0.58663876 6.038474 0.4375 8.0625 C0.35371094 9.16722656 0.26992187 10.27195313 0.18359375 11.41015625 C0.12300781 12.26480469 0.06242187 13.11945313 0 14 C-1.65 14.66 -3.3 15.32 -5 16 C-5 15.01 -5 14.02 -5 13 C-4.34 13 -3.68 13 -3 13 C-3.33 9.37 -3.66 5.74 -4 2 C-2.68 1.34 -1.36 0.68 0 0 Z " fill="#296D63" transform="translate(124,152)"/>
<path d="M0 0 C2.97903734 2.97903734 4 5.80285329 4 10 C1.36 10 -1.28 10 -4 10 C-2.68 6.7 -1.36 3.4 0 0 Z " fill="#EEF2F1" transform="translate(187,197)"/>
<path d="M0 0 C2 1 2 1 2.8515625 3.06640625 C3.10679688 3.89011719 3.36203125 4.71382812 3.625 5.5625 C3.88539062 6.38878906 4.14578125 7.21507812 4.4140625 8.06640625 C4.60742188 8.70449219 4.80078125 9.34257812 5 10 C2.36 10 -0.28 10 -3 10 C-2.39009109 6.44219804 -1.4216319 3.3171411 0 0 Z " fill="#E8EEEC" transform="translate(28,197)"/>
<path d="M0 0 C4 6 4 6 4 10 C1.69 10 -0.62 10 -3 10 C-2.25 3.375 -2.25 3.375 0 0 Z " fill="#EBF0EE" transform="translate(109,197)"/>
<path d="M0 0 C2.83374881 3.20336822 3.5205537 5.78087253 4 10 C1.69 10 -0.62 10 -3 10 C-2.49287967 6.28111761 -1.88391785 3.26545761 0 0 Z " fill="#F1F5F4" transform="translate(252,197)"/>
<path d="M0 0 C2.475 0.99 2.475 0.99 5 2 C4.67 6.29 4.34 10.58 4 15 C3.01 14.67 2.02 14.34 1 14 C0.67 9.38 0.34 4.76 0 0 Z " fill="#468D7A" transform="translate(158,107)"/>
<path d="M0 0 C2.17917221 3.26875831 2.84079772 5.09954411 3 9 C1.0625 11.375 1.0625 11.375 -1 13 C-2.17881287 9.31620978 -2.21358801 5.84458427 -2 2 C-1.34 1.34 -0.68 0.68 0 0 Z " fill="#EF6D42" transform="translate(126,48)"/>
<path d="M0 0 C1.485 0.99 1.485 0.99 3 2 C3.29296875 4.6015625 3.29296875 4.6015625 3.1875 7.625 C3.16042969 8.62789062 3.13335937 9.63078125 3.10546875 10.6640625 C3.07066406 11.43492187 3.03585938 12.20578125 3 13 C2.01 13.33 1.02 13.66 0 14 C0 9.38 0 4.76 0 0 Z " fill="#EAF0EE" transform="translate(126,134)"/>
<path d="M0 0 C0.66 0.33 1.32 0.66 2 1 C2 7.27 2 13.54 2 20 C-1.45015205 15.39979727 -1.22331682 13.11765168 -0.6875 7.75 C-0.62626953 7.00492188 -0.56503906 6.25984375 -0.50195312 5.4921875 C-0.3492857 3.66017845 -0.17660246 1.82985684 0 0 Z " fill="#83B1A0" transform="translate(196,138)"/>
<path d="M0 0 C2 2 2 2 2.1953125 5.4765625 C2.18201493 6.85950968 2.15816232 8.24238654 2.125 9.625 C2.11597656 10.33140625 2.10695312 11.0378125 2.09765625 11.765625 C2.07407603 13.51056098 2.03820461 15.25532295 2 17 C0.48046875 15.94921875 0.48046875 15.94921875 -1 14 C-1.07421875 10.64453125 -1.07421875 10.64453125 -0.6875 6.8125 C-0.56761719 5.54019531 -0.44773438 4.26789063 -0.32421875 2.95703125 C-0.21722656 1.98121094 -0.11023438 1.00539062 0 0 Z " fill="#99BBAE" transform="translate(191,131)"/>
<path d="M0 0 C0.66 0 1.32 0 2 0 C2 4.62 2 9.24 2 14 C0.68 13.67 -0.64 13.34 -2 13 C-1.34 12.67 -0.68 12.34 0 12 C0 8.04 0 4.08 0 0 Z " fill="#6FA18A" transform="translate(96,96)"/>
<path d="M0 0 C0.99 0 1.98 0 3 0 C3 3.3 3 6.6 3 10 C2.01 10 1.02 10 0 10 C0 6.7 0 3.4 0 0 Z " fill="#E8EFED" transform="translate(100,161)"/>
<path d="M0 0 C0.99 0.33 1.98 0.66 3 1 C2.67 5.29 2.34 9.58 2 14 C1.01 13.67 0.02 13.34 -1 13 C-0.67 8.71 -0.34 4.42 0 0 Z " fill="#42897B" transform="translate(110,104)"/>
<path d="M0 0 C0.99 0 1.98 0 3 0 C3 2.97 3 5.94 3 9 C2.01 9.33 1.02 9.66 0 10 C0 6.7 0 3.4 0 0 Z " fill="#E4EDE9" transform="translate(117,156)"/>
<path d="M0 0 C0.66 0.33 1.32 0.66 2 1 C2 5.62 2 10.24 2 15 C-1 12 -1 12 -1.07421875 9.08203125 C-0.94660156 8.00308594 -0.81898437 6.92414063 -0.6875 5.8125 C-0.56761719 4.72582031 -0.44773437 3.63914062 -0.32421875 2.51953125 C-0.21722656 1.68808594 -0.11023438 0.85664062 0 0 Z " fill="#71A58E" transform="translate(124,114)"/>
<path d="M0 0 C1.32 0.33 2.64 0.66 4 1 C4.33 3.31 4.66 5.62 5 8 C4.34 8 3.68 8 3 8 C2.67 7.34 2.34 6.68 2 6 C0.02 6.99 0.02 6.99 -2 8 C-1.34 5.36 -0.68 2.72 0 0 Z " fill="#F8E4DA" transform="translate(113,56)"/>
<path d="M0 0 C0.33 0 0.66 0 1 0 C1.05402274 2.10388569 1.09280256 4.20816714 1.125 6.3125 C1.14820313 7.48425781 1.17140625 8.65601563 1.1953125 9.86328125 C1 13 1 13 -1 16 C-1.22281874 14.08496326 -1.42771076 12.16783494 -1.625 10.25 C-1.74101562 9.18265625 -1.85703125 8.1153125 -1.9765625 7.015625 C-2.00029475 3.96207601 -1.61420985 2.53837579 0 0 Z " fill="#448D7B" transform="translate(137,139)"/>
<path d="M0 0 C0.99 0.33 1.98 0.66 3 1 C2.67 5.29 2.34 9.58 2 14 C1.34 13.67 0.68 13.34 0 13 C0 8.71 0 4.42 0 0 Z " fill="#418C7C" transform="translate(103,100)"/>
<path d="M0 0 C2.64 0.33 5.28 0.66 8 1 C8 4.96 8 8.92 8 13 C7.67 13 7.34 13 7 13 C7 9.7 7 6.4 7 3 C5.35 3 3.7 3 2 3 C1.34 2.01 0.68 1.02 0 0 Z " fill="#5D9284" transform="translate(96,158)"/>
<path d="M0 0 C4.19469571 0.59924224 8.00999834 1.57499941 12 3 C11.01 3.33 10.02 3.66 9 4 C8.67 4.66 8.34 5.32 8 6 C6.66402348 5.19185349 5.331275 4.37836819 4 3.5625 C3.2575 3.11003906 2.515 2.65757813 1.75 2.19140625 C1.1725 1.79824219 0.595 1.40507813 0 1 C0 0.67 0 0.34 0 0 Z " fill="#D0DAD7" transform="translate(117,105)"/>
<path d="M0 0 C0.66 0 1.32 0 2 0 C2.1875 3.375 2.1875 3.375 2 7 C1.01 7.66 0.02 8.32 -1 9 C-1.09765625 2.84765625 -1.09765625 2.84765625 -1 1 C-0.67 0.67 -0.34 0.34 0 0 Z " fill="#EBF1EF" transform="translate(127,152)"/>
<path d="M0 0 C0.33 0 0.66 0 1 0 C1 2.97 1 5.94 1 9 C2.65 9.33 4.3 9.66 6 10 C2.25 12 2.25 12 0 12 C0 8.04 0 4.08 0 0 Z " fill="#40725C" transform="translate(107,160)"/>
<path d="M0 0 C1.1725131 0.95117134 2.33787015 1.91117009 3.5 2.875 C4.47453125 3.67550781 4.47453125 3.67550781 5.46875 4.4921875 C5.9740625 4.98976562 6.479375 5.48734375 7 6 C7 6.66 7 7.32 7 8 C6.01 8.33 5.02 8.66 4 9 C2.08186911 5.99770818 0.76403415 3.47153381 0 0 Z " fill="#619D84" transform="translate(188,124)"/>
<path d="M0 0 C0.66 0.33 1.32 0.66 2 1 C0.515 2.485 0.515 2.485 -1 4 C-0.01 4.66 0.98 5.32 2 6 C-0.875 6.1875 -0.875 6.1875 -4 6 C-4.66 5.01 -5.32 4.02 -6 3 C-4.03533587 1.93224776 -2.03144641 0.93446535 0 0 Z " fill="#F2825E" transform="translate(76,89)"/>
<path d="M0 0 C0.33 0.99 0.66 1.98 1 3 C-2.11421408 4.8454602 -4.38321316 5.46369062 -8 5 C-8.99 4.01 -9.98 3.02 -11 2 C-7.37 2 -3.74 2 0 2 C0 1.34 0 0.68 0 0 Z " fill="#F7DED3" transform="translate(86,84)"/>
<path d="M0 0 C2.64 0.99 5.28 1.98 8 3 C5 5 5 5 2.3125 4.625 C1.549375 4.41875 0.78625 4.2125 0 4 C0 2.68 0 1.36 0 0 Z " fill="#F7E0D6" transform="translate(83,69)"/>
<path d="M0 0 C0 3 0 3 -1.25 4.75 C-3 6 -3 6 -5.1875 5.6875 C-5.785625 5.460625 -6.38375 5.23375 -7 5 C-4.84365964 2.84365964 -2.62901288 1.52206009 0 0 Z " fill="#609E84" transform="translate(133,144)"/>
<path d="M0 0 C2.64 0 5.28 0 8 0 C7.01 0.33 6.02 0.66 5 1 C5 1.66 5 2.32 5 3 C3.35 3 1.7 3 0 3 C0 2.01 0 1.02 0 0 Z " fill="#F9DFD4" transform="translate(79,78)"/>
</svg>
