<?xml version="1.0" encoding="UTF-8"?>
<svg version="1.1" xmlns="http://www.w3.org/2000/svg" width="262" height="254">
<path d="M0 0 C86.46 0 172.92 0 262 0 C262 83.82 262 167.64 262 254 C175.54 254 89.08 254 0 254 C0 170.18 0 86.36 0 0 Z " fill="#FEFDFD" transform="translate(0,0)"/>
<path d="M0 0 C1.299375 0.00451172 2.59875 0.00902344 3.9375 0.01367188 C7.12504825 0.0253908 10.31249955 0.04179781 13.5 0.0625 C12.20079296 4.40108114 10.52832248 7.97696177 8.1484375 11.82421875 C7.47031006 12.92902588 6.79218262 14.03383301 6.09350586 15.17211914 C5.73255829 15.75414093 5.37161072 16.33616272 4.99972534 16.93582153 C3.05874789 20.0666121 1.13849659 23.21010921 -0.78515625 26.3515625 C-1.18038986 26.99575638 -1.57562347 27.63995026 -1.98283386 28.30366516 C-5.90685327 34.70642982 -9.7435947 41.15894758 -13.5625 47.625 C-14.21968018 48.73681641 -14.87686035 49.84863281 -15.55395508 50.99414062 C-16.87952446 53.2376867 -18.20464054 55.48150065 -19.52929688 57.72558594 C-22.7843713 63.23727538 -26.04873173 68.74345585 -29.3125 74.25 C-29.95687012 75.33788818 -30.60124023 76.42577637 -31.26513672 77.54663086 C-35.02187768 83.88779972 -38.78537666 90.22488847 -42.5546875 96.55859375 C-43.84458131 98.72714237 -45.13438376 100.8957453 -46.42416382 103.06436157 C-47.25508225 104.46078707 -48.08646961 105.85693367 -48.91836548 107.2527771 C-53.21691582 114.46541728 -57.49698957 121.67980684 -61.5 129.0625 C-90.04735598 122.76358947 -90.04735598 122.76358947 -101.515625 118.95703125 C-105.46548066 117.77310855 -109.46763431 116.9156719 -113.5 116.0625 C-114.03776291 96.66320108 -114.03776291 96.66320108 -111.26953125 89.28125 C-110.42831863 86.85582477 -110.13060529 84.60734235 -109.8125 82.0625 C-105.52106079 57.05866 -85.46061036 33.60899743 -65.37231445 19.28857422 C-45.37744517 5.52759886 -24.10360224 -0.15922095 0 0 Z " fill="#ECCA72" transform="translate(202.5,102.9375)"/>
<path d="M0 0 C0.64324219 0.144375 1.28648438 0.28875 1.94921875 0.4375 C10.47473133 2.18881785 19.48577806 3.29636691 28 1 C35.40163468 0.13671183 41.74774642 1.67947565 47.67578125 6.30859375 C49.0625 7.625 49.0625 7.625 51 10 C51 10.66 51 11.32 51 12 C51.66 12 52.32 12 53 12 C54.2039337 15.75399798 54.09877617 19.33217412 54.0625 23.25 C54.05347656 24.51328125 54.04445312 25.7765625 54.03515625 27.078125 C54.02355469 28.04234375 54.01195312 29.0065625 54 30 C50.28490737 28.76163579 48.71117136 26.77895064 46 24 C42.27063926 21.5137595 39.20056787 21.63611764 34.875 21.5 C19.26666995 20.7447318 12.33005305 16.97274415 1.6875 5.26953125 C0 3 0 3 0 0 Z " fill="#F46436" transform="translate(38,127)"/>
<path d="M0 0 C3.40312738 1.05875074 6.01353231 2.00902154 9 4 C11.34738735 4.46799009 11.34738735 4.46799009 13.97265625 4.67578125 C14.95556641 4.78212891 15.93847656 4.88847656 16.95117188 4.99804688 C18.99717015 5.20483013 21.0440607 5.4029985 23.09179688 5.59179688 C31.36260746 6.51077583 38.84995277 8.859104 45.125 14.5625 C47 17 47 17 47 21 C47.66 21 48.32 21 49 21 C49.55353075 33.66970387 49.55353075 33.66970387 46 39 C45.34 39 44.68 39 44 39 C43.443125 37.906875 42.88625 36.81375 42.3125 35.6875 C40.39740168 32.28288077 38.48006153 30.83669914 35 29 C35 28.34 35 27.68 35 27 C34.38253906 27.04640625 33.76507813 27.0928125 33.12890625 27.140625 C23.64077397 27.54498985 17.87957137 24.86786808 10.75 18.6875 C4.79532982 13.02917421 0.51723705 8.44820523 0 0 Z " fill="#F46335" transform="translate(60,96)"/>
<path d="M0 0 C0.66 0 1.32 0 2 0 C2.27263672 0.99580078 2.27263672 0.99580078 2.55078125 2.01171875 C2.92783203 3.33623047 2.92783203 3.33623047 3.3125 4.6875 C3.67794922 5.99267578 3.67794922 5.99267578 4.05078125 7.32421875 C5.80204487 12.26090838 8.82601228 16.20644256 11.9375 20.375 C13.29266881 22.24927583 14.64692697 24.12421063 16 26 C16.69802734 26.91458984 16.69802734 26.91458984 17.41015625 27.84765625 C21.00877933 33.09726053 20.80310938 38.92286301 20 45 C18.27223706 50.54110954 13.8389968 54.93492778 9 58 C8.01 58 7.02 58 6 58 C6 58.66 6 59.32 6 60 C4.68 60 3.36 60 2 60 C2.15855469 59.29746094 2.31710938 58.59492187 2.48046875 57.87109375 C3.61430936 51.6051325 4.20346309 45.28243 1.1875 39.5625 C0.465625 38.716875 -0.25625 37.87125 -1 37 C-6.15906008 29.16587174 -6.12072317 19.1345429 -5 10 C-3.76679895 6.31764443 -2.19793705 3.19485849 0 0 Z " fill="#F46436" transform="translate(193,31)"/>
<path d="M0 0 C0.13535156 1.0415625 0.27070313 2.083125 0.41015625 3.15625 C1.56366308 11.0944318 3.14688898 17.96183602 6.6875 25.1875 C10.11688132 32.38857998 11.78517998 38.98199161 10 47 C6.92747581 52.75090534 1.90278289 56.4702359 -4 59 C-7.9375 59.25 -7.9375 59.25 -11 59 C-10.54938717 56.37142518 -10.05494955 54.11959608 -8.9375 51.6875 C-7.42063025 47.33914006 -7.04436493 43.18965079 -8.8984375 38.94140625 C-9.44371094 37.88759766 -9.44371094 37.88759766 -10 36.8125 C-13.16527534 30.25585823 -13.11101719 23.12663528 -11.234375 16.15625 C-5.10278614 0 -5.10278614 0 0 0 Z " fill="#F46334" transform="translate(233,33)"/>
<path d="M0 0 C3.14817736 1.21491684 5.46226967 2.80191539 8 5 C8.78375 5.556875 9.5675 6.11375 10.375 6.6875 C12.97194418 10.38315133 13.36055835 14.59121809 14 19 C9.25 18.125 9.25 18.125 7 17 C-0.62051979 15.99816442 -7.32799645 18.17299148 -13.83984375 22.11328125 C-19.7982264 24.55912729 -29.44168003 23.9114455 -35.5 21.8125 C-39.37480423 19.80590495 -42.61307096 17.75187985 -46 15 C-46 14.34 -46 13.68 -46 13 C-45.3915625 12.9484375 -44.783125 12.896875 -44.15625 12.84375 C-34.13256527 11.54656727 -24.78812971 6.90898194 -16.44921875 1.27734375 C-11.40136062 -1.35527126 -5.513547 -0.67283963 0 0 Z " fill="#F46233" transform="translate(63,187)"/>
<path d="M0 0 C5.12451991 3.49886706 7.79472204 7.71427575 9.5625 13.625 C9.90397902 16.44789324 9.82665203 18.77215805 9.5625 21.625 C7.34465618 20.55714927 5.33558365 19.46835706 3.3046875 18.06640625 C0.07000025 16.36612193 -1.99602114 16.28483903 -5.625 16.375 C-7.19314453 16.39820313 -7.19314453 16.39820313 -8.79296875 16.421875 C-11.41369886 16.45584881 -11.41369886 16.45584881 -13.4375 17.625 C-26.27041828 18.44986001 -35.54507344 17.21932534 -45.4375 8.625 C-47.1640625 7.0625 -47.1640625 7.0625 -48.4375 5.625 C-48.4375 4.965 -48.4375 4.305 -48.4375 3.625 C-46.96990234 3.56892578 -46.96990234 3.56892578 -45.47265625 3.51171875 C-38.00742586 3.13735616 -31.41629223 2.44529542 -24.4375 -0.375 C-16.28071151 -3.29913172 -7.84106191 -4.14288943 0 0 Z " fill="#F46232" transform="translate(72.4375,159.375)"/>
<path d="M0 0 C3.42713045 2.28475363 3.60187546 3.29001598 5 7 C8.60816147 12.72552568 13.19506072 17.15447713 18.25 21.5625 C22.77011708 25.56881067 26.1917141 28.83087673 27 35 C27.10828125 35.80308594 27.2165625 36.60617188 27.328125 37.43359375 C27.7684395 44.00828979 25.96318553 47.87851956 22 53 C21.319375 53.99 20.63875 54.98 19.9375 56 C19.298125 56.66 18.65875 57.32 18 58 C16.68 58 15.36 58 14 58 C13.97421875 57.20335937 13.9484375 56.40671875 13.921875 55.5859375 C13.51667895 48.01613852 12.52720101 43.89583959 7.35546875 38.18359375 C0.63280643 30.69932263 -3.41526389 25.28202621 -3.5 14.875 C-3.50636475 14.20597656 -3.51272949 13.53695312 -3.51928711 12.84765625 C-3.39230704 7.8715097 -2.14329642 4.38919746 0 0 Z " fill="#F46335" transform="translate(156,36)"/>
<path d="M0 0 C2.69715102 1.29796672 5.18886515 2.73019634 7.6875 4.375 C13.60200886 8.08113402 19.26155421 10.8160575 26.1875 11.9375 C30.9983717 12.8013717 33.56439423 14.40459861 37 18 C37.72896484 18.65355469 37.72896484 18.65355469 38.47265625 19.3203125 C42.27340859 23.36456707 42.51985739 27.76574819 42.625 33.125 C42.64804199 33.81827393 42.67108398 34.51154785 42.69482422 35.22583008 C42.63559017 39.13856838 42.08648086 40.88995957 39.6484375 43.9921875 C37 46 37 46 34 46 C33.79697266 45.11248047 33.79697266 45.11248047 33.58984375 44.20703125 C32.1516544 38.92792904 30.69134702 35.89038315 26.01171875 32.95703125 C23.91994462 31.9619154 21.92631739 31.39498877 19.6875 30.8125 C13.39964739 28.94021342 8.91102801 24.10606434 5 19 C4.21875 16.1796875 4.21875 16.1796875 4 14 C3.34 14 2.68 14 2 14 C0.4087311 9.126739 -0.21192221 5.19209404 0 0 Z " fill="#F46335" transform="translate(88,70)"/>
<path d="M0 0 C0.639375 0.66 1.27875 1.32 1.9375 2 C2.95503139 3.00335964 3.97636949 4.00286346 5 5 C5.62003906 5.61617187 6.24007812 6.23234375 6.87890625 6.8671875 C11.16905433 10.92821165 15.35559392 13.86722907 20.625 16.5625 C26.12263039 19.38212776 32.5300758 22.68704875 34.65234375 28.9140625 C35.9574483 36.74468978 35.10193553 43.14948862 31 50 C28.875 52.5625 28.875 52.5625 27 54 C26.34 54 25.68 54 25 54 C24.83564453 52.86111328 24.83564453 52.86111328 24.66796875 51.69921875 C24.50941406 50.70535156 24.35085937 49.71148437 24.1875 48.6875 C24.03667969 47.70136719 23.88585937 46.71523437 23.73046875 45.69921875 C22.95244504 42.82427551 22.16613446 41.92874986 20 40 C20 39.34 20 38.68 20 38 C19.01 37.7215625 19.01 37.7215625 18 37.4375 C9.15137393 33.19753334 3.64408513 25.66501972 0.1875 16.6875 C-1.4003045 11.54731933 -1.49541782 6.33526881 -1 1 C-0.67 0.67 -0.34 0.34 0 0 Z " fill="#F46031" transform="translate(120,49)"/>
<path d="M0 0 C0.66 0 1.32 0 2 0 C0.46356148 3.68069887 -1.78150945 5.98775204 -4.625 8.75 C-5.85089844 9.94882813 -5.85089844 9.94882813 -7.1015625 11.171875 C-7.72804688 11.77515625 -8.35453125 12.3784375 -9 13 C-9.66 12.67 -10.32 12.34 -11 12 C-9.21479439 9.99388266 -7.42241288 7.9951283 -5.625 6 C-5.11710937 5.42765625 -4.60921875 4.8553125 -4.0859375 4.265625 C-2.76495095 2.80558723 -1.38599201 1.39847843 0 0 Z " fill="#F0D692" transform="translate(126,131)"/>
<path d="M0 0 C-3.28519475 1.09506492 -5.73663415 1.09960608 -9.1875 1.0625 C-10.81751953 1.04896484 -10.81751953 1.04896484 -12.48046875 1.03515625 C-13.31191406 1.02355469 -14.14335937 1.01195312 -15 1 C-14.67 2.65 -14.34 4.3 -14 6 C-15.7074998 4.71937515 -17.37373596 3.38232443 -19 2 C-19 1.34 -19 0.68 -19 0 C-16.58373582 -0.19534474 -14.16734771 -0.38153404 -11.75 -0.5625 C-11.06808594 -0.61857422 -10.38617188 -0.67464844 -9.68359375 -0.73242188 C-6.2579419 -0.98186254 -3.27298823 -1.13879745 0 0 Z " fill="#F68662" transform="translate(43,163)"/>
<path d="M0 0 C1.32 1.32 2.64 2.64 4 4 C3.34 4 2.68 4 2 4 C1.67 7.63 1.34 11.26 1 15 C-1.26166232 11.60750652 -1.24515545 10.34798499 -1.1875 6.375 C-1.18105469 5.39273438 -1.17460938 4.41046875 -1.16796875 3.3984375 C-1 1 -1 1 0 0 Z " fill="#F6845F" transform="translate(120,49)"/>
<path d="M0 0 C-1.65 0.66 -3.3 1.32 -5 2 C-5 2.99 -5 3.98 -5 5 C-7.4375 4.1875 -7.4375 4.1875 -10 3 C-10.33 2.01 -10.66 1.02 -11 0 C-3.57142857 -1.28571429 -3.57142857 -1.28571429 0 0 Z " fill="#F6845F" transform="translate(28,200)"/>
<path d="M0 0 C0 2.31 0 4.62 0 7 C-0.66 6.34 -1.32 5.68 -2 5 C-2.99 5.33 -3.98 5.66 -5 6 C-5 6.99 -5 7.98 -5 9 C-5.66 9 -6.32 9 -7 9 C-5.99432671 5.98298013 -3.90847918 0 0 0 Z " fill="#F57F58" transform="translate(233,33)"/>
<path d="M0 0 C1.98 0.66 3.96 1.32 6 2 C5.01 2.495 5.01 2.495 4 3 C3.34 2.67 2.68 2.34 2 2 C2.33 3.98 2.66 5.96 3 8 C2.34 7.67 1.68 7.34 1 7 C0.59270772 4.67843403 0.25561323 2.3431213 0 0 Z " fill="#F7906F" transform="translate(60,96)"/>
</svg>
