<?xml version="1.0" encoding="UTF-8"?>
<svg version="1.1" xmlns="http://www.w3.org/2000/svg" width="273" height="249">
<path d="M0 0 C90.09 0 180.18 0 273 0 C273 82.17 273 164.34 273 249 C182.91 249 92.82 249 0 249 C0 166.83 0 84.66 0 0 Z " fill="#FEFEFE" transform="translate(0,0)"/>
<path d="M0 0 C8.99968414 0 8.99968414 0 13.14453125 1.3203125 C14.05936279 1.60543701 14.97419434 1.89056152 15.91674805 2.18432617 C16.87234619 2.49474854 17.82794434 2.8051709 18.8125 3.125 C19.81643799 3.44122314 20.82037598 3.75744629 21.85473633 4.08325195 C23.91283894 4.73275981 25.96941317 5.38713096 28.02441406 6.04638672 C30.7808815 6.92977709 33.54135798 7.79851223 36.3046875 8.66015625 C40.19445918 9.87444382 44.07876895 11.10470749 47.95947266 12.34765625 C49.8607278 12.95547556 51.76426395 13.5561471 53.66796875 14.15625 C54.72628906 14.4965625 55.78460938 14.836875 56.875 15.1875 C57.75929688 15.46980469 58.64359375 15.75210938 59.5546875 16.04296875 C62 17 62 17 64.46484375 18.484375 C67.98651783 20.58978262 71.70044327 21.72991932 75.57421875 23.03515625 C78 24 78 24 80 26 C80.721875 26.28875 81.44375 26.5775 82.1875 26.875 C85.65525162 28.26210065 88.77613304 30.13361228 92 32 C93.43705372 32.81589071 94.87457411 33.63095987 96.3125 34.4453125 C111.31111761 42.99385481 125.54555991 52.16818775 139 63 C140.21623047 63.96486328 140.21623047 63.96486328 141.45703125 64.94921875 C149.4079212 71.59120563 155.95905481 80.04396525 160.953125 89.10449219 C161.70148631 90.45950086 162.4738501 91.80136415 163.26171875 93.13378906 C171.7683798 107.73562467 172.32634048 123.27198852 172.13671875 139.76171875 C172.12571939 141.44054532 172.1157432 143.11937893 172.10681152 144.79821777 C172.08298273 148.86565566 172.04537986 152.93274782 172 157 C146.61407345 157.13163859 121.22814095 157.26207603 95.84220123 157.39115143 C84.05039687 157.451134 72.25859462 157.5114839 60.46679688 157.57275391 C50.16791206 157.62626576 39.86902372 157.67903211 29.57013083 157.73096704 C24.13621332 157.75839338 18.70229802 157.78614945 13.26838684 157.81480408 C-13.82136712 157.95737577 -40.90986632 158.02944834 -68 158 C-68 148.1 -68 138.2 -68 128 C-64.101875 127.731875 -60.20375 127.46375 -56.1875 127.1875 C-45.00759434 126.35420207 -34.00202072 125.17038013 -23 123 C-22.33419922 122.86899902 -21.66839844 122.73799805 -20.98242188 122.60302734 C-4.3210037 119.18222475 24.73982511 112.25703518 35.03125 97.64453125 C35.3509375 97.10183594 35.670625 96.55914062 36 96 C36.598125 95.030625 37.19625 94.06125 37.8125 93.0625 C40.93323457 85.01428978 41.73285251 72.19855752 39 64 C38.67 71.26 38.34 78.52 38 86 C33 81 33 81 32.41992188 77.90966797 C32.43603516 76.78189941 32.45214844 75.65413086 32.46875 74.4921875 C32.46230469 73.25855469 32.45585938 72.02492188 32.44921875 70.75390625 C32.47435547 68.83384766 32.47435547 68.83384766 32.5 66.875 C32.5331061 64.33092324 32.54457072 61.78644479 32.53125 59.2421875 C32.54736328 58.1166748 32.56347656 56.99116211 32.58007812 55.83154297 C32.38865234 54.89713379 32.19722656 53.96272461 32 53 C30.35 52.01 28.7 51.02 27 50 C27 57.59 27 65.18 27 73 C23 71 23 71 21 69 C20.80810547 66.57324219 20.80810547 66.57324219 20.8671875 63.546875 C20.86460938 62.45246094 20.86203125 61.35804687 20.859375 60.23046875 C20.86972253 57.92555584 20.9032666 55.62062079 20.9609375 53.31640625 C20.94546875 51.66705078 20.94546875 51.66705078 20.9296875 49.984375 C20.94878174 48.47955566 20.94878174 48.47955566 20.96826172 46.94433594 C19.89259946 42.72669317 19.89259946 42.72669317 12 38 C12 45.26 12 52.52 12 60 C8 59 8 59 7 58 C6.84235595 56.22130274 6.74899323 54.43681524 6.68359375 52.65234375 C6.64169922 51.57275391 6.59980469 50.49316406 6.55664062 49.38085938 C6.51732422 48.24455078 6.47800781 47.10824219 6.4375 45.9375 C6.39431641 44.79732422 6.35113281 43.65714844 6.30664062 42.48242188 C6.20017161 39.65507805 6.09815793 36.82764262 6 34 C4.02 33.01 2.04 32.02 0 31 C0 37.93 0 44.86 0 52 C-4 51 -4 51 -6 50 C-6 42.08 -6 34.16 -6 26 C-9.76429774 24 -9.76429774 24 -13 23 C-13 29.93 -13 36.86 -13 44 C-18 43 -18 43 -19 42 C-19.08726223 40.21928754 -19.10699041 38.4351686 -19.09765625 36.65234375 C-19.09443359 35.57275391 -19.09121094 34.49316406 -19.08789062 33.38085938 C-19.07532227 31.67639648 -19.07532227 31.67639648 -19.0625 29.9375 C-19.05798828 28.79732422 -19.05347656 27.65714844 -19.04882812 26.48242188 C-19.03699747 23.65489649 -19.0205141 20.8274736 -19 18 C-20.98 17.34 -22.96 16.68 -25 16 C-25 23.26 -25 30.52 -25 38 C-26.65 37.34 -28.3 36.68 -30 36 C-30 27.75 -30 19.5 -30 11 C-23.73459985 11 -22.08372845 11.00366995 -17 13.6875 C-15.96875 14.23148438 -14.9375 14.77546875 -13.875 15.3359375 C-11.47046454 16.72769308 -9.23321715 18.16646495 -7 19.8125 C-4.04508005 22.25478731 -4.04508005 22.25478731 0 23 C0 15.41 0 7.82 0 0 Z " fill="#E3E5E5" transform="translate(83,50)"/>
<path d="M0 0 C8.99968414 0 8.99968414 0 13.14453125 1.3203125 C14.05936279 1.60543701 14.97419434 1.89056152 15.91674805 2.18432617 C16.87234619 2.49474854 17.82794434 2.8051709 18.8125 3.125 C19.81643799 3.44122314 20.82037598 3.75744629 21.85473633 4.08325195 C23.91283894 4.73275981 25.96941317 5.38713096 28.02441406 6.04638672 C30.7808815 6.92977709 33.54135798 7.79851223 36.3046875 8.66015625 C40.19445918 9.87444382 44.07876895 11.10470749 47.95947266 12.34765625 C49.8607278 12.95547556 51.76426395 13.5561471 53.66796875 14.15625 C54.72628906 14.4965625 55.78460938 14.836875 56.875 15.1875 C57.75929688 15.46980469 58.64359375 15.75210938 59.5546875 16.04296875 C62 17 62 17 64.46484375 18.484375 C67.98651783 20.58978262 71.70044327 21.72991932 75.57421875 23.03515625 C78 24 78 24 80 26 C80.721875 26.28875 81.44375 26.5775 82.1875 26.875 C85.65525162 28.26210065 88.77613304 30.13361228 92 32 C93.43705372 32.81589071 94.87457411 33.63095987 96.3125 34.4453125 C111.31111761 42.99385481 125.54555991 52.16818775 139 63 C140.21623047 63.96486328 140.21623047 63.96486328 141.45703125 64.94921875 C150.08290276 72.15506938 156.55371326 81.23778792 162 91 C162.4434375 91.67804688 162.886875 92.35609375 163.34375 93.0546875 C171.75563504 106.29772272 171.54861077 122.46152818 171.25 137.5625 C171.22986705 139.36391202 171.21162851 141.16534624 171.1953125 142.96679688 C171.15194015 147.31176282 171.08330539 151.65562385 171 156 C169.02 156 167.04 156 165 156 C163.5669064 152.92908515 162.77409711 150.00037704 162.1875 146.6875 C161.27313315 141.8207087 159.91315826 137.15719334 158.4375 132.4375 C158.21537842 131.72231201 157.99325684 131.00712402 157.7644043 130.27026367 C156.87828101 126.86427902 156.87828101 126.86427902 155 124 C154.83989519 121.26298822 154.74053172 118.5483241 154.68359375 115.80859375 C154.66281265 114.98875504 154.64203156 114.16891632 154.62062073 113.32423401 C154.55503506 110.69541099 154.49619874 108.06648496 154.4375 105.4375 C154.39432333 103.65949439 154.35070933 101.88149935 154.30664062 100.10351562 C154.19934457 95.73578366 154.09810296 91.36794773 154 87 C153.34 87 152.68 87 152 87 C152 96.24 152 105.48 152 115 C151.34 115 150.68 115 150 115 C147.33286281 110.39188036 146.61545713 107.0053801 146.55859375 101.703125 C146.53878197 100.69085846 146.53878197 100.69085846 146.51856995 99.65814209 C146.47796955 97.52205108 146.45607099 95.3863876 146.4375 93.25 C146.41370124 91.09945775 146.38563766 88.9493172 146.34571838 86.79901123 C146.3102928 84.85868507 146.29037564 82.91809424 146.27124023 80.97753906 C146.30959359 77.88289865 146.30959359 77.88289865 144 76 C143.67 84.25 143.34 92.5 143 101 C142.34 101 141.68 101 141 101 C136.32455826 96.2117925 136.63832249 91.63434073 136.63476562 85.16796875 C136.6699247 82.72245974 136.71680293 80.27709116 136.77539062 77.83203125 C136.76862305 76.07439453 136.76862305 76.07439453 136.76171875 74.28125 C136.78194092 73.21970703 136.80216309 72.15816406 136.82299805 71.06445312 C136.00297713 66.86015998 136.00297713 66.86015998 129 62 C129 69.59 129 77.18 129 85 C126 85 126 85 124.33081055 83.36621094 C122.67138877 80.41572187 122.65540394 78.51360944 122.70703125 75.140625 C122.71669922 74.02558594 122.72636719 72.91054687 122.73632812 71.76171875 C122.76146484 70.60285156 122.78660156 69.44398437 122.8125 68.25 C122.82603516 67.07566406 122.83957031 65.90132813 122.85351562 64.69140625 C122.8888522 61.79380702 122.93819021 58.89713573 123 56 C122.39285156 55.71253906 121.78570312 55.42507812 121.16015625 55.12890625 C119 54 119 54 116.4375 51.9375 C114.07973981 49.83615651 114.07973981 49.83615651 111 49 C111 56.26 111 63.52 111 71 C106 69 106 69 105 68 C104.97628951 66.28776418 105.01097845 64.57465297 105.0703125 62.86328125 C105.83906375 51.25012105 105.83906375 51.25012105 101.55859375 41.109375 C98.69234026 39.62953617 96.14200368 38.69344069 93 38 C92.34 37.67 91.68 37.34 91 37 C91 43.93 91 50.86 91 58 C86 57 86 57 85 56 C84.84259395 54.29436222 84.74906608 52.58272756 84.68359375 50.87109375 C84.62075195 49.31938477 84.62075195 49.31938477 84.55664062 47.73632812 C84.51732422 46.64771484 84.47800781 45.55910156 84.4375 44.4375 C84.39431641 43.34501953 84.35113281 42.25253906 84.30664062 41.12695312 C84.20017932 38.41810436 84.09816484 35.70916008 84 33 C82.74804485 32.36720391 81.49527973 31.73601015 80.2421875 31.10546875 C79.54464355 30.75379639 78.84709961 30.40212402 78.12841797 30.03979492 C75.13124522 28.57558768 72.07518461 27.29157754 69 26 C68.34 25.67 67.68 25.34 67 25 C67 32.26 67 39.52 67 47 C65.35 47 63.7 47 62 47 C61 46 61 46 60.88647461 43.68334961 C60.89171143 42.68311768 60.89694824 41.68288574 60.90234375 40.65234375 C60.90556641 39.57275391 60.90878906 38.49316406 60.91210938 37.38085938 C60.92048828 36.24455078 60.92886719 35.10824219 60.9375 33.9375 C60.94201172 32.79732422 60.94652344 31.65714844 60.95117188 30.48242188 C60.96300253 27.65489649 60.9794859 24.8274736 61 22 C60.41992188 21.80664062 59.83984375 21.61328125 59.2421875 21.4140625 C54.828125 19.94270833 50.4140625 18.47135417 46 17 C46 24.26 46 31.52 46 39 C43.69 38.67 41.38 38.34 39 38 C39 30.08 39 22.16 39 14 C37.68 13.67 36.36 13.34 35 13 C31.7 12.01 28.4 11.02 25 10 C25 17.26 25 24.52 25 32 C23.02 31.67 21.04 31.34 19 31 C19 23.08 19 15.16 19 7 C16.36 6.67 13.72 6.34 11 6 C8.5 4.9375 8.5 4.9375 7 4 C5.74619694 18.26066324 5.74619694 18.26066324 10.31640625 31.09375 C13.45726655 33.09210701 16.57301005 34.55208691 20 36 C31.25482028 42.84955934 40.05434365 49.04965266 44 62 C44.5101062 63.50240234 44.5101062 63.50240234 45.03051758 65.03515625 C46.34466088 69.67419819 46.3056281 74.23466277 46.30078125 79.02734375 C46.30506638 79.97509171 46.3093515 80.92283966 46.31376648 81.89930725 C46.31948632 83.89534713 46.32002742 85.89140784 46.31567383 87.88745117 C46.31251334 90.92468132 46.33600453 93.96093684 46.36132812 96.99804688 C46.36360146 98.94531128 46.36430446 100.89257828 46.36328125 102.83984375 C46.372491 103.73904037 46.38170074 104.638237 46.39118958 105.56468201 C46.34898102 111.37687227 45.33974417 115.67051829 43 121 C42.34 121 41.68 121 41 121 C40.505 112.09 40.505 112.09 40 103 C39.030625 104.051875 38.06125 105.10375 37.0625 106.1875 C35.10848429 108.30781492 33.43820009 109.81165042 30.77514648 110.95629883 C28.16783294 112.09439752 26.14674674 113.12346174 24 115 C22.74112808 118.77436843 22.82886749 122.36383452 22.9375 126.3125 C22.93041016 127.33923828 22.92332031 128.36597656 22.91601562 129.42382812 C22.90425654 131.95203067 22.93353771 134.47284295 23 137 C21.35 137.66 19.7 138.32 18 139 C18 132.07 18 125.14 18 118 C16.49308594 118.56589844 14.98617187 119.13179688 13.43359375 119.71484375 C11.43503133 120.4560946 9.43632582 121.19695972 7.4375 121.9375 C5.9515332 122.49727539 5.9515332 122.49727539 4.43554688 123.06835938 C3.46552734 123.42607422 2.49550781 123.78378906 1.49609375 124.15234375 C0.61107178 124.48226318 -0.2739502 124.81218262 -1.18579102 125.15209961 C-4 126 -4 126 -11 127 C-11 134.59 -11 142.18 -11 150 C-12.65 150.33 -14.3 150.66 -16 151 C-16 143.74 -16 136.48 -16 129 C-18.578125 129.474375 -21.15625 129.94875 -23.8125 130.4375 C-37.00315427 132.77574694 -49.61038525 133.09496181 -63 133 C-63 140.92 -63 148.84 -63 157 C-64.65 157 -66.3 157 -68 157 C-68 147.43 -68 137.86 -68 128 C-64.101875 127.731875 -60.20375 127.46375 -56.1875 127.1875 C-45.00759434 126.35420207 -34.00202072 125.17038013 -23 123 C-22.33419922 122.86899902 -21.66839844 122.73799805 -20.98242188 122.60302734 C-4.3210037 119.18222475 24.73982511 112.25703518 35.03125 97.64453125 C35.3509375 97.10183594 35.670625 96.55914062 36 96 C36.598125 95.030625 37.19625 94.06125 37.8125 93.0625 C40.93323457 85.01428978 41.73285251 72.19855752 39 64 C38.67 71.26 38.34 78.52 38 86 C33 81 33 81 32.41992188 77.90966797 C32.43603516 76.78189941 32.45214844 75.65413086 32.46875 74.4921875 C32.46230469 73.25855469 32.45585938 72.02492188 32.44921875 70.75390625 C32.47435547 68.83384766 32.47435547 68.83384766 32.5 66.875 C32.5331061 64.33092324 32.54457072 61.78644479 32.53125 59.2421875 C32.54736328 58.1166748 32.56347656 56.99116211 32.58007812 55.83154297 C32.38865234 54.89713379 32.19722656 53.96272461 32 53 C30.35 52.01 28.7 51.02 27 50 C27 57.59 27 65.18 27 73 C23 71 23 71 21 69 C20.80810547 66.57324219 20.80810547 66.57324219 20.8671875 63.546875 C20.86460938 62.45246094 20.86203125 61.35804687 20.859375 60.23046875 C20.86972253 57.92555584 20.9032666 55.62062079 20.9609375 53.31640625 C20.94546875 51.66705078 20.94546875 51.66705078 20.9296875 49.984375 C20.94878174 48.47955566 20.94878174 48.47955566 20.96826172 46.94433594 C19.89259946 42.72669317 19.89259946 42.72669317 12 38 C12 45.26 12 52.52 12 60 C8 59 8 59 7 58 C6.84235595 56.22130274 6.74899323 54.43681524 6.68359375 52.65234375 C6.64169922 51.57275391 6.59980469 50.49316406 6.55664062 49.38085938 C6.51732422 48.24455078 6.47800781 47.10824219 6.4375 45.9375 C6.39431641 44.79732422 6.35113281 43.65714844 6.30664062 42.48242188 C6.20017161 39.65507805 6.09815793 36.82764262 6 34 C4.02 33.01 2.04 32.02 0 31 C0 37.93 0 44.86 0 52 C-4 51 -4 51 -6 50 C-6 42.08 -6 34.16 -6 26 C-9.76429774 24 -9.76429774 24 -13 23 C-13 29.93 -13 36.86 -13 44 C-18 43 -18 43 -19 42 C-19.08726223 40.21928754 -19.10699041 38.4351686 -19.09765625 36.65234375 C-19.09443359 35.57275391 -19.09121094 34.49316406 -19.08789062 33.38085938 C-19.07532227 31.67639648 -19.07532227 31.67639648 -19.0625 29.9375 C-19.05798828 28.79732422 -19.05347656 27.65714844 -19.04882812 26.48242188 C-19.03699747 23.65489649 -19.0205141 20.8274736 -19 18 C-20.98 17.34 -22.96 16.68 -25 16 C-25 23.26 -25 30.52 -25 38 C-26.65 37.34 -28.3 36.68 -30 36 C-30 27.75 -30 19.5 -30 11 C-23.73459985 11 -22.08372845 11.00366995 -17 13.6875 C-15.96875 14.23148438 -14.9375 14.77546875 -13.875 15.3359375 C-11.47046454 16.72769308 -9.23321715 18.16646495 -7 19.8125 C-4.04508005 22.25478731 -4.04508005 22.25478731 0 23 C0 15.41 0 7.82 0 0 Z " fill="#619F89" transform="translate(83,50)"/>
<path d="M0 0 C0 7.26 0 14.52 0 22 C-3.403125 22.474375 -6.80625 22.94875 -10.3125 23.4375 C-11.36091064 23.58501709 -12.40932129 23.73253418 -13.48950195 23.88452148 C-23.74352635 25.29758654 -33.59769859 26 -44 26 C-44 18.74 -44 11.48 -44 4 C-41.174375 3.896875 -38.34875 3.79375 -35.4375 3.6875 C-27.90912326 3.35307831 -20.92226229 2.40927983 -13.58984375 0.62109375 C-10 0 -10 0 0 0 Z " fill="#FDFEFE" transform="translate(66,180)"/>
<path d="M0 0 C6.32886515 6.30314328 10.86831268 12.27647182 14.75 20.375 C15.04374512 20.97489746 15.33749023 21.57479492 15.64013672 22.19287109 C19.44699567 30.44730383 20.30520312 38.94746819 20.1953125 47.9453125 C20.1924826 48.84120087 20.18965271 49.73708923 20.18673706 50.66012573 C20.1756684 53.48189464 20.1505901 56.30332933 20.125 59.125 C20.11495294 61.05468287 20.10583014 62.98437079 20.09765625 64.9140625 C20.07577294 69.609501 20.04133752 74.30469412 20 79 C19.34 79 18.68 79 18 79 C16.5669064 75.92908515 15.77409711 73.00037704 15.1875 69.6875 C14.27313315 64.8207087 12.91315826 60.15719334 11.4375 55.4375 C11.21537842 54.72231201 10.99325684 54.00712402 10.7644043 53.27026367 C9.87828101 49.86427902 9.87828101 49.86427902 8 47 C7.83989519 44.26298822 7.74053172 41.5483241 7.68359375 38.80859375 C7.6524221 37.57883568 7.6524221 37.57883568 7.62062073 36.32423401 C7.55503506 33.69541099 7.49619874 31.06648496 7.4375 28.4375 C7.39432333 26.65949439 7.35070933 24.88149935 7.30664062 23.10351562 C7.19934457 18.73578366 7.09810296 14.36794773 7 10 C6.34 10 5.68 10 5 10 C5 19.24 5 28.48 5 38 C4.34 38 3.68 38 3 38 C0.2271392 33.27302391 -0.35839768 29.86647303 -0.29296875 24.4140625 C-0.28872391 23.71227875 -0.28447906 23.010495 -0.28010559 22.28744507 C-0.26343599 20.0662244 -0.22580872 17.84594212 -0.1875 15.625 C-0.17243788 14.11069027 -0.15875216 12.59636619 -0.14648438 11.08203125 C-0.11357183 7.38772068 -0.06187259 3.69395207 0 0 Z " fill="#247A78" transform="translate(230,127)"/>
<path d="M0 0 C6.741357 3.44558246 12.23643922 8.13020879 18 13 C18.70382813 13.55558594 19.40765625 14.11117187 20.1328125 14.68359375 C28.55693313 21.52179694 34.75870672 30.59650323 40 40 C40.4434375 40.67804688 40.886875 41.35609375 41.34375 42.0546875 C49.75563504 55.29772272 49.54861077 71.46152818 49.25 86.5625 C49.22986705 88.36391202 49.21162851 90.16534624 49.1953125 91.96679688 C49.15194015 96.31176282 49.08330539 100.65562385 49 105 C47.68 105 46.36 105 45 105 C44.98541748 103.82083008 44.97083496 102.64166016 44.95581055 101.42675781 C44.89727655 96.99824624 44.82005344 92.57021426 44.73754883 88.14208984 C44.70455612 86.23559426 44.67644681 84.32900701 44.65356445 82.42236328 C44.48364533 68.63360728 43.78496006 56.25836664 37.25 43.8125 C36.90291992 43.13687012 36.55583984 42.46124023 36.19824219 41.76513672 C32.59926218 34.94213868 29.05439505 28.52719752 22 25 C21.67 33.25 21.34 41.5 21 50 C20.34 50 19.68 50 19 50 C14.32455826 45.2117925 14.63832249 40.63434073 14.63476562 34.16796875 C14.6699247 31.72245974 14.71680293 29.27709116 14.77539062 26.83203125 C14.77087891 25.66027344 14.76636719 24.48851562 14.76171875 23.28125 C14.792052 21.68893555 14.792052 21.68893555 14.82299805 20.06445312 C14.00297713 15.86015998 14.00297713 15.86015998 7 11 C7 18.59 7 26.18 7 34 C6.01 34 5.02 34 4 34 C4.33 33.34 4.66 32.68 5 32 C5.15223361 30.35783194 5.24917469 28.71033826 5.31640625 27.0625 C5.35830078 26.08539063 5.40019531 25.10828125 5.44335938 24.1015625 C5.48267578 23.07804687 5.52199219 22.05453125 5.5625 21 C5.62727539 19.46472656 5.62727539 19.46472656 5.69335938 17.8984375 C5.91523284 12.95082175 5.91523284 12.95082175 6 8 C5.34 7.505 4.68 7.01 4 6.5 C3.34 6.005 2.68 5.51 2 5 C2 4.34 2 3.68 2 3 C1.34 3 0.68 3 0 3 C0 2.01 0 1.02 0 0 Z " fill="#66A291" transform="translate(205,101)"/>
<path d="M0 0 C0 6.93 0 13.86 0 21 C-1.32 21.33 -2.64 21.66 -4 22 C-4 22.66 -4 23.32 -4 24 C-21.76717557 31 -21.76717557 31 -26 31 C-26 23.74 -26 16.48 -26 9 C-9 0 -9 0 0 0 Z " fill="#FBFCFC" transform="translate(100,169)"/>
<path d="M0 0 C0 0.99 0 1.98 0 3 C-1.8984375 4.5703125 -1.8984375 4.5703125 -4.375 6.125 C-5.18710938 6.64320313 -5.99921875 7.16140625 -6.8359375 7.6953125 C-9 9 -9 9 -11 10 C-11.33 17.26 -11.66 24.52 -12 32 C-13.65 32.66 -15.3 33.32 -17 34 C-17 27.07 -17 20.14 -17 13 C-19.26037109 13.84884766 -19.26037109 13.84884766 -21.56640625 14.71484375 C-23.56496867 15.4560946 -25.56367418 16.19695972 -27.5625 16.9375 C-29.0484668 17.49727539 -29.0484668 17.49727539 -30.56445312 18.06835938 C-32.01948242 18.60493164 -32.01948242 18.60493164 -33.50390625 19.15234375 C-34.38892822 19.48226318 -35.2739502 19.81218262 -36.18579102 20.15209961 C-39 21 -39 21 -46 22 C-46 29.59 -46 37.18 -46 45 C-48.475 45.495 -48.475 45.495 -51 46 C-51 38.74 -51 31.48 -51 24 C-53.578125 24.474375 -56.15625 24.94875 -58.8125 25.4375 C-72.00315427 27.77574694 -84.61038525 28.09496181 -98 28 C-98 35.92 -98 43.84 -98 52 C-99.32 52 -100.64 52 -102 52 C-102 43.09 -102 34.18 -102 25 C-96.7715625 25.0928125 -96.7715625 25.0928125 -91.4375 25.1875 C-59.78848072 25.29771509 -26.31569578 18.34293202 0 0 Z " fill="#378680" transform="translate(118,155)"/>
<path d="M0 0 C0.33 0 0.66 0 1 0 C1.23413602 3.5196947 1.37497976 7.03737584 1.5 10.5625 C1.60054687 12.0484668 1.60054687 12.0484668 1.703125 13.56445312 C1.89626015 20.8311632 1.89626015 20.8311632 -0.68017578 24.19116211 C-2.7089291 25.99139297 -4.72491449 27.52643085 -7 29 C-7.66177246 29.43054688 -8.32354492 29.86109375 -9.00537109 30.3046875 C-13.45379849 33 -13.45379849 33 -16 33 C-17.64092084 14.05115105 -17.64092084 14.05115105 -13.984375 9.48046875 C-11.37727773 8.06373775 -8.76988072 7.05263723 -6 6 C-4.02642129 4.40935078 -4.02642129 4.40935078 -2.4375 2.625 C-1.633125 1.75875 -0.82875 0.8925 0 0 Z " fill="#F8FBFB" transform="translate(123,152)"/>
<path d="M0 0 C6.8987458 0.49276756 9.08506654 1.54253327 16 5 C16 12.59 16 20.18 16 28 C11.86750612 26.62250204 8.84261293 25.52346734 5.1875 23.4375 C4.41792969 23.00308594 3.64835938 22.56867188 2.85546875 22.12109375 C1 21 1 21 0 20 C-0.08669432 18.5112814 -0.10703494 17.018555 -0.09765625 15.52734375 C-0.09443359 14.62822266 -0.09121094 13.72910156 -0.08789062 12.80273438 C-0.07951172 11.85720703 -0.07113281 10.91167969 -0.0625 9.9375 C-0.05798828 8.98810547 -0.05347656 8.03871094 -0.04882812 7.06054688 C-0.0370011 4.70696935 -0.02052025 2.35351523 0 0 Z " fill="#FBFCFC" transform="translate(151,77)"/>
<path d="M0 0 C8.54099752 1.95419863 16.91530669 4.15784346 25.1875 7.0625 C25.89318115 7.30758301 26.5988623 7.55266602 27.32592773 7.80517578 C31.17008701 9.18783381 34.55716173 10.81133853 38 13 C39.65369357 13.69822617 41.31727014 14.37498605 43 15 C39.7169902 16.6415049 36.57454967 15.51888624 33 15 C33.10952116 18.79228144 33.24023241 22.5835384 33.375 26.375 C33.4059375 27.45523438 33.436875 28.53546875 33.46875 29.6484375 C33.52675781 31.1953125 33.52675781 31.1953125 33.5859375 32.7734375 C33.6173584 33.72653809 33.6487793 34.67963867 33.68115234 35.66162109 C33.78555796 38.18895176 33.78555796 38.18895176 36 40 C34.68 39.67 33.36 39.34 32 39 C32 31.08 32 23.16 32 15 C29.03 14.01 26.06 13.02 23 12 C21.02 11.34 19.04 10.68 17 10 C17 17.26 17 24.52 17 32 C14.69 31.67 12.38 31.34 10 31 C10 23.08 10 15.16 10 7 C8.68 6.67 7.36 6.34 6 6 C3.6652039 5.33847444 1.33163378 4.67258667 -1 4 C-0.67 2.68 -0.34 1.36 0 0 Z " fill="#6FA890" transform="translate(112,57)"/>
<path d="M0 0 C10.125 0 10.125 0 13.81640625 1.09375 C14.59951172 1.31933594 15.38261719 1.54492188 16.18945312 1.77734375 C16.97255859 2.01582031 17.75566406 2.25429688 18.5625 2.5 C19.38041016 2.73847656 20.19832031 2.97695313 21.04101562 3.22265625 C23.03051089 3.80438001 25.01574189 4.40065559 27 5 C27 5.99 27 6.98 27 8 C27.99 8.33 28.98 8.66 30 9 C27.69 9 25.38 9 23 9 C23 16.26 23 23.52 23 31 C21.02 30.67 19.04 30.34 17 30 C17 22.08 17 14.16 17 6 C14.36 5.67 11.72 5.34 9 5 C7.35 4.01 5.7 3.02 4 2 C4 9.59 4 17.18 4 25 C2.68 25.33 1.36 25.66 0 26 C0 17.42 0 8.84 0 0 Z " fill="#39877A" transform="translate(85,51)"/>
<path d="M0 0 C8 0 8 0 10 1 C10 1.66 10 2.32 10 3 C11.65 3 13.3 3 15 3 C15.33 3.66 15.66 4.32 16 5 C16.99 5.33 17.98 5.66 19 6 C19 6.66 19 7.32 19 8 C21.97 8.495 21.97 8.495 25 9 C25 9.66 25 10.32 25 11 C25.804375 11.12375 26.60875 11.2475 27.4375 11.375 C28.283125 11.58125 29.12875 11.7875 30 12 C30.33 12.66 30.66 13.32 31 14 C30.01 14 29.02 14 28 14 C28 21.26 28 28.52 28 36 C26.35 35.34 24.7 34.68 23 34 C22.505 22.615 22.505 22.615 22 11 C16.99263722 8.49631861 12.1362498 6.15722491 7 4 C6.34 3.67 5.68 3.34 5 3 C5 10.26 5 17.52 5 25 C2.525 24.01 2.525 24.01 0 23 C0 15.41 0 7.82 0 0 Z " fill="#458E80" transform="translate(145,72)"/>
<path d="M0 0 C8.5 0 8.5 0 13 3 C13.875 5.1875 13.875 5.1875 14 7 C14.639375 7.103125 15.27875 7.20625 15.9375 7.3125 C16.618125 7.539375 17.29875 7.76625 18 8 C18.33 8.99 18.66 9.98 19 11 C18.01 11 17.02 11 16 11 C16 18.26 16 25.52 16 33 C14.35 32.34 12.7 31.68 11 31 C11 23.08 11 15.16 11 7 C9.02 6.34 7.04 5.68 5 5 C5 12.26 5 19.52 5 27 C2.525 26.01 2.525 26.01 0 25 C0 16.75 0 8.5 0 0 Z " fill="#438D88" transform="translate(53,61)"/>
<path d="M0 0 C3.82188163 1.86670607 7.408821 4.03983965 11 6.3125 C11.61617187 6.69083984 12.23234375 7.06917969 12.8671875 7.45898438 C16.67542292 9.87386327 19.35411642 12.26268944 22 16 C21.34 16 20.68 16 20 16 C20 23.59 20 31.18 20 39 C16 38 16 38 15 37 C14.93955473 35.21582889 14.93948884 33.4295459 14.96484375 31.64453125 C14.95904297 30.54689453 14.95324219 29.44925781 14.94726562 28.31835938 C14.94080938 26.0005664 14.96118781 23.68252722 15.00976562 21.36523438 C14.99494141 20.26115234 14.98011719 19.15707031 14.96484375 18.01953125 C14.9712085 17.00995361 14.97757324 16.00037598 14.98413086 14.96020508 C13.89014044 10.73039503 13.89014044 10.73039503 6 6 C6 13.26 6 20.52 6 28 C2 27 2 27 1 26 C0.84193469 24.07521187 0.748865 22.1450079 0.68359375 20.21484375 C0.62075195 18.46010742 0.62075195 18.46010742 0.55664062 16.66992188 C0.51732422 15.43822266 0.47800781 14.20652344 0.4375 12.9375 C0.39431641 11.70193359 0.35113281 10.46636719 0.30664062 9.19335938 C0.20015802 6.12902665 0.09814576 3.06460927 0 0 Z " fill="#468E82" transform="translate(89,82)"/>
<path d="M0 0 C4.51477196 0.74478381 7.31665063 2.23748797 11 5 C12.25248502 7.50497004 12.11374406 9.20853274 12.09765625 12.0078125 C12.09443359 12.99394531 12.09121094 13.98007813 12.08789062 14.99609375 C12.07951172 16.02863281 12.07113281 17.06117187 12.0625 18.125 C12.05798828 19.16527344 12.05347656 20.20554687 12.04882812 21.27734375 C12.03701952 23.85161962 12.02055075 26.42578146 12 29 C11.42701172 28.70955811 10.85402344 28.41911621 10.26367188 28.11987305 C8.82186126 27.40658732 7.36013403 26.73135342 5.87695312 26.10864258 C3.5099517 24.94913175 1.82796699 23.91158903 0 22 C-0.99475515 18.19204716 -0.75968235 14.59022606 -0.5 10.6875 C-0.46390625 9.66076172 -0.4278125 8.63402344 -0.390625 7.57617188 C-0.29651459 5.04695455 -0.16524592 2.5254026 0 0 Z " fill="#FCFDFD" transform="translate(175,88)"/>
<path d="M0 0 C3.3125 0.25 3.3125 0.25 9.3125 3.25 C9.3125 10.18 9.3125 17.11 9.3125 24.25 C4.59300734 23.30610147 0.76478522 21.98563661 -3.6875 20.25 C-3.71638514 17.10418577 -3.73425923 13.95840531 -3.75 10.8125 C-3.75837891 9.91466797 -3.76675781 9.01683594 -3.77539062 8.09179688 C-3.77861328 7.23779297 -3.78183594 6.38378906 -3.78515625 5.50390625 C-3.79301147 4.31776733 -3.79301147 4.31776733 -3.80102539 3.10766602 C-3.61767567 0.10743364 -3.01759539 0.28070655 0 0 Z " fill="#FCFDFD" transform="translate(133.6875,68.75)"/>
<path d="M0 0 C8 1 8 1 12 3 C12 9.93 12 16.86 12 24 C3 22 3 22 0 21 C0 14.07 0 7.14 0 0 Z " fill="#FCFDFD" transform="translate(110,61)"/>
<path d="M0 0 C4.22471791 0.91135986 7.56274998 2.30905662 10 6 C10.74405261 10.12562777 10.56532164 14.13762397 10.375 18.3125 C10.34792969 19.43462891 10.32085937 20.55675781 10.29296875 21.71289062 C10.22239001 24.47722459 10.12384488 27.23762415 10 30 C1.98533102 25.61461508 1.98533102 25.61461508 0 23 C-0.34057617 20.5480957 -0.34057617 20.5480957 -0.29296875 17.67578125 C-0.2784668 16.13374023 -0.2784668 16.13374023 -0.26367188 14.56054688 C-0.23853516 13.48869141 -0.21339844 12.41683594 -0.1875 11.3125 C-0.16719727 9.68731445 -0.16719727 9.68731445 -0.14648438 8.02929688 C-0.11110643 5.35236595 -0.06174189 2.67643162 0 0 Z " fill="#FCFDFD" transform="translate(195,100)"/>
<path d="M0 0 C6.60866022 1.71825166 12.06099807 4.45328468 17.98925781 7.85400391 C20.10808139 9.06159957 22.23749446 10.24919302 24.3671875 11.4375 C25.87012298 12.29108357 27.3727238 13.14525665 28.875 14 C29.64585937 14.42539063 30.41671875 14.85078125 31.2109375 15.2890625 C32.30921875 15.91941406 32.30921875 15.91941406 33.4296875 16.5625 C34.09210449 16.93503906 34.75452148 17.30757812 35.43701172 17.69140625 C37.47292757 19.3959531 37.6794459 20.38093056 38 23 C38.01537776 24.88057869 37.96883398 26.76213473 37.87890625 28.640625 C37.83056641 29.71054688 37.78222656 30.78046875 37.73242188 31.8828125 C37.67634766 32.99398437 37.62027344 34.10515625 37.5625 35.25 C37.51029297 36.37664062 37.45808594 37.50328125 37.40429688 38.6640625 C37.27477014 41.44299972 37.13980947 44.22156424 37 47 C35.68 46.34 34.36 45.68 33 45 C33.02731201 44.30438965 33.05462402 43.6087793 33.08276367 42.89208984 C34.13539397 29.70389825 34.13539397 29.70389825 29.5546875 18.10546875 C26.69026137 16.62838217 24.13931689 15.69284772 21 15 C20.34 14.67 19.68 14.34 19 14 C19 20.93 19 27.86 19 35 C18.67 35 18.34 35 18 35 C18 27.74 18 20.48 18 13 C18.66 12.67 19.32 12.34 20 12 C18.35 11.34 16.7 10.68 15 10 C15 9.34 15 8.68 15 8 C12.03 7.505 12.03 7.505 9 7 C9 6.34 9 5.68 9 5 C8.2575 4.87625 7.515 4.7525 6.75 4.625 C4.19858515 4.04513299 2.2732427 3.26291261 0 2 C0 1.34 0 0.68 0 0 Z " fill="#66A293" transform="translate(155,73)"/>
<path d="M0 0 C1.32 0.66 2.64 1.32 4 2 C5.35158203 2.67289062 5.35158203 2.67289062 6.73046875 3.359375 C10.48946528 7.73300952 9.52174476 12.70018525 9.3125 18.25 C9.27866211 19.93996094 9.27866211 19.93996094 9.24414062 21.6640625 C9.18524254 24.44405232 9.10304201 27.22135332 9 30 C8.52296631 29.65428955 8.04593262 29.3085791 7.55444336 28.95239258 C6.92675049 28.50017334 6.29905762 28.0479541 5.65234375 27.58203125 C5.03093506 27.1331958 4.40952637 26.68436035 3.76928711 26.22192383 C1.92107334 24.94549083 0.05634679 23.90479259 -2 23 C-1.34 22.67 -0.68 22.34 0 22 C0 14.74 0 7.48 0 0 Z " fill="#DCE0E0" transform="translate(95,88)"/>
<path d="M0 0 C4.95 0.99 4.95 0.99 10 2 C10 9.26 10 16.52 10 24 C6.7 23.01 3.4 22.02 0 21 C0 14.07 0 7.14 0 0 Z " fill="#FDFEFE" transform="translate(91,55)"/>
<path d="M0 0 C2.86891979 1.28606749 5.1344851 2.42777994 7 5 C7.34057617 7.72729492 7.34057617 7.72729492 7.29296875 10.98046875 C7.28330078 12.14384766 7.27363281 13.30722656 7.26367188 14.50585938 C7.23853516 15.72080078 7.21339844 16.93574219 7.1875 18.1875 C7.17396484 19.41404297 7.16042969 20.64058594 7.14648438 21.90429688 C7.11108741 24.93663664 7.0617076 27.96809996 7 31 C4.12306123 29.36808208 1.97800475 27.66772376 0 25 C-0.87860867 20.68196889 -0.6626418 16.50907997 -0.4375 12.125 C-0.40591797 10.9596875 -0.37433594 9.794375 -0.34179688 8.59375 C-0.25954174 5.72657109 -0.14466052 2.86459614 0 0 Z " fill="#F8FBFB" transform="translate(212,112)"/>
<path d="M0 0 C0.99 0 1.98 0 3 0 C5.10501166 5.17876572 5.26421742 9.62946485 5.1953125 15.1171875 C5.1924826 15.97434357 5.18965271 16.83149963 5.18673706 17.71463013 C5.17559999 20.43489932 5.1505076 23.15483141 5.125 25.875 C5.11496182 27.72655772 5.10583744 29.57812064 5.09765625 31.4296875 C5.07568188 35.9532536 5.041197 40.47656977 5 45 C3.68 45 2.36 45 1 45 C0.67 30.15 0.34 15.3 0 0 Z " fill="#599A7F" transform="translate(249,161)"/>
<path d="M0 0 C4 1 4 1 7 3 C7.34057617 5.33837891 7.34057617 5.33837891 7.29296875 8.2265625 C7.28330078 9.2578125 7.27363281 10.2890625 7.26367188 11.3515625 C7.23853516 12.43179688 7.21339844 13.51203125 7.1875 14.625 C7.17396484 15.71296875 7.16042969 16.8009375 7.14648438 17.921875 C7.11105124 20.61479291 7.05724303 23.30745741 7 26 C3.37 24.68 -0.26 23.36 -4 22 C-3.67 21.34 -3.34 20.68 -3 20 C-2.01 20.33 -1.02 20.66 0 21 C0 14.07 0 7.14 0 0 Z " fill="#E0E4E4" transform="translate(70,73)"/>
<path d="M0 0 C4 1 4 1 7 3 C7.34057617 5.43017578 7.34057617 5.43017578 7.29296875 8.4453125 C7.28330078 9.52167969 7.27363281 10.59804687 7.26367188 11.70703125 C7.23853516 12.83496094 7.21339844 13.96289062 7.1875 15.125 C7.17396484 16.26066406 7.16042969 17.39632812 7.14648438 18.56640625 C7.11104319 21.37807387 7.06163517 24.18880417 7 27 C4.03 25.35 1.06 23.7 -2 22 C-1.34 21.67 -0.68 21.34 0 21 C0 14.07 0 7.14 0 0 Z " fill="#D9DEDD" transform="translate(83,81)"/>
<path d="M0 0 C4 1 4 1 6 3 C6.22705078 5.70556641 6.22705078 5.70556641 6.1953125 9.1015625 C6.18564453 10.91914062 6.18564453 10.91914062 6.17578125 12.7734375 C6.15902344 14.04445313 6.14226562 15.31546875 6.125 16.625 C6.11597656 17.90375 6.10695313 19.1825 6.09765625 20.5 C6.07402303 23.66685167 6.04107629 26.83333424 6 30 C5.236875 29.21625 4.47375 28.4325 3.6875 27.625 C1.09108195 24.92742283 1.09108195 24.92742283 -2 23 C-1.34 23 -0.68 23 0 23 C0 15.41 0 7.82 0 0 Z " fill="#DEE1E1" transform="translate(110,100)"/>
<path d="M0 0 C2.31 0 4.62 0 7 0 C7 0.99 7 1.98 7 3 C7.66 3 8.32 3 9 3 C9 10.92 9 18.84 9 27 C7.02 26.67 5.04 26.34 3 26 C3 17.75 3 9.5 3 1 C2.01 0.67 1.02 0.34 0 0 Z " fill="#5B9B80" transform="translate(120,62)"/>
<path d="M0 0 C2 1.3125 2 1.3125 4 3 C4 3.99 4 4.98 4 6 C4.66 6 5.32 6 6 6 C5.67 15.24 5.34 24.48 5 34 C0 29 0 29 -0.56762695 25.77026367 C-0.54144287 24.58150635 -0.51525879 23.39274902 -0.48828125 22.16796875 C-0.47216797 20.87568359 -0.45605469 19.58339844 -0.43945312 18.25195312 C-0.39768274 16.89711843 -0.35535809 15.54230072 -0.3125 14.1875 C-0.28740069 12.81319134 -0.26459036 11.43883884 -0.24414062 10.06445312 C-0.18526461 6.70852024 -0.1030642 3.3548191 0 0 Z " fill="#639F86" transform="translate(116,102)"/>
<path d="M0 0 C4.7402065 3.40322518 4.7402065 3.40322518 5.82006836 5.88378906 C6.04859222 8.57150257 6.0026865 11.16371623 5.87890625 13.859375 C5.83056641 14.97441406 5.78222656 16.08945313 5.73242188 17.23828125 C5.67634766 18.39714844 5.62027344 19.55601562 5.5625 20.75 C5.51029297 21.92433594 5.45808594 23.09867188 5.40429688 24.30859375 C5.27473776 27.20600664 5.13977553 30.10306493 5 33 C3 33 3 33 1.39331055 31.42089844 C-0.45250695 28.21376223 -0.34149582 25.95368245 -0.29296875 22.265625 C-0.28330078 20.97011719 -0.27363281 19.67460937 -0.26367188 18.33984375 C-0.23860783 16.97655646 -0.21321302 15.61327521 -0.1875 14.25 C-0.17244518 12.87110816 -0.15875817 11.49220065 -0.14648438 10.11328125 C-0.11111909 6.74179085 -0.06175904 3.37109346 0 0 Z " fill="#64A185" transform="translate(220,116)"/>
<path d="M0 0 C4 1 4 1 6 2 C6 9.92 6 17.84 6 26 C3.03 25.01 0.06 24.02 -3 23 C-2.67 22.34 -2.34 21.68 -2 21 C-1.34 21.33 -0.68 21.66 0 22 C0 14.74 0 7.48 0 0 Z " fill="#F7FAF9" transform="translate(58,66)"/>
<path d="M0 0 C2.64 0 5.28 0 8 0 C8 0.33 8 0.66 8 1 C6.02 1 4.04 1 2 1 C2.01571045 1.68626465 2.0314209 2.3725293 2.04760742 3.07958984 C2.10982719 6.17797663 2.14894898 9.27623224 2.1875 12.375 C2.21263672 13.45523438 2.23777344 14.53546875 2.26367188 15.6484375 C2.27333984 16.6796875 2.28300781 17.7109375 2.29296875 18.7734375 C2.3086792 19.72653809 2.32438965 20.67963867 2.34057617 21.66162109 C2.22818604 22.43328613 2.1157959 23.20495117 2 24 C-1.72579089 26.48386059 -3.58711402 26.3804212 -8 26 C-9.65 25.01 -11.3 24.02 -13 23 C-13 29.93 -13 36.86 -13 44 C-13.33 44 -13.66 44 -14 44 C-14 36.74 -14 29.48 -14 22 C-13.34 21.67 -12.68 21.34 -12 21 C-12 20.34 -12 19.68 -12 19 C-13.65 18.67 -15.3 18.34 -17 18 C-16.505 16.515 -16.505 16.515 -16 15 C-11.99260849 16.33579717 -9.04033457 18.31502829 -5.74609375 20.87890625 C-3.75725564 22.28739556 -3.75725564 22.28739556 0 23 C0 15.41 0 7.82 0 0 Z " fill="#7AAEA0" transform="translate(83,50)"/>
<path d="M0 0 C3.47451059 3.50156128 4.45531702 5.96298303 4.45318604 10.90278625 C4.43254089 11.6425621 4.41189575 12.38233795 4.390625 13.14453125 C4.38496521 13.91431808 4.37930542 14.68410492 4.37347412 15.47721863 C4.35117872 17.92295943 4.30099875 20.3672061 4.25 22.8125 C4.229926 24.47589022 4.2116768 26.13930353 4.1953125 27.80273438 C4.15133684 31.86906058 4.08235979 35.93427744 4 40 C3.71125 39.401875 3.4225 38.80375 3.125 38.1875 C1.95257974 35.80672208 1.95257974 35.80672208 0 33 C-0.1712914 30.45770403 -0.23242934 28.02810519 -0.1953125 25.48828125 C-0.1924826 24.76005661 -0.18965271 24.03183197 -0.18673706 23.28153992 C-0.17555257 20.95835863 -0.15045166 18.63556453 -0.125 16.3125 C-0.11496794 14.7363337 -0.10584248 13.16016135 -0.09765625 11.58398438 C-0.07561896 7.72250733 -0.04110141 3.86131929 0 0 Z " fill="#5F9E83" transform="translate(238,141)"/>
<path d="M0 0 C2.31124607 3.46686911 3.12569735 5.01708409 3.11352539 9.08251953 C3.11341209 10.34360031 3.11341209 10.34360031 3.11329651 11.63015747 C3.10555458 12.99272171 3.10555458 12.99272171 3.09765625 14.3828125 C3.0962413 15.31221649 3.09482635 16.24162048 3.09336853 17.19918823 C3.08776053 20.17449124 3.07520668 23.14971964 3.0625 26.125 C3.05748603 28.13932183 3.05292295 30.15364484 3.04882812 32.16796875 C3.0377885 37.11200802 3.02051849 42.05599135 3 47 C1.03645581 44.05468371 0.55070294 42.51565155 -0.0625 39.125 C-0.21847656 38.28195313 -0.37445313 37.43890625 -0.53515625 36.5703125 C-0.68855469 35.72210938 -0.84195313 34.87390625 -1 34 C-1.33022413 32.33271451 -1.66264882 30.66585806 -2 29 C-1.34 29 -0.68 29 0 29 C0 19.43 0 9.86 0 0 Z " fill="#619F84" transform="translate(245,157)"/>
<path d="M0 0 C3.03988949 2.36669597 3.93396165 3.5067716 4.45410156 7.39160156 C4.4331543 8.7112793 4.41220703 10.03095703 4.390625 11.390625 C4.38496521 12.09523865 4.37930542 12.79985229 4.37347412 13.52581787 C4.35115078 15.76791428 4.30096754 18.00838988 4.25 20.25 C4.22992952 21.77341435 4.2116797 23.29685386 4.1953125 24.8203125 C4.15130118 28.5473983 4.08230372 32.27354087 4 36 C0.75091911 31.12637866 -0.2450559 29.03912436 -0.1953125 23.14453125 C-0.1924826 22.48289474 -0.18965271 21.82125824 -0.18673706 21.13957214 C-0.17555918 19.03036263 -0.15045981 16.92158075 -0.125 14.8125 C-0.11496707 13.38086552 -0.10584176 11.94922436 -0.09765625 10.51757812 C-0.07562795 7.01158023 -0.04111485 3.50583187 0 0 Z " fill="#5B9B82" transform="translate(230,129)"/>
<path d="M0 0 C0.99 0.495 0.99 0.495 2 1 C4.37123246 1.23029956 6.74741943 1.41119942 9.125 1.5625 C10.40632813 1.64628906 11.68765625 1.73007813 13.0078125 1.81640625 C14.48894531 1.90728516 14.48894531 1.90728516 16 2 C16 2.33 16 2.66 16 3 C12.04 3 8.08 3 4 3 C4 10.92 4 18.84 4 27 C2.68 27 1.36 27 0 27 C0 18.09 0 9.18 0 0 Z " fill="#31827A" transform="translate(16,180)"/>
<path d="M0 0 C3.37923112 1.35169245 6.23376178 2.55442787 9.3125 4.375 C10.00988281 4.77460937 10.70726562 5.17421875 11.42578125 5.5859375 C11.94527344 6.05257812 12.46476563 6.51921875 13 7 C13 8.32 13 9.64 13 11 C13.66 11.33 14.32 11.66 15 12 C9.89701637 12 8.7474983 10.26909426 5 7 C4.01 6.67 3.02 6.34 2 6 C2 13.26 2 20.52 2 28 C1.34 28 0.68 28 0 28 C0 18.76 0 9.52 0 0 Z " fill="#5B9B8C" transform="translate(192,93)"/>
<path d="M0 0 C1.32 0 2.64 0 4 0 C5.06432275 3.19296825 5.03788336 5.20444941 4.87890625 8.54296875 C4.83056641 9.61611328 4.78222656 10.68925781 4.73242188 11.79492188 C4.67634766 12.91447266 4.62027344 14.03402344 4.5625 15.1875 C4.51029297 16.31865234 4.45808594 17.44980469 4.40429688 18.61523438 C4.27456193 21.4104328 4.13959359 24.2052794 4 27 C2.68 26.34 1.36 25.68 0 25 C0 16.75 0 8.5 0 0 Z " fill="#63A087" transform="translate(188,93)"/>
<path d="M0 0 C0.66 0 1.32 0 2 0 C2.93167844 1.62181062 3.86179557 3.24453313 4.78515625 4.87109375 C5.61620062 6.32742553 6.45788591 7.77772263 7.30859375 9.22265625 C11.10889912 15.79707177 13.8835411 21.27748148 12 29 C9.3508509 25.83020888 8.01637608 22.75030921 6.625 18.875 C4.69718098 13.66166014 2.48493837 8.80029146 -0.1796875 3.92578125 C-0.45039063 3.29027344 -0.72109375 2.65476563 -1 2 C-0.67 1.34 -0.34 0.68 0 0 Z " fill="#6AA58A" transform="translate(239,134)"/>
<path d="M0 0 C0.66 0.33 1.32 0.66 2 1 C4.85460571 9.56381713 3.25867401 20.4291388 1 29 C-0.33333333 26.33333333 -1.66666667 23.66666667 -3 21 C-2.34 21.33 -1.68 21.66 -1 22 C-0.67 14.74 -0.34 7.48 0 0 Z " fill="#C7D5D5" transform="translate(121,113)"/>
<path d="M0 0 C1.485 0.99 1.485 0.99 3 2 C3.34057617 4.52197266 3.34057617 4.52197266 3.29296875 7.6640625 C3.28330078 8.78554687 3.27363281 9.90703125 3.26367188 11.0625 C3.23853516 12.238125 3.21339844 13.41375 3.1875 14.625 C3.17396484 15.80835937 3.16042969 16.99171875 3.14648438 18.2109375 C3.11103916 21.14107539 3.06162769 24.07031459 3 27 C2.01 26.34 1.02 25.68 0 25 C-0.34057617 22.47802734 -0.34057617 22.47802734 -0.29296875 19.3359375 C-0.28330078 18.21445313 -0.27363281 17.09296875 -0.26367188 15.9375 C-0.23853516 14.761875 -0.21339844 13.58625 -0.1875 12.375 C-0.17396484 11.19164063 -0.16042969 10.00828125 -0.14648438 8.7890625 C-0.11103916 5.85892461 -0.06162769 2.92968541 0 0 Z " fill="#6BA48A" transform="translate(104,94)"/>
<path d="M0 0 C2.475 0.495 2.475 0.495 5 1 C5 8.92 5 16.84 5 25 C4.01 25 3.02 25 2 25 C2 17.08 2 9.16 2 1 C1.34 0.67 0.68 0.34 0 0 Z " fill="#2A7E7F" transform="translate(124,64)"/>
<path d="M0 0 C1.98 0.99 1.98 0.99 4 2 C3.67 9.59 3.34 17.18 3 25 C2.01 25 1.02 25 0 25 C0 16.75 0 8.5 0 0 Z " fill="#338479" transform="translate(54,62)"/>
<path d="M0 0 C2.62728858 0.61642534 5.25153582 1.24267787 7.875 1.875 C8.62136719 2.04902344 9.36773437 2.22304688 10.13671875 2.40234375 C15.7734375 3.7734375 15.7734375 3.7734375 18 6 C15.69 6 13.38 6 11 6 C11 14.25 11 22.5 11 31 C10.67 31 10.34 31 10 31 C10 23.08 10 15.16 10 7 C8.68 6.67 7.36 6.34 6 6 C3.6652039 5.33847444 1.33163378 4.67258667 -1 4 C-0.67 2.68 -0.34 1.36 0 0 Z " fill="#81B2A1" transform="translate(112,57)"/>
<path d="M0 0 C0.33 7.26 0.66 14.52 1 22 C0.34 22 -0.32 22 -1 22 C-1 15.07 -1 8.14 -1 1 C-7.35998397 3.29498633 -7.35998397 3.29498633 -13.71362305 5.60742188 C-14.51324463 5.89166016 -15.31286621 6.17589844 -16.13671875 6.46875 C-17.35427856 6.90864258 -17.35427856 6.90864258 -18.59643555 7.35742188 C-21.16182665 8.04326336 -23.35661819 8.11519796 -26 8 C-25 6 -25 6 -21.578125 4.78125 C-20.13772015 4.34646113 -18.69486664 3.91972359 -17.25 3.5 C-15.8171527 3.07478452 -14.38484671 2.64774014 -12.953125 2.21875 C-12.26927734 2.01636719 -11.58542969 1.81398437 -10.88085938 1.60546875 C-8.82187649 0.97845122 -8.82187649 0.97845122 -6.234375 -0.21875 C-4 -1 -4 -1 0 0 Z " fill="#368586" transform="translate(102,167)"/>
<path d="M0 0 C0.99 0.33 1.98 0.66 3 1 C2.67 12.22 2.34 23.44 2 35 C1.34 34.67 0.68 34.34 0 34 C0 22.78 0 11.56 0 0 Z " fill="#126F74" transform="translate(242,149)"/>
<path d="M0 0 C4.78846823 3.43787463 4.78846823 3.43787463 5.66772461 5.77441406 C6.07821619 8.52389328 6.00645844 11.08157183 5.87890625 13.859375 C5.83056641 14.97441406 5.78222656 16.08945313 5.73242188 17.23828125 C5.67634766 18.39714844 5.62027344 19.55601562 5.5625 20.75 C5.51029297 21.92433594 5.45808594 23.09867188 5.40429688 24.30859375 C5.27473776 27.20600664 5.13977553 30.10306493 5 33 C4.34 33 3.68 33 3 33 C2.98018066 32.16227051 2.96036133 31.32454102 2.93994141 30.46142578 C2.86189388 27.35634166 2.77520365 24.25165461 2.68261719 21.14697266 C2.62545964 19.14113029 2.57831404 17.13501082 2.53125 15.12890625 C2.47324219 13.24365234 2.47324219 13.24365234 2.4140625 11.3203125 C2.3826416 10.15773926 2.3512207 8.99516602 2.31884766 7.79736328 C2.27842131 4.86343518 2.27842131 4.86343518 0 3 C0 2.01 0 1.02 0 0 Z " fill="#2E8079" transform="translate(220,116)"/>
<path d="M0 0 C2 1.3125 2 1.3125 4 3 C4 3.99 4 4.98 4 6 C4.66 6 5.32 6 6 6 C5.67 15.24 5.34 24.48 5 34 C4.34 33.67 3.68 33.34 3 33 C2.98018066 32.17798096 2.96036133 31.35596191 2.93994141 30.5090332 C2.84455397 26.77653874 2.73492911 23.0445933 2.625 19.3125 C2.5940625 18.01892578 2.563125 16.72535156 2.53125 15.39257812 C2.49257812 14.14541016 2.45390625 12.89824219 2.4140625 11.61328125 C2.3826416 10.46641846 2.3512207 9.31955566 2.31884766 8.13793945 C2.00576348 5.05672128 1.30329197 2.7917886 0 0 Z " fill="#247A7A" transform="translate(116,102)"/>
<path d="M0 0 C0.99 0.33 1.98 0.66 3 1 C2.34 1 1.68 1 1 1 C1 6.28 1 11.56 1 17 C2.65 16.67 4.3 16.34 6 16 C6 19.3 6 22.6 6 26 C3.03 25.01 0.06 24.02 -3 23 C-2.67 22.34 -2.34 21.68 -2 21 C-1.34 21.33 -0.68 21.66 0 22 C0 14.74 0 7.48 0 0 Z " fill="#D0DDDE" transform="translate(58,66)"/>
<path d="M0 0 C1.485 0.99 1.485 0.99 3 2 C3.34057617 4.33837891 3.34057617 4.33837891 3.29296875 7.2265625 C3.28330078 8.2578125 3.27363281 9.2890625 3.26367188 10.3515625 C3.23853516 11.43179688 3.21339844 12.51203125 3.1875 13.625 C3.17396484 14.71296875 3.16042969 15.8009375 3.14648438 16.921875 C3.11104754 19.61507409 3.06164331 22.30729374 3 25 C2.01 24.67 1.02 24.34 0 24 C0 16.08 0 8.16 0 0 Z " fill="#6FA68E" transform="translate(77,76)"/>
<path d="M0 0 C1.485 0.99 1.485 0.99 3 2 C3.34057617 4.24658203 3.34057617 4.24658203 3.29296875 7.0078125 C3.28330078 7.99394531 3.27363281 8.98007813 3.26367188 9.99609375 C3.23853516 11.02863281 3.21339844 12.06117187 3.1875 13.125 C3.17396484 14.16527344 3.16042969 15.20554687 3.14648438 16.27734375 C3.11105228 18.85207627 3.06165221 21.4257833 3 24 C2.01 23.67 1.02 23.34 0 23 C0 15.41 0 7.82 0 0 Z " fill="#76AB93" transform="translate(64,69)"/>
<path d="M0 0 C2.07984914 3.11977371 2.78770149 5.45013819 3.6875 9.0625 C3.95949219 10.12597656 4.23148438 11.18945312 4.51171875 12.28515625 C5 15 5 15 4 17 C3.01 14.69 2.02 12.38 1 10 C0.67 18.58 0.34 27.16 0 36 C-0.99 35.67 -1.98 35.34 -3 35 C-2.67 34.34 -2.34 33.68 -2 33 C-1.85695415 30.78518574 -1.77351604 28.56640928 -1.71875 26.34765625 C-1.70034058 25.69171982 -1.68193115 25.03578339 -1.66296387 24.35997009 C-1.60418811 22.26090492 -1.55139472 20.16175809 -1.5 18.0625 C-1.43227586 15.30321594 -1.35857178 12.54418612 -1.28125 9.78515625 C-1.25095703 8.55676025 -1.22066406 7.32836426 -1.18945312 6.06274414 C-1 3 -1 3 0 0 Z " fill="#418C7D" transform="translate(245,150)"/>
<path d="M0 0 C0.99 0.33 1.98 0.66 3 1 C3 8.26 3 15.52 3 23 C2.01 23 1.02 23 0 23 C0 15.41 0 7.82 0 0 Z " fill="#6AA58A" transform="translate(102,58)"/>
<path d="M0 0 C-1.1875 1.98046875 -1.1875 1.98046875 -3 4 C-5.25 4.42578125 -5.25 4.42578125 -8 4.3125 C-9.04671875 4.27769531 -10.0934375 4.24289063 -11.171875 4.20703125 C-12.43515625 4.13871094 -13.6984375 4.07039062 -15 4 C-16.67185011 3.92005075 -18.34372694 3.84065901 -20.015625 3.76171875 C-24.67871527 3.53334912 -29.33932159 3.27301045 -34 3 C-34 2.67 -34 2.34 -34 2 C-29.83373537 1.6615135 -25.66693347 1.33014248 -21.5 1 C-19.74042969 0.85691406 -19.74042969 0.85691406 -17.9453125 0.7109375 C-11.94254224 0.2388095 -6.02127983 -0.11923326 0 0 Z " fill="#75AB92" transform="translate(49,176)"/>
<path d="M0 0 C0.99 0.33 1.98 0.66 3 1 C3 8.26 3 15.52 3 23 C2.01 22.67 1.02 22.34 0 22 C0 14.74 0 7.48 0 0 Z " fill="#63A084" transform="translate(168,84)"/>
<path d="M0 0 C0 7.26 0 14.52 0 22 C-0.99 22.33 -1.98 22.66 -3 23 C-3 15.74 -3 8.48 -3 1 C-1 0 -1 0 0 0 Z " fill="#569981" transform="translate(106,165)"/>
<path d="M0 0 C3.36720387 1.39332574 4.9859524 2.9789286 7 6 C6.34 6 5.68 6 5 6 C5 13.59 5 21.18 5 29 C4.34 29 3.68 29 3 29 C2.98018066 28.26362305 2.96036133 27.52724609 2.93994141 26.76855469 C2.84462172 23.42867944 2.73497004 20.08942361 2.625 16.75 C2.57859375 15.01169922 2.57859375 15.01169922 2.53125 13.23828125 C2.47324219 11.56572266 2.47324219 11.56572266 2.4140625 9.859375 C2.3826416 8.83295898 2.3512207 7.80654297 2.31884766 6.74902344 C2.00363375 4.03132927 1.38967649 2.33075565 0 0 Z " fill="#277C78" transform="translate(104,92)"/>
<path d="M0 0 C2.35171131 0.59861742 4.6859378 1.26924352 7 2 C7.33 2.66 7.66 3.32 8 4 C7.01 4 6.02 4 5 4 C5 11.26 5 18.52 5 26 C4.34 26 3.68 26 3 26 C3 18.41 3 10.82 3 3 C2.01 2.67 1.02 2.34 0 2 C0 1.34 0 0.68 0 0 Z " fill="#338379" transform="translate(168,82)"/>
<path d="M0 0 C2.97 0.495 2.97 0.495 6 1 C6.33 1.99 6.66 2.98 7 4 C6.01 4 5.02 4 4 4 C4 11.26 4 18.52 4 26 C3.34 26 2.68 26 2 26 C1.97494385 25.31897217 1.9498877 24.63794434 1.92407227 23.9362793 C1.80809048 20.85316245 1.68537384 17.77034954 1.5625 14.6875 C1.52318359 13.61564453 1.48386719 12.54378906 1.44335938 11.43945312 C1.40146484 10.41142578 1.35957031 9.38339844 1.31640625 8.32421875 C1.26141968 6.9024231 1.26141968 6.9024231 1.20532227 5.4519043 C1.08569813 2.863829 1.08569813 2.863829 0 0 Z " fill="#297E78" transform="translate(65,68)"/>
<path d="M0 0 C4.875 1.75 4.875 1.75 6 4 C6.01614884 5.6696807 5.96515778 7.34028286 5.87890625 9.0078125 C5.83056641 9.99394531 5.78222656 10.98007813 5.73242188 11.99609375 C5.67634766 13.02863281 5.62027344 14.06117187 5.5625 15.125 C5.51029297 16.16527344 5.45808594 17.20554687 5.40429688 18.27734375 C5.27439054 20.85185116 5.13941748 23.42599296 5 26 C4.34 26 3.68 26 3 26 C2.970271 24.97845825 2.970271 24.97845825 2.93994141 23.9362793 C2.84473017 20.85296083 2.73503534 17.77032351 2.625 14.6875 C2.5940625 13.61564453 2.563125 12.54378906 2.53125 11.43945312 C2.49257812 10.41142578 2.45390625 9.38339844 2.4140625 8.32421875 C2.3826416 7.37635498 2.3512207 6.42849121 2.31884766 5.4519043 C2.1510949 2.7469731 2.1510949 2.7469731 0 0 Z " fill="#1B7475" transform="translate(77,75)"/>
<path d="M0 0 C1.04616643 3.1384993 1.04169366 5.05038303 0.87890625 8.32421875 C0.83056641 9.35224609 0.78222656 10.38027344 0.73242188 11.43945312 C0.67634766 12.51130859 0.62027344 13.58316406 0.5625 14.6875 C0.51029297 15.77095703 0.45808594 16.85441406 0.40429688 17.97070312 C0.27458784 20.64742591 0.13962067 23.32377888 0 26 C-0.66 26.33 -1.32 26.66 -2 27 C-2.25663005 23.62650589 -2.47534842 20.25155991 -2.6875 16.875 C-2.76033203 15.92367187 -2.83316406 14.97234375 -2.90820312 13.9921875 C-3.23432812 8.46724644 -3.14711811 4.80562508 0 0 Z " fill="#277C78" transform="translate(127,142)"/>
<path d="M0 0 C0.99 0.33 1.98 0.66 3 1 C2.67 8.92 2.34 16.84 2 25 C1.34 25 0.68 25 0 25 C0 16.75 0 8.5 0 0 Z " fill="#21797B" transform="translate(192,96)"/>
<path d="M0 0 C1.83333333 0.45833333 3.66666667 0.91666667 5.5 1.375 C7.13195312 1.78298828 7.13195312 1.78298828 8.796875 2.19921875 C12.7734375 3.19335938 12.7734375 3.19335938 16.75 4.1875 C17.8225 4.455625 18.895 4.72375 20 5 C20 5.33 20 5.66 20 6 C17.95863605 6.05451714 15.91684144 6.09302485 13.875 6.125 C12.16957031 6.15980469 12.16957031 6.15980469 10.4296875 6.1953125 C6.8666369 5.99240529 4.22940887 5.52366769 1 4 C0.125 1.875 0.125 1.875 0 0 Z " fill="#6FA894" transform="translate(92,51)"/>
<path d="M0 0 C6.29675193 0 7.98289872 0.06316023 13 3 C11 4 11 4 1 1 C1 8.92 1 16.84 1 25 C0.67 25 0.34 25 0 25 C0 16.75 0 8.5 0 0 Z " fill="#7AAE98" transform="translate(53,61)"/>
<path d="M0 0 C2.97 0.495 2.97 0.495 6 1 C4.02 1.99 4.02 1.99 2 3 C1.67 9.6 1.34 16.2 1 23 C-0.32 22.67 -1.64 22.34 -3 22 C-2.01 22 -1.02 22 0 22 C0 14.74 0 7.48 0 0 Z " fill="#C4DADC" transform="translate(129,67)"/>
<path d="M0 0 C2.07984914 3.11977371 2.78770149 5.45013819 3.6875 9.0625 C3.95949219 10.12597656 4.23148438 11.18945312 4.51171875 12.28515625 C5 15 5 15 4 17 C1 10.5 1 10.5 1 6 C0.34 6 -0.32 6 -1 6 C-0.67 4.02 -0.34 2.04 0 0 Z " fill="#3A8778" transform="translate(245,150)"/>
<path d="M0 0 C2.475 0.495 2.475 0.495 5 1 C4.01 1.495 4.01 1.495 3 2 C3 9.26 3 16.52 3 24 C2.67 24 2.34 24 2 24 C2 16.74 2 9.48 2 2 C1.34 2 0.68 2 0 2 C0 1.34 0 0.68 0 0 Z " fill="#458E7B" transform="translate(145,72)"/>
<path d="M0 0 C3.96 1.98 7.92 3.96 12 6 C11.34 6.66 10.68 7.32 10 8 C6.52196937 7.64020373 3.7920164 6.03741737 1 4 C0.67 2.68 0.34 1.36 0 0 Z " fill="#69A489" transform="translate(72,68)"/>
<path d="M0 0 C5.19644079 1.59890486 10.06612142 3.74138003 15 6 C11.92352803 7.53823599 9.46002399 6.56862875 6.19921875 5.8125 C3.07429186 4.6579977 1.69395155 2.79870256 0 0 Z " fill="#86B59F" transform="translate(140,66)"/>
<path d="M0 0 C5.41390868 0.46671627 9.20517932 1.24297811 14 4 C13.34 4.66 12.68 5.32 12 6 C8.04 4.35 4.08 2.7 0 1 C0 0.67 0 0.34 0 0 Z " fill="#53978A" transform="translate(132,67)"/>
<path d="M0 0 C0.33 0.99 0.66 1.98 1 3 C-3.455 3.495 -3.455 3.495 -8 4 C-7.67 3.01 -7.34 2.02 -7 1 C-4.53721199 -0.231394 -2.7204945 -0.07159196 0 0 Z " fill="#5B9B7F" transform="translate(54,176)"/>
<path d="M0 0 C4.68520915 1.21815438 8.70543612 2.69559987 13 5 C9.77272143 6.61363928 7.31076949 5.08456242 4 4 C2.64649406 3.37530495 1.30065517 2.7283669 0 2 C0 1.34 0 0.68 0 0 Z " fill="#89B8A3" transform="translate(155,73)"/>
<path d="M0 0 C0 0.99 0 1.98 0 3 C-3 5.1875 -3 5.1875 -6 7 C-6.66 6.34 -7.32 5.68 -8 5 C-4.04 2.525 -4.04 2.525 0 0 Z " fill="#368583" transform="translate(118,155)"/>
<path d="M0 0 C2.96404505 2.80804268 5.44499019 5.18315774 7 9 C6.01 9 5.02 9 4 9 C0 2.25 0 2.25 0 0 Z " fill="#287C77" transform="translate(230,127)"/>
<path d="M0 0 C2 0 2 0 4.625 2.5 C5.40875 3.325 6.1925 4.15 7 5 C6.67 5.99 6.34 6.98 6 8 C4.99403703 7.0479279 3.99538437 6.08812654 3 5.125 C2.443125 4.59132813 1.88625 4.05765625 1.3125 3.5078125 C0 2 0 2 0 0 Z " fill="#52968E" transform="translate(213,110)"/>
<path d="M0 0 C1.32 0 2.64 0 4 0 C4 0.99 4 1.98 4 3 C4.66 3.33 5.32 3.66 6 4 C4.68 4 3.36 4 2 4 C1.34 2.68 0.68 1.36 0 0 Z " fill="#53968A" transform="translate(201,101)"/>
<path d="M0 0 C3.93673644 1.31224548 6.22719294 2.91910327 9 6 C5.51669784 5.35494404 2.90567134 4.01782732 0 2 C0 1.34 0 0.68 0 0 Z " fill="#6AA58A" transform="translate(192,93)"/>
</svg>
