<?xml version="1.0" encoding="UTF-8"?>
<svg version="1.1" xmlns="http://www.w3.org/2000/svg" width="258" height="268">
<path d="M0 0 C85.14 0 170.28 0 258 0 C258 88.44 258 176.88 258 268 C172.86 268 87.72 268 0 268 C0 179.56 0 91.12 0 0 Z " fill="#FEFEFE" transform="translate(0,0)"/>
<path d="M0 0 C3.51196768 1.42142123 4.90364353 2.93773208 6.8046875 6.18359375 C7.30613281 7.02986328 7.80757812 7.87613281 8.32421875 8.74804688 C8.83597656 9.63556641 9.34773438 10.52308594 9.875 11.4375 C10.37902344 12.29021484 10.88304687 13.14292969 11.40234375 14.02148438 C13.96293133 18.37972232 16.43342079 22.77729451 18.83203125 27.2265625 C22.63566098 34.24213248 26.72674035 41.08429003 30.8125 47.9375 C31.64820246 49.34219836 32.48389567 50.74690223 33.31958008 52.15161133 C42.12115009 66.93089196 50.96446354 81.69462072 60.05322266 96.29931641 C63.68584682 102.14302823 67.14699864 108.0201406 70.39990234 114.08251953 C73.71337524 120.12402108 77.28463991 126.01953516 80.8125 131.9375 C81.64748658 133.3414561 82.48244708 134.74542772 83.31738281 136.14941406 C89.58393665 146.67519245 95.91901907 157.15868153 102.30395508 167.61303711 C103.58474576 169.71219485 104.86061065 171.81436823 106.13085938 173.91992188 C107.42526027 176.05291061 108.74055748 178.17330549 110.07226562 180.28320312 C110.72388672 181.33958984 111.37550781 182.39597656 112.046875 183.484375 C112.63823242 184.42506836 113.22958984 185.36576172 113.83886719 186.33496094 C115.20464198 189.46969551 115.07266507 190.80016844 114 194 C111.64023984 198.1985343 108.99776554 201.29532615 105 204 C99.73439741 205.1937947 94.31480699 204.5869112 89 204 C88.82871582 203.39003174 88.65743164 202.78006348 88.48095703 202.15161133 C87.69845296 199.37110649 86.91176734 196.59180137 86.125 193.8125 C85.85558594 192.85279297 85.58617187 191.89308594 85.30859375 190.90429688 C84.91220703 189.50727539 84.91220703 189.50727539 84.5078125 188.08203125 C84.26691895 187.22843018 84.02602539 186.3748291 83.77783203 185.49536133 C74.29450041 155.0719048 48.90011419 137.27352998 22 123 C17.32469061 120.918145 12.58484175 119.02559058 7.8203125 117.16015625 C6.25182845 116.51494882 4.68827078 115.8555682 3.14941406 115.14257812 C-3.56760584 112.03861762 -10.47840566 109.69235787 -17.5 107.375 C-19.25763672 106.78332031 -19.25763672 106.78332031 -21.05078125 106.1796875 C-26.72324339 104.29523319 -32.32331327 102.58694798 -38.18066406 101.38964844 C-40.40116432 100.91408236 -42.49583508 100.22257819 -44.625 99.4375 C-48.43318192 98.11233301 -51.99469795 97.42609596 -56 97 C-55.47384558 92.31744219 -54.23274363 89.22334378 -51.74609375 85.23828125 C-51.06498535 84.13387695 -50.38387695 83.02947266 -49.68212891 81.89160156 C-49.31710266 81.30963013 -48.95207642 80.72765869 -48.57598877 80.12805176 C-47.01396594 77.63708885 -45.4737999 75.13285715 -43.93206787 72.62930298 C-43.13224164 71.33092971 -42.33132714 70.03322624 -41.52935791 68.73617554 C-37.64804641 62.45408428 -33.8764844 56.1105493 -30.125 49.75 C-29.48723633 48.67137695 -28.84947266 47.59275391 -28.19238281 46.48144531 C-26.50102199 43.62074862 -24.81066406 40.75946245 -23.12078857 37.89788818 C-19.73918285 32.17164357 -16.35582801 26.44644957 -12.96697998 20.7244873 C-12.12057215 19.29427893 -11.2750579 17.86354131 -10.43048096 16.43225098 C-9.25135239 14.4340367 -8.069348 12.4375501 -6.88671875 10.44140625 C-6.53742813 9.84785843 -6.18813751 9.25431061 -5.82826233 8.64277649 C-4.03698255 5.6263818 -2.1701928 2.75773383 0 0 Z " fill="#9FBFB2" transform="translate(129,34)"/>
<path d="M0 0 C6.46911124 1.80286707 11.30082076 4.34766084 16.87109375 8.05859375 C20.35692765 10.22146447 23.92935315 11.9820291 27.625 13.75 C47.75495062 23.52142356 72.83278024 38.60442808 81.9375 60.0625 C83.54658332 65.09215037 84.15016036 70.06070131 82.19140625 75.06640625 C76.07526106 85.88076677 65.6805096 91.2129705 54.80664062 96.171875 C53.3534064 96.83800615 51.91600785 97.53862964 50.484375 98.25 C41.63439177 102.32481242 31.53168424 103.39937201 22 105 C20.96818604 105.18224121 20.96818604 105.18224121 19.91552734 105.36816406 C-7.43219934 110.14599376 -7.43219934 110.14599376 -16.9765625 105.57421875 C-18.9615899 103.8382491 -20.45374055 102.12610675 -22 100 C-23.2684375 98.948125 -23.2684375 98.948125 -24.5625 97.875 C-26 96 -26 96 -25.80200195 93.76586914 C-24.83744332 90.43938975 -23.37528445 87.85018176 -21.60546875 84.87109375 C-21.26195374 84.28848785 -20.91843872 83.70588196 -20.56451416 83.10562134 C-19.44569632 81.21209008 -18.31674961 79.32482516 -17.1875 77.4375 C-16.41028929 76.12657588 -15.63368213 74.81529374 -14.85766602 73.50366211 C-12.58205395 69.66293848 -10.2934663 65.83008345 -8 62 C-7.38962891 60.98067383 -6.77925781 59.96134766 -6.15039062 58.91113281 C-5.07389286 57.1159182 -3.99655868 55.32120476 -2.91821289 53.52709961 C-1.94153607 51.90145205 -0.9667213 50.27468413 0.00610352 48.64672852 C2.13845622 45.07980901 4.28901883 41.53095698 6.51171875 38.01953125 C10.64047075 31.38012222 13.66261943 25.954774 12 18 C10.19584245 11.84463894 6.50170741 7.44746997 2 3 C1.34 2.67 0.68 2.34 0 2 C0 1.34 0 0.68 0 0 Z " fill="#42705D" transform="translate(41,131)"/>
<path d="M0 0 C6.44082496 1.79498401 11.25973542 4.31899028 16.8046875 8.015625 C22.94015323 11.82591423 29.50234619 14.86123373 36 18 C34.25 19.0625 34.25 19.0625 32 20 C30.68 19.67 29.36 19.34 28 19 C28 46.06 28 73.12 28 101 C29.65 101 31.3 101 33 101 C33 101.66 33 102.32 33 103 C-7.40185151 110.2243948 -7.40185151 110.2243948 -16.93359375 105.56640625 C-18.95926327 103.83808271 -20.43962384 102.14551722 -22 100 C-23.2684375 98.948125 -23.2684375 98.948125 -24.5625 97.875 C-26 96 -26 96 -25.80200195 93.76586914 C-24.83744332 90.43938975 -23.37528445 87.85018176 -21.60546875 84.87109375 C-21.26195374 84.28848785 -20.91843872 83.70588196 -20.56451416 83.10562134 C-19.44569632 81.21209008 -18.31674961 79.32482516 -17.1875 77.4375 C-16.41028929 76.12657588 -15.63368213 74.81529374 -14.85766602 73.50366211 C-12.58205395 69.66293848 -10.2934663 65.83008345 -8 62 C-7.38962891 60.98067383 -6.77925781 59.96134766 -6.15039062 58.91113281 C-5.07389286 57.1159182 -3.99655868 55.32120476 -2.91821289 53.52709961 C-1.94153607 51.90145205 -0.9667213 50.27468413 0.00610352 48.64672852 C2.13845622 45.07980901 4.28901883 41.53095698 6.51171875 38.01953125 C10.64047075 31.38012222 13.66261943 25.954774 12 18 C10.19584245 11.84463894 6.50170741 7.44746997 2 3 C1.34 2.67 0.68 2.34 0 2 C0 1.34 0 0.68 0 0 Z " fill="#3A6A56" transform="translate(41,131)"/>
<path d="M0 0 C1.75 2.4375 1.75 2.4375 3 5 C3.51310226 5.41084335 4.02620453 5.82168671 4.55485535 6.24497986 C6.76418884 8.92805021 6.37409377 11.21357518 6.37231445 14.64282227 C6.37596512 15.31304413 6.37961578 15.98326599 6.38337708 16.67379761 C6.3914806 18.88825855 6.3778764 21.10198735 6.36328125 23.31640625 C6.36276268 24.85432434 6.36328027 26.39224309 6.36479187 27.93016052 C6.36470216 31.15235293 6.35427433 34.37429506 6.33618164 37.59643555 C6.31347529 41.73163874 6.31295387 45.8664768 6.31969929 50.0017252 C6.3230364 53.17668416 6.3164144 56.35155949 6.30657005 59.52650261 C6.30271473 61.05156962 6.30157121 62.57664593 6.3031559 64.101717 C6.30352571 66.23018336 6.29093132 68.35817678 6.2746582 70.48657227 C6.27005081 71.69886002 6.26544342 72.91114777 6.26069641 74.16017151 C6 77 6 77 4 79 C4 79.66 4 80.32 4 81 C2.43867691 81.1970602 0.87584736 81.38220155 -0.6875 81.5625 C-1.99267578 81.71912109 -1.99267578 81.71912109 -3.32421875 81.87890625 C-6 82 -6 82 -11 81 C-11 53.94 -11 26.88 -11 -1 C-6.36169116 -2.15957721 -4.39235692 -1.75694277 0 0 Z " fill="#487562" transform="translate(80,151)"/>
<path d="M0 0 C2.475 0.99 2.475 0.99 5 2 C5 24.77 5 47.54 5 71 C2.525 71.495 2.525 71.495 0 72 C0 48.24 0 24.48 0 0 Z " fill="#D8E1DD" transform="translate(81,157)"/>
<path d="M0 0 C1.32 0.33 2.64 0.66 4 1 C4 27.07 4 53.14 4 80 C2.68 80 1.36 80 0 80 C0 53.6 0 27.2 0 0 Z " fill="#EDF1EF" transform="translate(70,151)"/>
<path d="M0 0 C1.98 0.99 1.98 0.99 4 2 C4 19.82 4 37.64 4 56 C2.02 56.495 2.02 56.495 0 57 C0 38.19 0 19.38 0 0 Z " fill="#ECF0EF" transform="translate(94,166)"/>
<path d="M0 0 C4 2 4 2 5 3 C5.12562812 5.41320199 5.18861547 7.79627041 5.203125 10.2109375 C5.20882507 10.93487701 5.21452515 11.65881653 5.22039795 12.4046936 C5.2298612 13.93970268 5.23638717 15.4747322 5.24023438 17.00976562 C5.2499316 19.35843425 5.28093729 21.70622481 5.3125 24.0546875 C5.31903069 25.54426562 5.3242809 27.03385002 5.328125 28.5234375 C5.3404718 29.22665131 5.3528186 29.92986511 5.36553955 30.65438843 C5.3521307 33.5908813 5.33289862 35.53070381 3.60449219 37.96728516 C2 39 2 39 0 39 C0 26.13 0 13.26 0 0 Z " fill="#F7F9F8" transform="translate(106,178)"/>
<path d="M0 0 C4 2 4 2 5 3 C5.08843793 5.44830426 5.11528752 7.86820599 5.09765625 10.31640625 C5.0962413 11.04746078 5.09482635 11.77851532 5.09336853 12.53172302 C5.08775408 14.87535632 5.07519922 17.21889539 5.0625 19.5625 C5.05748686 21.14778508 5.05292363 22.73307166 5.04882812 24.31835938 C5.03777997 28.2122761 5.02050572 32.10612205 5 36 C4.67 36 4.34 36 4 36 C3.67 25.44 3.34 14.88 3 4 C2.34 3.67 1.68 3.34 1 3 C1.33 14.88 1.66 26.76 2 39 C1.34 39 0.68 39 0 39 C0 26.13 0 13.26 0 0 Z " fill="#B9CAC3" transform="translate(106,178)"/>
<path d="M0 0 C1.48199902 0.44909061 2.96055236 0.90956564 4.4375 1.375 C5.26121094 1.63023437 6.08492187 1.88546875 6.93359375 2.1484375 C9 3 9 3 10 5 C6.63295715 5.2295711 4.58629732 5.33943529 1.625 3.625 C1.08875 3.08875 0.5525 2.5525 0 2 C0 1.34 0 0.68 0 0 Z " fill="#90AA9F" transform="translate(41,131)"/>
</svg>
