<svg width="1440" height="576" viewBox="0 0 1440 576" fill="none" xmlns="http://www.w3.org/2000/svg">
<path fill-rule="evenodd" clip-rule="evenodd" d="M1153.85 295.066H1470.09L1155.47 1.38866L1153.85 2.8957V295.066Z" fill="url(#paint0_linear_537_1103)"/>
<path fill-rule="evenodd" clip-rule="evenodd" d="M338.238 0.99709L22.0001 1.78055L337.467 294.678L339.077 293.167L338.238 0.99709Z" fill="url(#paint1_linear_537_1103)"/>
<path fill-rule="evenodd" clip-rule="evenodd" d="M760.313 295.066H1076.55L761.928 1.38866L760.313 2.8957V295.066Z" fill="url(#paint2_linear_537_1103)"/>
<path fill-rule="evenodd" clip-rule="evenodd" d="M366.77 295.066H683.009L368.385 1.38866L366.77 2.89576V295.066Z" fill="url(#paint3_linear_537_1103)"/>
<path fill-rule="evenodd" clip-rule="evenodd" d="M1124.48 0.223687L808.251 2.5617L1125.38 293.904L1126.99 292.385L1124.48 0.223687Z" fill="url(#paint4_linear_537_1103)"/>
<path fill-rule="evenodd" clip-rule="evenodd" d="M728.679 1.3876L412.45 3.7256L729.582 295.068L731.183 293.549L728.679 1.3876Z" fill="url(#paint5_linear_537_1103)"/>
<path fill-rule="evenodd" clip-rule="evenodd" d="M666.855 423.221H983.093L668.469 129.543L666.855 131.05V423.221Z" fill="#D9D9D9"/>
<path fill-rule="evenodd" clip-rule="evenodd" d="M273.313 423.221H589.552L274.927 129.543L273.313 131.05V423.221Z" fill="#D9D9D9"/>
<path fill-rule="evenodd" clip-rule="evenodd" d="M-120.23 423.221H196.009L-118.615 129.543L-120.23 131.051V423.221Z" fill="#D9D9D9"/>
<path fill-rule="evenodd" clip-rule="evenodd" d="M637.481 128.378L321.251 130.716L638.383 422.059L639.985 420.539L637.481 128.378Z" fill="#D9D9D9"/>
<path fill-rule="evenodd" clip-rule="evenodd" d="M241.678 129.542L-74.5506 131.88L242.582 423.223L244.183 421.704L241.678 129.542Z" fill="#D9D9D9"/>
<path fill-rule="evenodd" clip-rule="evenodd" d="M1123.39 312.937L843.718 313.63L1122.71 572.661L1124.13 571.324L1123.39 312.937Z" fill="#D9D9D9"/>
<path fill-rule="evenodd" clip-rule="evenodd" d="M1148.62 573.004H1428.3L1150.05 313.283L1148.62 314.616V573.004Z" fill="#D9D9D9"/>
<path fill-rule="evenodd" clip-rule="evenodd" d="M1468.69 313.282L1189.02 315.35L1469.49 573.006L1470.9 571.662L1468.69 313.282Z" fill="#D9D9D9"/>
<defs>
<linearGradient id="paint0_linear_537_1103" x1="1311.97" y1="1.38868" x2="1456.83" y2="31.1621" gradientUnits="userSpaceOnUse">
<stop stop-color="#D9D9D9"/>
<stop offset="1" stop-color="#D9D9D9" stop-opacity="0"/>
</linearGradient>
<linearGradient id="paint1_linear_537_1103" x1="180.933" y1="295.095" x2="35.966" y2="265.703" gradientUnits="userSpaceOnUse">
<stop stop-color="#D9D9D9"/>
<stop offset="1" stop-color="#D9D9D9" stop-opacity="0"/>
</linearGradient>
<linearGradient id="paint2_linear_537_1103" x1="918.432" y1="1.38868" x2="1063.29" y2="31.1621" gradientUnits="userSpaceOnUse">
<stop stop-color="#D9D9D9"/>
<stop offset="1" stop-color="#D9D9D9" stop-opacity="0"/>
</linearGradient>
<linearGradient id="paint3_linear_537_1103" x1="524.89" y1="1.38868" x2="669.75" y2="31.1621" gradientUnits="userSpaceOnUse">
<stop stop-color="#D9D9D9"/>
<stop offset="1" stop-color="#D9D9D9" stop-opacity="0"/>
</linearGradient>
<linearGradient id="paint4_linear_537_1103" x1="968.794" y1="295.151" x2="823.619" y2="266.517" gradientUnits="userSpaceOnUse">
<stop stop-color="#D9D9D9"/>
<stop offset="1" stop-color="#D9D9D9" stop-opacity="0"/>
</linearGradient>
<linearGradient id="paint5_linear_537_1103" x1="572.992" y1="296.315" x2="427.818" y2="267.681" gradientUnits="userSpaceOnUse">
<stop stop-color="#D9D9D9"/>
<stop offset="1" stop-color="#D9D9D9" stop-opacity="0"/>
</linearGradient>
</defs>
</svg>
