<?xml version="1.0" encoding="UTF-8"?>
<svg version="1.1" xmlns="http://www.w3.org/2000/svg" width="3475" height="1372">
<path d="M0 0 C1146.75 0 2293.5 0 3475 0 C3475 452.76 3475 905.52 3475 1372 C2328.25 1372 1181.5 1372 0 1372 C0 919.24 0 466.48 0 0 Z " fill="#62ADE2" transform="translate(0,0)"/>
<path d="M0 0 C7.20361261 4.37866649 13.46092254 9.75776761 16.1875 17.9375 C17.01605207 27.74429666 15.67641019 34.38108747 10.5 42.625 C7.14410014 45.98089986 3.32363128 48.61392046 -0.8125 50.9375 C-1.4725 50.9375 -2.1325 50.9375 -2.8125 50.9375 C-2.78220703 51.52015625 -2.75191406 52.1028125 -2.72070312 52.703125 C-2.58045258 55.44772029 -2.44648627 58.19259202 -2.3125 60.9375 C-2.26480469 61.85273438 -2.21710938 62.76796875 -2.16796875 63.7109375 C-1.88607941 69.59034366 -1.7836303 75.45120718 -1.79882812 81.3359375 C-1.79981506 82.07030029 -1.800802 82.80466309 -1.80181885 83.5612793 C-1.80437062 85.35335458 -1.80829294 87.14542783 -1.8125 88.9375 C-0.97391449 88.93083817 -0.13532898 88.92417633 0.72866821 88.91731262 C8.64405373 88.85712072 16.55936202 88.81148458 24.47492409 88.78206348 C28.54409195 88.76642913 32.61307017 88.74523191 36.68212891 88.71118164 C40.61139151 88.67850817 44.54047207 88.66063021 48.46986008 88.65286827 C49.96653482 88.64733905 51.46319997 88.63654176 52.95979691 88.62030983 C55.06146777 88.59842857 57.16239312 88.59553742 59.26416016 88.59692383 C60.45884918 88.59026199 61.65353821 88.58360016 62.88442993 88.57673645 C66.59859137 88.98239968 69.01044142 90.0000484 72.1875 91.9375 C73.69356515 94.94963029 73.30910331 98.05032622 73.28515625 101.3515625 C73.28303383 102.44602188 73.28303383 102.44602188 73.28086853 103.56259155 C73.27526531 105.89593585 73.26271235 108.22918464 73.25 110.5625 C73.24498541 112.14322778 73.24042243 113.72395707 73.23632812 115.3046875 C73.22529484 119.18232854 73.20802811 123.05989807 73.1875 126.9375 C74.10789062 126.80472656 75.02828125 126.67195312 75.9765625 126.53515625 C77.87535156 126.27025391 77.87535156 126.27025391 79.8125 126 C81.04226563 125.82597656 82.27203125 125.65195312 83.5390625 125.47265625 C89.72917166 124.68621983 95.9633636 124.34537911 102.1875 123.9375 C102.17750725 122.05282013 102.17750725 122.05282013 102.16731262 120.13006592 C102.10654491 108.29955841 102.06154818 96.4690825 102.03206348 84.63845444 C102.01639563 78.55594131 101.99513669 72.47355399 101.96118164 66.39111328 C101.92862848 60.52319346 101.91065543 54.6553948 101.90286827 48.78739166 C101.89731752 46.54664451 101.8864785 44.30590412 101.87030983 42.06520844 C101.84858961 38.93102088 101.84553085 35.79733643 101.84692383 32.66308594 C101.83074509 31.26802071 101.83074509 31.26802071 101.8142395 29.84477234 C101.84449959 23.56874066 101.84449959 23.56874066 103.58769226 20.36065674 C105.5709535 18.59638749 106.55726748 18.42527749 109.1875 18.5 C110.2084375 18.50193359 110.2084375 18.50193359 111.25 18.50390625 C113.76344274 19.06639041 114.57774176 19.94723558 116.1875 21.9375 C116.55664349 23.86838055 116.55664349 23.86838055 116.54826355 26.09465027 C116.55444954 27.36295937 116.55444954 27.36295937 116.5607605 28.65689087 C116.54997467 29.58117889 116.53918884 30.50546692 116.52807617 31.45776367 C116.52851425 32.43355881 116.52895233 33.40935394 116.52940369 34.41471863 C116.52731101 37.64517109 116.50395707 40.87510677 116.48046875 44.10546875 C116.47487451 46.34320289 116.4706036 48.58094069 116.46760559 50.81867981 C116.45614335 56.71245442 116.42666413 62.60600774 116.39349365 68.49969482 C116.36282258 74.51213589 116.34910658 80.52461265 116.33398438 86.53710938 C116.3017959 98.33733689 116.25058276 110.13740005 116.1875 121.9375 C117.01999268 121.84138428 117.85248535 121.74526855 118.71020508 121.64624023 C121.80143354 121.29250684 124.89325311 120.94467644 127.9855957 120.60083008 C129.98114742 120.37711352 131.97593292 120.14659654 133.97070312 119.91601562 C135.22431641 119.77744141 136.47792969 119.63886719 137.76953125 119.49609375 C138.92686768 119.36517334 140.0842041 119.23425293 141.27661133 119.09936523 C144.1875 118.9375 144.1875 118.9375 147.1875 119.9375 C147.16655273 119.10500732 147.14560547 118.27251465 147.12402344 117.41479492 C147.05581184 114.32303966 147.00568276 111.23166803 146.96777344 108.1394043 C146.93778719 106.14410986 146.88696214 104.14916418 146.8359375 102.15429688 C146.82304688 100.90068359 146.81015625 99.64707031 146.796875 98.35546875 C146.77592773 97.19813232 146.75498047 96.0407959 146.73339844 94.84838867 C147.1875 91.9375 147.1875 91.9375 148.76293945 90.27685547 C152.0990715 88.43393729 154.63092635 88.57751748 158.43457031 88.59692383 C159.15691864 88.59648575 159.87926697 88.59604767 160.62350464 88.59559631 C163.00448904 88.59768171 165.38476403 88.62100014 167.765625 88.64453125 C169.41900243 88.65012811 171.07238485 88.65439778 172.72576904 88.65739441 C177.07256868 88.66883614 181.41906649 88.69829741 185.76574707 88.73150635 C190.20316485 88.76222179 194.6406315 88.77590289 199.078125 88.79101562 C207.78138834 88.82316787 216.4844066 88.87435594 225.1875 88.9375 C225.31898438 88.17308594 225.45046875 87.40867187 225.5859375 86.62109375 C227.0461734 80.10692453 231.97783195 75.73050393 237.1875 71.9375 C242.78638178 68.66675365 249.44985334 68.405764 255.75 69.5 C263.13343304 71.46020346 268.9919596 75.8172837 273.21484375 82.12890625 C277.04458105 89.25006436 277.6650941 96.96866031 275.34765625 104.76171875 C271.97652539 112.1736664 266.86039552 116.70495566 260 120.875 C253.04662676 122.81282533 245.34556786 123.38387793 238.6875 120.1875 C237.50128909 119.46881037 236.33175214 118.72127175 235.1875 117.9375 C234.300625 117.380625 233.41375 116.82375 232.5 116.25 C229.21753281 112.96753281 227.10023556 109.15365753 225.1875 104.9375 C225.1875 104.2775 225.1875 103.6175 225.1875 102.9375 C204.0675 102.9375 182.9475 102.9375 161.1875 102.9375 C161.5175 110.1975 161.8475 117.4575 162.1875 124.9375 C168.87255326 127.53438608 175.5578279 130.13068792 182.24365234 132.72558594 C184.51103257 133.60579111 186.77828848 134.48631661 189.04541016 135.3671875 C204.11434521 141.23411818 204.11434521 141.23411818 219.23828125 146.95703125 C230.15945818 151.02769064 241.0117123 155.27787432 251.875 159.5 C272.41892287 167.63853557 272.41892287 167.63853557 293.125 175.34375 C304.11232916 179.26779613 304.11232916 179.26779613 307.1875 183.9375 C307.1875 185.9175 307.1875 187.8975 307.1875 189.9375 C315.1075 189.9375 323.0275 189.9375 331.1875 189.9375 C331.1875 181.3575 331.1875 172.7775 331.1875 163.9375 C329.5375 163.6075 327.8875 163.2775 326.1875 162.9375 C319.0446642 158.10590537 313.97354047 152.46802894 312.1875 143.9375 C311.04339954 135.55113253 312.2228524 128.86881959 317.1875 121.9375 C321.91963494 116.69057214 327.32337023 112.51308869 334.53125 111.66015625 C343.00670715 111.33317102 349.45127926 113.17843324 356 118.625 C361.99236553 124.40784226 364.36293342 128.92294579 364.6875 137.3125 C364.39562521 145.44733276 362.45063605 151.88682446 356.8125 157.875 C353.51802136 160.87899773 349.83150282 163.9375 345.1875 163.9375 C345.22677612 165.48860474 345.22677612 165.48860474 345.2668457 167.07104492 C345.35756423 170.91929359 345.41482659 174.7674484 345.4621582 178.61645508 C345.48725347 180.28002839 345.52133796 181.94349196 345.56469727 183.60668945 C345.6255746 186.00239153 345.65375769 188.39663251 345.67578125 190.79296875 C345.70158768 191.5327446 345.7273941 192.27252045 345.75398254 193.03471375 C345.75596311 196.70761618 345.39163611 198.66266586 343.18423462 201.634552 C339.34945388 204.58152654 336.31737945 204.63418465 331.67211914 204.56518555 C330.82580933 204.57245667 329.97949951 204.57972778 329.10754395 204.58721924 C326.31215511 204.60580318 323.51804578 204.58973672 320.72265625 204.57421875 C318.7679277 204.58226483 316.81320792 204.59278637 314.85850525 204.60566711 C309.70662252 204.63423732 304.55514157 204.63479263 299.40319824 204.62780762 C291.1904825 204.62049499 282.97789845 204.65216258 274.7652874 204.69025612 C271.91504731 204.69901173 269.06509778 204.69384024 266.21485901 204.68669128 C256.30289967 204.69164284 246.98128637 205.24747186 237.1875 206.9375 C236.8575 215.8475 236.5275 224.7575 236.1875 233.9375 C294.5975 233.9375 353.0075 233.9375 413.1875 233.9375 C413.8475 231.9575 414.5075 229.9775 415.1875 227.9375 C418.50419062 221.56945401 423.89300732 218.08474634 430.1875 214.9375 C438.5955568 214.30351797 447.06295054 213.80320929 454.1875 218.9375 C460.15042718 224.22229036 463.70125538 229.86959834 464.46484375 237.828125 C464.72106077 245.98607488 463.5864323 252.12179874 458.5625 258.625 C452.66284498 264.88351481 447.27566287 267.24202795 438.625 267.5 C429.06450367 267.13706408 424.1439736 264.41995731 417.6328125 257.62109375 C414.90147941 254.4394598 414.1875 253.25610524 414.1875 248.9375 C355.4475 248.9375 296.7075 248.9375 236.1875 248.9375 C236.1875 258.8375 236.1875 268.7375 236.1875 278.9375 C241.41920044 278.89822388 241.41920044 278.89822388 246.7565918 278.8581543 C258.27164392 278.77535903 269.78673716 278.71984296 281.30200481 278.67843914 C288.2847429 278.65266461 295.26719886 278.61752912 302.24975586 278.56030273 C308.98654376 278.50511693 315.72297783 278.47608966 322.46000099 278.46311378 C325.03208852 278.45386502 327.60415975 278.43580461 330.17612267 278.40884972 C333.77491494 278.37262851 337.37249075 278.36755205 340.97143555 278.36987305 C342.03814484 278.35189667 343.10485413 278.33392029 344.20388794 278.31539917 C345.18680313 278.32227249 346.16971832 278.32914581 347.18241882 278.33622742 C348.03323375 278.33161845 348.88404867 278.32700949 349.76064587 278.32226086 C353.49090062 279.26792904 354.91198742 280.86682278 357.1875 283.9375 C357.68073028 287.01931819 357.86708665 289.54696768 357.82673645 292.62507629 C357.83926996 293.93617946 357.83926996 293.93617946 357.85205668 295.27376956 C357.87400145 298.20220576 357.86037502 301.12938971 357.84692383 304.05786133 C357.85537569 306.15710402 357.86601917 308.25633886 357.87869263 310.3555603 C357.90688267 316.05560465 357.90435952 321.75527326 357.89639878 327.45536637 C357.89327774 333.41184454 357.91829632 339.36820218 357.94035339 345.32463074 C357.97783582 356.60447129 357.98994388 367.88419127 357.9929778 379.16408795 C357.99766406 392.00561395 358.03057354 404.84701882 358.06587565 417.68849146 C358.13786253 444.10481296 358.17433531 470.52108834 358.1875 496.9375 C358.77789063 497.0715625 359.36828125 497.205625 359.9765625 497.34375 C366.90890142 499.20543819 370.19592639 502.74529499 373.92578125 508.62109375 C377.66998075 515.49511945 378.45237722 521.98579316 376.5 529.62890625 C373.67265903 537.34519098 369.73377186 542.76071262 362.5625 546.875 C355.92264749 549.8758943 349.41782423 550.25306445 342.44921875 548.0859375 C334.98306632 544.75505918 330.49165618 539.65388093 326.25 532.8125 C323.59175773 525.50651339 324.00937351 516.52194164 327.1875 509.5 C329.93535059 504.78272676 333.45923596 500.73341743 338.1875 497.9375 C340.18127263 497.56874289 342.1813714 497.2317094 344.1875 496.9375 C344.17511071 496.2595296 344.16272142 495.5815592 344.1499567 494.88304424 C343.36075344 451.28349598 343.04950584 407.70057518 343.11547339 364.09436691 C343.12924953 354.81187533 343.13423713 345.52937798 343.13998318 336.24687862 C343.14912944 321.81040592 343.16912 307.37397077 343.1875 292.9375 C307.8775 292.9375 272.5675 292.9375 236.1875 292.9375 C236.1875 299.2075 236.1875 305.4775 236.1875 311.9375 C231.39386426 328.49733254 221.84062286 337.533531 207.06054688 346.0065918 C200.49312716 349.60999401 193.66928672 352.48807834 186.6875 355.1875 C185.46172241 355.66328491 185.46172241 355.66328491 184.21118164 356.14868164 C176.59898562 358.98731718 169.14707639 360.8149463 161.1875 362.9375 C160.8575 387.3575 160.5275 411.7775 160.1875 436.9375 C181.6375 436.9375 203.0875 436.9375 225.1875 436.9375 C226.1775 433.9675 227.1675 430.9975 228.1875 427.9375 C231.69945816 422.77180964 237.16190043 418.6334469 243.1875 416.9375 C251.87947548 415.75628282 258.99613228 416.7821638 266.1875 421.9375 C271.86315578 426.87764963 275.52848882 433.37985258 276.60546875 440.828125 C277.01456488 449.45231376 274.87480222 455.8297764 269.09765625 462.265625 C263.26558748 467.80858267 258.35361056 469.91546998 250.3125 470.25 C242.63464757 470.05193704 236.36842478 467.95552672 230.6953125 462.69140625 C227.91783321 459.4606078 225.1875 455.30567949 225.1875 450.9375 C224.25455612 450.94638245 223.32161224 450.95526489 222.36039734 450.9644165 C213.57586236 451.04544111 204.79140302 451.10543578 196.0065794 451.14474869 C191.48998653 451.1656393 186.97369488 451.19398349 182.45727539 451.23925781 C178.10008082 451.28266353 173.74317629 451.306626 169.38578224 451.31700897 C167.72193649 451.32440989 166.05810693 451.33886201 164.39438438 451.36042023 C162.06685238 451.38938525 159.74052451 451.39345907 157.4128418 451.39160156 C156.72232224 451.40598267 156.03180267 451.42036377 155.32035828 451.43518066 C152.3743781 451.40967798 150.59602764 451.26242583 148.25720215 449.40222168 C146.76223738 445.95764406 146.79341184 442.73425765 146.84692383 439.04785156 C146.84648575 438.25722824 146.84604767 437.46660492 146.84559631 436.65202332 C146.8476831 434.04380431 146.87100861 431.43623145 146.89453125 428.828125 C146.9001276 427.01780549 146.90439752 425.20748144 146.90739441 423.39715576 C146.9188401 418.63608217 146.94830492 413.87528381 146.98150635 409.11431885 C147.01221316 404.25463586 147.02590106 399.39490832 147.04101562 394.53515625 C147.07317487 385.00248334 147.12436792 375.47001457 147.1875 365.9375 C145.95515625 366.081875 144.7228125 366.22625 143.453125 366.375 C141.78128892 366.56284675 140.10941162 366.75032684 138.4375 366.9375 C137.22900391 367.08058594 137.22900391 367.08058594 135.99609375 367.2265625 C129.37830407 367.95608262 122.84138299 368.04079443 116.1875 367.9375 C116.19026538 368.5531825 116.19303076 369.16886499 116.19587994 369.80320454 C116.26209713 384.77552671 116.31175973 399.74780405 116.34293652 414.72023487 C116.35841364 421.96076016 116.37951918 429.20118778 116.41381836 436.44165039 C116.443695 442.75152754 116.46306885 449.06133398 116.46976548 455.3712799 C116.47368074 458.71320867 116.48289931 462.05493509 116.50469017 465.39679909 C116.52636281 469.12508941 116.52947113 472.852956 116.52807617 476.58129883 C116.54425491 478.24825302 116.54425491 478.24825302 116.5607605 479.94888306 C116.55663651 480.96270554 116.55251251 481.97652802 116.54826355 483.02107239 C116.55102893 483.90322827 116.55379431 484.78538416 116.55664349 485.69427204 C116.10454266 488.44161894 115.42644784 489.31815429 113.1875 490.9375 C109.75 491.4375 109.75 491.4375 106.1875 490.9375 C103.58213172 488.77117298 102.34799512 486.9900394 101.83245087 483.60906029 C101.6932062 480.60836547 101.69325488 477.63336326 101.73339844 474.62963867 C101.73281433 473.48774078 101.73223022 472.3458429 101.73162842 471.16934204 C101.73441349 467.39774095 101.76552728 463.62693166 101.796875 459.85546875 C101.80433584 457.2394504 101.81002951 454.62342645 101.81402588 452.00740051 C101.82644603 445.82734449 101.85925427 439.64757234 101.89942384 433.46764117 C101.94417175 426.43021441 101.96613612 419.3927739 101.98620558 412.35524023 C102.027988 397.88251388 102.09832115 383.41001092 102.1875 368.9375 C101.29611328 368.94535522 101.29611328 368.94535522 100.38671875 368.95336914 C97.6536569 368.97435591 94.9206121 368.98722845 92.1875 369 C91.25292969 369.00837891 90.31835938 369.01675781 89.35546875 369.02539062 C83.86475599 369.04458892 78.61883519 368.7509193 73.1875 367.9375 C73.2189209 368.80701294 73.2189209 368.80701294 73.25097656 369.6940918 C73.33446807 372.33754924 73.38626153 374.9807288 73.4375 377.625 C73.48777344 378.99301758 73.48777344 378.99301758 73.5390625 380.38867188 C73.60257561 384.75519795 73.62472486 387.22475121 71.296875 391.01953125 C68.05594703 393.96637502 66.26564605 394.06185769 61.97372437 394.05775452 C60.3162191 394.05981651 60.3162191 394.05981651 58.62522888 394.06192017 C57.40747269 394.05832489 56.18971649 394.05472961 54.93505859 394.05102539 C53.6570488 394.05117142 52.379039 394.05131744 51.06230164 394.0514679 C47.55218746 394.05175549 44.04210727 394.04586491 40.53200102 394.03889394 C36.86578766 394.03265406 33.19957357 394.0320561 29.53335571 394.03086853 C22.58834359 394.02775709 15.64334717 394.01954621 8.69834197 394.00951904 C0.79276498 393.99835211 -7.11281275 393.99284599 -15.01839566 393.98782361 C-31.2831063 393.97736345 -47.54780115 393.95976762 -63.8125 393.9375 C-64.10769531 394.70191406 -64.40289063 395.46632813 -64.70703125 396.25390625 C-67.24469901 402.41425165 -71.25165122 407.28887985 -76.8125 410.9375 C-83.81571908 413.76386803 -91.45060157 414.31090856 -98.703125 412.02734375 C-104.0788871 409.5245563 -107.44756392 406.7869667 -110.8125 401.9375 C-111.575625 401.1125 -112.33875 400.2875 -113.125 399.4375 C-116.30999912 392.83157591 -115.50962956 384.69568311 -114.25 377.5625 C-111.45169084 370.50589429 -105.43937059 364.0898982 -98.51171875 360.8671875 C-91.25455948 358.367616 -84.29888782 359.29574043 -77.4375 362.5 C-69.76108396 366.77025762 -66.58443611 370.62169168 -63.8125 378.9375 C-23.2225 379.2675 17.3675 379.5975 59.1875 379.9375 C59.1875 375.3175 59.1875 370.6975 59.1875 365.9375 C56.59261719 365.77314453 56.59261719 365.77314453 53.9453125 365.60546875 C47.47468218 365.06198133 41.35415196 363.81906724 35.0625 362.25 C33.97718994 361.9823584 32.89187988 361.7147168 31.77368164 361.43896484 C8.75927648 355.64163737 -22.12264098 346.4792824 -35.109375 324.76953125 C-40.92686633 313.53502806 -39.8125 307.8400905 -39.8125 292.9375 C-87.0025 292.9375 -134.1925 292.9375 -182.8125 292.9375 C-182.4825 318.6775 -182.1525 344.4175 -181.8125 370.9375 C-177.8525 372.9175 -177.8525 372.9175 -173.8125 374.9375 C-168.10037987 379.09268827 -164.97528307 383.9817526 -163.8125 390.9375 C-162.99343971 400.44321378 -163.60684644 406.99762141 -169.5 414.625 C-173.71632331 419.31565969 -179.89476353 422.60838482 -186.23046875 423.140625 C-195.91032659 423.30445898 -201.90250618 421.48254337 -209.05078125 414.83984375 C-214.77387452 408.65991821 -216.23704188 402.10640331 -216.16015625 393.890625 C-215.31382317 386.70154848 -211.37371526 380.46407056 -205.8125 375.9375 C-204.83235821 375.43970205 -204.83235821 375.43970205 -203.83241558 374.93184757 C-199.61825549 372.84505702 -199.61825549 372.84505702 -197.0833683 369.0903759 C-196.82184848 366.81050668 -196.81353238 364.64891561 -196.8918457 362.35522461 C-196.88895538 361.50260544 -196.88606506 360.64998627 -196.88308716 359.77153015 C-196.88187022 356.95954694 -196.93583052 354.15129166 -196.98828125 351.33984375 C-196.99345992 349.3835973 -196.99439116 347.42733539 -196.99125671 345.47108459 C-196.99114409 340.3247657 -197.03440236 335.17984968 -197.09106445 330.03387451 C-197.17958428 321.7940476 -197.22490494 313.55461792 -197.22756004 305.31433296 C-197.23815974 302.43534621 -197.2809874 299.55805076 -197.32624817 296.6794281 C-197.33376086 294.91641731 -197.34006696 293.15340083 -197.3449707 291.39038086 C-197.3661647 290.5897522 -197.3873587 289.78912354 -197.40919495 288.9642334 C-197.39064865 285.28742917 -197.28093894 283.4203756 -194.67177582 280.73080158 C-191.28893903 278.60912919 -189.44525315 278.44329301 -185.47868347 278.45648193 C-184.20127289 278.45098328 -182.9238623 278.44548462 -181.60774231 278.43981934 C-180.19967273 278.45397413 -178.79160697 278.46851334 -177.38354492 278.48339844 C-175.89514191 278.48452719 -174.40673668 278.4838925 -172.91833496 278.48162842 C-168.88344012 278.48048143 -164.84902157 278.50398795 -160.81423736 278.53192425 C-156.59552794 278.55694057 -152.37680743 278.55928008 -148.15803528 278.56402588 C-140.17179594 278.57645499 -132.18577579 278.60927567 -124.19963294 278.64942384 C-115.10661336 278.69414359 -106.01358327 278.71612909 -96.92048109 278.73620558 C-78.21767123 278.77800846 -59.51516183 278.85135995 -40.8125 278.9375 C-40.8125 269.0375 -40.8125 259.1375 -40.8125 248.9375 C-128.9225 249.2675 -217.0325 249.5975 -307.8125 249.9375 C-309.7925 253.8975 -309.7925 253.8975 -311.8125 257.9375 C-316.71497946 263.75661953 -322.73041168 267.44823063 -330.328125 268.1796875 C-338.06644952 268.38820523 -343.61627361 266.71375784 -349.8125 261.9375 C-355.60690255 256.14309745 -358.94610195 251.05940115 -359.25 242.6875 C-358.99004835 233.89913475 -357.03846011 227.66678857 -350.625 221.5 C-344.39578942 216.45342187 -338.01753854 214.31217281 -330 214.66015625 C-322.36649789 215.62797527 -316.98714918 219.35071062 -311.8125 224.9375 C-309.45369078 228.17092387 -307.8125 230.82828348 -307.8125 234.9375 C-219.3725 234.9375 -130.9325 234.9375 -39.8125 234.9375 C-39.8125 224.7075 -39.8125 214.4775 -39.8125 203.9375 C-42.54821289 203.95844727 -45.28392578 203.97939453 -48.10253906 204.00097656 C-57.13497344 204.06721541 -66.16741847 204.11142297 -75.20003128 204.14474869 C-80.67726728 204.16563543 -86.15425472 204.19397319 -91.63134766 204.23925781 C-96.9157328 204.28267637 -102.19987867 204.30662892 -107.48442841 204.31700897 C-109.50190753 204.32440749 -111.51937336 204.33885487 -113.53675079 204.36042023 C-116.35975076 204.38940101 -119.18175835 204.39345822 -122.00488281 204.39160156 C-122.84141891 204.40598267 -123.67795502 204.42036377 -124.5398407 204.43518066 C-127.99518563 204.41054362 -130.24042949 204.37848345 -133.02841949 202.22934723 C-135.16412949 199.48579332 -135.30755444 198.2258373 -135.29351807 194.78692627 C-135.29901672 193.74648666 -135.30451538 192.70604706 -135.31018066 191.63407898 C-135.28860901 189.93043938 -135.28860901 189.93043938 -135.26660156 188.19238281 C-135.26718567 186.99210953 -135.26776978 185.79183624 -135.26837158 184.55519104 C-135.26606318 181.26806997 -135.2460109 177.98163104 -135.21807575 174.69464588 C-135.1930614 171.25802897 -135.19072009 167.82139849 -135.18597412 164.38470459 C-135.17354437 157.87879545 -135.14072303 151.37315534 -135.10057616 144.86736465 C-135.05585823 137.45995389 -135.0338714 130.05253025 -135.01379442 122.6450181 C-134.97199018 107.40902295 -134.90163844 92.17329618 -134.8125 76.9375 C-135.76318359 76.63134766 -136.71386719 76.32519531 -137.69335938 76.00976562 C-144.72668694 73.59192165 -149.13003131 68.06625789 -152.71484375 61.71875 C-155.55331874 54.52659985 -154.42268117 46.0561759 -151.8125 38.9375 C-147.85390043 31.97088562 -142.41248973 27.47082991 -134.8125 24.9375 C-125.69105132 24.0906075 -117.90985111 25.01245281 -110.51953125 30.703125 C-103.67120664 37.04000825 -101.72964305 42.54360789 -101.1875 51.75 C-101.38306607 59.36077948 -103.69970213 64.34678628 -108.8125 69.9375 C-117.02403846 76.9375 -117.02403846 76.9375 -120.8125 76.9375 C-120.8125 114.2275 -120.8125 151.5175 -120.8125 189.9375 C-92.5975 189.4425 -92.5975 189.4425 -63.8125 188.9375 C-68.040625 186.813125 -72.26875 184.68875 -76.625 182.5 C-78.0073584 181.80463135 -79.3897168 181.1092627 -80.81396484 180.39282227 C-86.41778464 177.58625093 -92.01896846 174.80622265 -97.7265625 172.21484375 C-98.58660889 171.82288818 -99.44665527 171.43093262 -100.33276367 171.02709961 C-101.89464379 170.32306255 -103.46224968 169.63153305 -105.03637695 168.95532227 C-109.96929513 166.72819537 -112.73563492 164.43173095 -115.8125 159.9375 C-116.4375 156.375 -116.4375 156.375 -115.8125 152.9375 C-112.44018854 148.60167099 -109.10484742 146.46480549 -103.68127441 145.59616089 C-100.95178723 145.27232286 -98.22103333 145.00247329 -95.484375 144.74609375 C-94.42378372 144.6401741 -93.36319244 144.53425446 -92.27046204 144.42512512 C-89.93785744 144.1924939 -87.60493833 143.96300076 -85.27175903 143.73620605 C-78.79792145 143.10578653 -72.32671303 142.44936293 -65.85546875 141.79296875 C-65.15851332 141.72249454 -64.46155788 141.65202034 -63.74348259 141.57941055 C-44.10520183 139.59102972 -24.49092757 137.38358586 -4.875 135.1875 C-3.10339431 134.98924093 -1.33178787 134.79098851 0.43981934 134.59274292 C1.73618584 134.44765683 1.73618584 134.44765683 3.05874157 134.2996397 C4.78024809 134.10700086 6.50176052 133.9144148 8.223279 133.72188282 C12.20460675 133.27661153 16.18586602 132.83076024 20.16691589 132.38301086 C23.7535383 131.98015445 27.34064022 131.58184672 30.92814255 131.18690491 C32.51214839 131.0120504 34.09601192 130.83590421 35.67976761 130.65879822 C38.23475455 130.37384438 40.79027144 130.09413029 43.34594727 129.81542969 C44.12581717 129.72756824 44.90568708 129.6397068 45.70918941 129.54918289 C46.45331868 129.46904324 47.19744795 129.38890358 47.96412659 129.30633545 C48.61185815 129.23497753 49.25958971 129.16361961 49.9269495 129.09009933 C53.00720838 128.88216527 56.10023076 128.9375 59.1875 128.9375 C59.1875 120.3575 59.1875 111.7775 59.1875 102.9375 C55.99271973 102.97677612 55.99271973 102.97677612 52.73339844 103.0168457 C45.69672473 103.09969074 38.66002948 103.15492185 31.62299728 103.19656086 C27.35631263 103.22265599 23.09012757 103.25805148 18.82373047 103.31469727 C14.7064142 103.36902161 10.58957845 103.39892117 6.47193146 103.41188622 C4.90098759 103.42112549 3.33007006 103.43916814 1.75933075 103.46615028 C-0.4412977 103.50244946 -2.63994069 103.50744547 -4.84082031 103.50512695 C-6.09324524 103.51623001 -7.34567017 103.52733307 -8.63604736 103.53877258 C-11.8125 102.9375 -11.8125 102.9375 -14.20837402 100.70715332 C-15.86027064 97.85502013 -16.34501961 96.30710214 -16.45019531 93.05541992 C-16.50980438 91.64452339 -16.50980438 91.64452339 -16.57061768 90.2051239 C-16.59372009 89.2028627 -16.61682251 88.2006015 -16.640625 87.16796875 C-16.69872345 85.61375969 -16.69872345 85.61375969 -16.75799561 84.02815247 C-16.87729813 80.72743373 -16.97023564 77.4265743 -17.0625 74.125 C-17.13888679 71.88340363 -17.21699188 69.64186512 -17.296875 67.40039062 C-17.48867368 61.91327498 -17.65884973 56.42580922 -17.8125 50.9375 C-18.36439499 50.66991379 -18.91628998 50.40232758 -19.48490906 50.12663269 C-20.20749405 49.77184341 -20.93007904 49.41705414 -21.67456055 49.05151367 C-22.74990303 48.52638435 -22.74990303 48.52638435 -23.8469696 47.99064636 C-29.0789034 45.18733584 -32.63118878 40.14294385 -34.75 34.6875 C-37.10221016 26.09231696 -36.87717294 18.01639347 -32.43359375 10.19921875 C-24.53083014 -0.82656469 -12.90902444 -3.59759698 0 0 Z " fill="#FBFCFE" transform="translate(854.8125,413.0625)"/>
<path d="M0 0 C0.33 0 0.66 0 1 0 C1 301.62 1 603.24 1 914 C-3.50793651 908.36507937 -3.50793651 908.36507937 -5.55078125 905.58203125 C-5.99800537 904.97311035 -6.44522949 904.36418945 -6.90600586 903.73681641 C-7.60222046 902.78427979 -7.60222046 902.78427979 -8.3125 901.8125 C-8.80177979 901.14395996 -9.29105957 900.47541992 -9.79516602 899.78662109 C-12.9425746 895.47537307 -16.04223255 891.13524316 -19.0859375 886.75 C-21.55998737 883.19544671 -24.0619906 879.66096796 -26.5625 876.125 C-31.05897778 869.76204631 -35.53516295 863.38519046 -40 857 C-47.90792169 845.69335452 -55.83832511 834.40310444 -63.875 823.1875 C-68.52728778 816.69340573 -73.10641564 810.14892393 -77.68261719 803.60107422 C-82.93937901 796.08062824 -88.22650597 788.58202766 -93.5234375 781.08984375 C-95.03791538 778.9463367 -96.5504729 776.80148642 -98.0625 774.65625 C-104.50734248 765.5115775 -104.50734248 765.5115775 -110.99047852 756.39404297 C-111.82187801 755.22631264 -112.64801355 754.05481429 -113.46850586 752.87939453 C-115.34278617 750.21216424 -117.25603107 747.71437946 -119.43359375 745.28515625 C-122.79360708 741.41269721 -124.92416049 738.64277865 -125.16625977 733.39860535 C-125.06895144 732.04440291 -124.95114265 730.69156812 -124.81640625 729.34057617 C-124.75737122 728.60000316 -124.69833618 727.85943014 -124.63751221 727.09641552 C-124.44366029 724.728921 -124.22312171 722.36489831 -124 720 C-123.86891857 718.48688226 -123.73894522 716.9736681 -123.61010742 715.46035767 C-123.18666798 710.59172553 -122.71919877 705.72768053 -122.25 700.86328125 C-122.07428819 699.0177047 -121.89884553 697.1721025 -121.72364807 695.32647705 C-121.25140896 690.3598163 -120.77539207 685.39352437 -120.29863358 680.42729568 C-119.79056793 675.12809024 -119.28601212 669.82855045 -118.78100586 664.52905273 C-117.83377071 654.59460575 -116.8833627 644.66046519 -115.93156147 634.72645473 C-115.23855073 627.49287558 -114.54669274 620.25918737 -113.85595703 613.02539062 C-113.76423407 612.06482128 -113.6725111 611.10425194 -113.57800865 610.11457443 C-113.39452025 608.19295764 -113.21103268 606.27134077 -113.02754593 604.34972382 C-109.87474621 571.33597752 -106.70625132 538.32374202 -103.52734375 505.3125 C-102.68480681 496.56250857 -101.84235635 487.81250882 -101 479.0625 C-100.89464054 477.96815014 -100.78928108 476.87380028 -100.68072891 475.7462883 C-97.58705161 443.61064472 -94.52222279 411.47241241 -91.48609924 379.33128357 C-87.6877456 339.12450752 -83.8380215 298.92270041 -79.98111916 258.72150707 C-79.75235206 256.33701604 -79.52359758 253.95252379 -79.29484558 251.56803131 C-78.92321066 247.69418602 -78.55153484 243.82034466 -78.17984056 239.94650507 C-77.96074835 237.66299206 -77.74169368 235.37947544 -77.52264023 233.09595871 C-76.81428074 225.71261235 -76.10496399 218.32935986 -75.39373779 210.94628906 C-75.11982143 208.10173414 -74.84600524 205.25716959 -74.57226562 202.41259766 C-74.47233645 201.37433358 -74.47233645 201.37433358 -74.37038851 200.31509447 C-73.53196296 191.59897627 -72.70501046 182.88189639 -71.89164352 174.1633997 C-71.43741282 169.29654806 -70.97936318 164.43005915 -70.52106476 159.5635891 C-70.31224488 157.33337724 -70.10544976 155.10297469 -69.90087128 152.87236977 C-69.62289057 149.84174355 -69.33805779 146.8118323 -69.05175781 143.78198242 C-68.97416985 142.9145233 -68.89658188 142.04706417 -68.81664276 141.15331841 C-68.0212074 132.87537478 -66.62258553 125.53573772 -62.7265625 118.11328125 C-62.40711166 117.49818192 -62.08766083 116.88308258 -61.75852966 116.24934387 C-60.72428834 114.26481977 -59.67504196 112.28870206 -58.625 110.3125 C-57.893058 108.91624097 -57.16186545 107.51958883 -56.43139648 106.12255859 C-51.93670494 97.55080983 -47.33083314 89.0415761 -42.65087891 80.56958008 C-38.1038708 72.29627676 -33.80226665 63.90213489 -29.5 55.5 C-23.71301434 44.19953776 -17.80133793 32.98679997 -11.671875 21.8671875 C-7.68334817 14.63036262 -3.84201169 7.31534549 0 0 Z " fill="#84BFE9" transform="translate(3474,336)"/>
<path d="M0 0 C3.78338108 1.19748432 7.30373063 2.534203 10.83691406 4.33837891 C11.7451593 4.79870514 12.65340454 5.25903137 13.58917236 5.73330688 C14.55490173 6.22608124 15.5206311 6.71885559 16.515625 7.2265625 C18.59196157 8.26919825 20.66880054 9.310834 22.74609375 10.3515625 C26.00061457 11.98593957 29.25172522 13.62588169 32.49462891 15.28320312 C35.63854068 16.88693742 38.79436328 18.46482243 41.953125 20.0390625 C43.38957367 20.78429672 43.38957367 20.78429672 44.8550415 21.54458618 C51.1644987 24.65542914 56.00347896 25.68995847 63 25 C64.06512314 24.9079277 64.06512314 24.9079277 65.15176392 24.81399536 C67.24845924 24.6019568 69.33028687 24.33393126 71.41796875 24.046875 C72.18447754 23.94687698 72.95098633 23.84687897 73.74072266 23.74385071 C76.22381283 23.41854953 78.70561274 23.08434365 81.1875 22.75 C82.94368393 22.51817413 84.69995159 22.28698183 86.45629883 22.05639648 C89.99078246 21.59172473 93.52483687 21.12397394 97.05859375 20.65380859 C101.33955099 20.08548808 105.62218319 19.5326685 109.90625 18.98828125 C121.39752498 17.52761659 132.87984982 16.02472107 144.3515625 14.41796875 C146.34870295 14.13981188 148.34585468 13.86173595 150.34301758 13.58374023 C154.247624 13.04008901 158.15082139 12.48746441 162.0534668 11.92993164 C163.865025 11.67691209 165.67662788 11.42421221 167.48828125 11.171875 C168.70682297 10.99406746 168.70682297 10.99406746 169.94998169 10.81266785 C175.65994398 10.02800158 181.24002785 9.87194265 187 10 C188.12170111 19.03162793 184.18954332 25.11475552 179.75 32.625 C179.05942639 33.82450268 178.37061013 35.02501888 177.68359375 36.2265625 C175.36959143 40.26005634 173.03340769 44.28006272 170.63842773 48.26611328 C168.15683984 52.44172919 167.36440014 55.09680107 168 60 C169.40759341 62.76441969 169.40759341 62.76441969 171 65 C171 65.66 171 66.32 171 67 C184.35517164 72.50481985 196.15808429 73.73539222 210 69 C214.3004018 67.01910626 217.11424942 64.40008469 219 60 C219.67591188 54.31889806 217.69671673 50.75615557 215.0625 45.92578125 C214.24163973 44.35510386 213.42134516 42.78413072 212.6015625 41.21289062 C211.30618477 38.76435257 210.00400256 36.31993131 208.69042969 33.88110352 C199.31445478 16.38885102 199.31445478 16.38885102 201 7 C204.94156225 6.43898041 208.88444239 5.88832967 212.82861328 5.34594727 C214.80441789 5.0722764 216.77918657 4.79115821 218.75390625 4.50976562 C226.01708009 3.51604781 233.20136597 2.80612044 240.52001953 2.43920898 C241.34099625 2.39590202 242.16197296 2.35259506 243.00782776 2.30797577 C245.00509567 2.20295447 247.00253162 2.1011369 249 2 C249.06958119 15.03056438 249.12285265 28.06108439 249.15543652 41.09179688 C249.17107694 47.14280775 249.19228586 53.1936913 249.22631836 59.24462891 C249.25896926 65.08663175 249.27686522 70.9285123 249.28463173 76.77059937 C249.29016491 78.99687627 249.30096986 81.22314665 249.31719017 83.44937134 C249.33904026 86.57316433 249.34196371 89.6964551 249.34057617 92.8203125 C249.351362 93.73597488 249.36214783 94.65163727 249.3732605 95.595047 C249.33062244 104.49515578 246.83848648 111.16126939 240.67578125 117.70703125 C230.85598557 126.12195105 217.91494935 131.26457141 206 136 C204.88109375 136.45117188 203.7621875 136.90234375 202.609375 137.3671875 C190.18624739 141.93367961 177.02726984 143.91574745 164 146 C162.84854492 146.19053955 161.69708984 146.3810791 160.51074219 146.57739258 C150.07244594 148.15637143 139.78932639 148.35914766 129.25 148.3125 C128.35026459 148.31001251 127.45052917 148.30752502 126.52352905 148.30496216 C87.25425525 148.13774058 37.63935125 143.17343802 7.0078125 115.59375 C1.34648018 108.2802779 -0.74519458 101.56812883 -0.56762695 92.40966797 C-0.56835709 91.40358994 -0.56908722 90.3975119 -0.56983948 89.36094666 C-0.56638569 86.0707912 -0.52762857 82.78209235 -0.48828125 79.4921875 C-0.47894529 77.19720228 -0.47183288 74.90220704 -0.46684265 72.60720825 C-0.44783475 66.59334361 -0.39878701 60.58009145 -0.34332275 54.56646729 C-0.29199637 48.41939578 -0.26930004 42.27222444 -0.24414062 36.125 C-0.19066263 24.08306558 -0.10542494 12.0415839 0 0 Z " fill="#66AFE3" transform="translate(828,620)"/>
<path d="M0 0 C0.9065332 0.00241699 1.81306641 0.00483398 2.74707031 0.00732422 C15.00284198 0.33710492 26.35063743 4.78064036 35.875 12.5625 C36.48472656 13.03816406 37.09445312 13.51382813 37.72265625 14.00390625 C45.83177208 21.11497705 51.23587477 33.28352653 52.0594101 43.95127487 C52.13360923 46.65026551 52.14533521 49.34249117 52.13378906 52.04248047 C52.1372937 53.06146423 52.14079834 54.080448 52.14440918 55.13031006 C52.15317144 58.48017299 52.14739586 61.82982262 52.140625 65.1796875 C52.14197344 67.52084392 52.14391546 69.86200006 52.14642334 72.20315552 C52.14936733 77.10372592 52.145101 82.00422327 52.13574219 86.90478516 C52.12436081 93.16779348 52.13090351 99.43063012 52.14288712 105.69363213 C52.15013603 110.52708209 52.14780365 115.3604918 52.14263153 120.19394302 C52.14130276 122.50228013 52.14291551 124.81062095 52.14759064 127.1189537 C52.15270436 130.35397685 52.14487722 133.58872746 52.13378906 136.82373047 C52.13783752 137.76638763 52.14188599 138.7090448 52.14605713 139.68026733 C52.05548929 154.03850503 48.36007069 166.90869987 38.19140625 177.37890625 C24.90380887 189.90465151 11.29319557 192.01062831 -6.33203125 191.7734375 C-11.6919875 191.60610026 -16.2412642 190.83240537 -21.125 188.5625 C-22.0221875 188.1603125 -22.919375 187.758125 -23.84375 187.34375 C-37.29744375 180.69082452 -44.3539709 170.35467635 -49.27696228 156.56498528 C-50.65545048 151.68443525 -50.68273149 146.99057786 -50.64257812 141.94750977 C-50.6495874 140.84351837 -50.65659668 139.73952698 -50.66381836 138.6020813 C-50.68129208 134.98576011 -50.66981193 131.37023414 -50.65625 127.75390625 C-50.65894814 125.22004549 -50.66283323 122.68618573 -50.66784668 120.15232849 C-50.67372757 114.85429015 -50.66561222 109.55653142 -50.64648438 104.25854492 C-50.6247321 98.16389978 -50.63176606 92.0697904 -50.65379 85.97515827 C-50.67424607 80.0746056 -50.67193208 74.17421693 -50.66026306 68.27363396 C-50.65760841 65.7799465 -50.66082075 63.28624523 -50.67018127 60.79257393 C-50.68042423 57.29698436 -50.6647361 53.80240013 -50.64257812 50.30688477 C-50.65067505 49.29197464 -50.65877197 48.27706451 -50.66711426 47.23139954 C-50.51650478 34.30292101 -45.86674854 23.6927136 -37.0234375 14.33984375 C-26.81031425 4.68609651 -13.97844495 -0.0395169 0 0 Z " fill="#FDFEFE" transform="translate(1853.125,596.4375)"/>
<path d="M0 0 C1.39096051 0.57928421 2.78326128 1.1553588 4.17675781 1.72851562 C6.42583821 2.65372324 8.67400928 3.58066034 10.91860962 4.51669312 C20.09321473 8.3365016 29.37263151 11.88324148 38.65005493 15.44412231 C42.4079223 16.88714181 46.16325405 18.33669261 49.91862488 19.78619385 C58.38065152 23.05170601 66.8459802 26.30865756 75.3125 29.5625 C81.10214251 31.78760325 86.89172404 34.01286486 92.68115234 36.23852539 C94.44966197 36.91833012 96.21821739 37.59801575 97.98681641 38.27758789 C100.57466592 39.27198202 103.16234885 40.26680857 105.75 41.26171875 C106.92973389 41.71486702 106.92973389 41.71486702 108.13330078 42.1771698 C111.86994722 43.61431211 115.60030105 45.06295244 119.3125 46.5625 C119.3125 46.8925 119.3125 47.2225 119.3125 47.5625 C114.31781405 48.23813581 109.32310249 48.9135819 104.32836914 49.58886719 C102.63630514 49.81765872 100.94424763 50.04649827 99.25219727 50.27539062 C94.34738594 50.93887148 89.44238232 51.60090559 84.53723145 52.26187134 C82.56916963 52.52781615 80.6014526 52.79630983 78.63378906 53.06518555 C65.37411506 54.86321826 52.08525457 56.43130454 38.80078125 58.03344727 C35.53104279 58.4281609 32.26159941 58.82524819 28.9921875 59.22265625 C27.99323456 59.34246353 26.99428162 59.46227081 25.96505737 59.58570862 C25.03283356 59.69930222 24.10060974 59.81289581 23.14013672 59.92993164 C22.32600311 60.02826797 21.51186951 60.12660431 20.67306519 60.22792053 C19.02061153 60.46213438 17.37542944 60.75115548 15.73928833 61.08055115 C7.49325432 62.71817507 2.18345077 60.63482907 -5.1875 57.0625 C-6.65521851 56.37256958 -6.65521851 56.37256958 -8.15258789 55.66870117 C-14.11396576 52.85060416 -20.03586665 49.95050695 -25.91577148 46.96606445 C-32.78103911 43.48490223 -39.70719589 40.12930487 -46.63479614 36.77450562 C-48.03231241 36.09761423 -49.42951501 35.42007484 -50.8263855 34.74185181 C-52.8118282 33.77803283 -54.7983307 32.81643333 -56.78515625 31.85546875 C-57.94539307 31.2936792 -59.10562988 30.73188965 -60.30102539 30.15307617 C-68.15039805 26.01416808 -68.15039805 26.01416808 -76.6875 26.5625 C-78.92744243 29.36120939 -78.92744243 29.36120939 -78.8125 32.4375 C-76.49133316 38.88518566 -68.00895318 41.50129919 -62.12353516 44.30493164 C-61.19589355 44.7405542 -60.26825195 45.17617676 -59.3125 45.625 C-58.33458496 46.08962646 -57.35666992 46.55425293 -56.34912109 47.03295898 C-50.73222699 49.69184638 -45.09272777 52.29880708 -39.4375 54.875 C-38.24946777 55.41761475 -37.06143555 55.96022949 -35.83740234 56.51928711 C-33.51242195 57.57839474 -31.18466649 58.63143435 -28.85400391 59.67797852 C-27.80132324 60.15678467 -26.74864258 60.63559082 -25.6640625 61.12890625 C-24.72643066 61.55115479 -23.78879883 61.97340332 -22.82275391 62.40844727 C-20.6875 63.5625 -20.6875 63.5625 -19.6875 65.5625 C-39.88995656 68.35567329 -60.10126443 71.01570483 -80.35195923 73.43597412 C-92.66523493 74.90985418 -104.94437985 76.51563447 -117.20336914 78.39477539 C-118.23196045 78.54938232 -119.26055176 78.70398926 -120.3203125 78.86328125 C-121.63346436 79.06691284 -121.63346436 79.06691284 -122.97314453 79.2746582 C-129.2986525 79.94544197 -133.42920091 79.62997232 -139.125 76.66796875 C-140.0146344 76.21367241 -140.0146344 76.21367241 -140.92224121 75.75019836 C-142.85065852 74.76251641 -144.76867727 73.75617419 -146.6875 72.75 C-148.7219804 71.70358324 -150.75905718 70.66234204 -152.79626465 69.62124634 C-154.16175654 68.92297141 -155.52642256 68.22307911 -156.89025879 67.52157593 C-162.60259478 64.58649915 -168.37707395 61.79820728 -174.1875 59.0625 C-183.73478944 54.54373381 -193.18137899 49.8354933 -202.61816406 45.09204102 C-212.02948486 40.36365374 -221.48506391 35.74413553 -231.00024414 31.22729492 C-238.28006634 27.76999026 -245.50177284 24.21140478 -252.6875 20.5625 C-252.6875 20.2325 -252.6875 19.9025 -252.6875 19.5625 C-222.34566159 15.76180945 -191.96888322 12.36073398 -161.5625 9.125 C-160.66431927 9.02939159 -159.76613853 8.93378319 -158.8407402 8.83527756 C-151.5869339 8.06322499 -144.33306967 7.29171633 -137.07910728 6.52113152 C-119.71727614 4.67676098 -102.35876517 2.80306924 -85.00260162 0.90613937 C-83.04254011 0.69214443 -81.08239761 0.47889174 -79.12225342 0.26565552 C-75.47327296 -0.13137565 -71.82448746 -0.53014454 -68.17578125 -0.9296875 C-67.03635071 -1.05386551 -65.89692017 -1.17804352 -64.72296143 -1.3059845 C-59.11130462 -1.92396703 -53.50728492 -2.57809586 -47.90771484 -3.29785156 C-30.41456956 -5.54542884 -16.62389266 -7.21053728 0 0 Z " fill="#64AEE3" transform="translate(1016.6875,552.4375)"/>
<path d="M0 0 C1.17204483 -0.00953201 2.34408966 -0.01906403 3.551651 -0.02888489 C4.8255217 -0.02797348 6.0993924 -0.02706207 7.41186523 -0.02612305 C9.37324684 -0.03255074 9.37324684 -0.03255074 11.37425232 -0.03910828 C14.14928221 -0.04658071 16.92418496 -0.04627439 19.69921875 -0.04101562 C23.23412335 -0.03525598 26.76849799 -0.05206073 30.30331516 -0.0753603 C33.69368574 -0.09376687 37.08394514 -0.08990902 40.47436523 -0.08862305 C41.73406631 -0.09783279 42.9937674 -0.10704254 44.29164124 -0.11653137 C51.2437287 -0.08026746 56.99609765 0.53726419 63.40795898 3.2746582 C64.30385742 3.61625977 65.19975586 3.95786133 66.12280273 4.30981445 C77.42274297 9.53280967 86.0315957 19.28874648 90.40014648 30.9152832 C95.1329035 45.9699579 96.44712581 65.66373605 90.00952148 80.3371582 C84.71896637 90.04081051 78.7221096 96.29921967 69.40795898 102.2746582 C71.59857411 110.90193658 74.39139355 119.25712757 77.34545898 127.6496582 C80.1826197 135.73152531 82.91197298 143.81667843 85.39208984 152.01538086 C86.4655244 155.45934899 87.62149537 158.86613983 88.80249023 162.2746582 C89.20016602 163.42836914 89.5978418 164.58208008 90.00756836 165.77075195 C90.82791624 168.14064584 91.65626959 170.5077813 92.49194336 172.87231445 C92.88317383 174.01571289 93.2744043 175.15911133 93.67749023 176.3371582 C94.03431885 177.35938477 94.39114746 178.38161133 94.75878906 179.43481445 C95.451223 182.46391996 95.25361937 184.31433761 94.40795898 187.2746582 C90.33299796 187.37359273 86.25850242 187.44615515 82.18261719 187.49438477 C80.7964256 187.51449095 79.41031874 187.54178065 78.02441406 187.57641602 C76.03153992 187.62497046 74.03804509 187.64549792 72.04467773 187.6652832 C70.84544678 187.68623047 69.64621582 187.70717773 68.41064453 187.72875977 C65.40795898 187.2746582 65.40795898 187.2746582 63.58251953 185.49707031 C62.49424505 183.43792198 61.65807441 181.54944294 60.97827148 179.32543945 C60.74293701 178.5686792 60.50760254 177.81191895 60.26513672 177.03222656 C60.02351807 176.225354 59.78189941 175.41848145 59.53295898 174.5871582 C59.27393799 173.74354736 59.01491699 172.89993652 58.74804688 172.03076172 C57.95858332 169.44813991 57.18158054 166.86206476 56.40795898 164.2746582 C56.07078857 163.15559082 56.07078857 163.15559082 55.72680664 162.01391602 C53.14629936 153.43573769 50.72332311 144.81977004 48.36401367 136.1784668 C46.52338641 129.51887447 44.44505963 122.94180288 42.28710938 116.37866211 C40.40795898 110.58858018 40.40795898 110.58858018 40.40795898 107.2746582 C34.79795898 107.2746582 29.18795898 107.2746582 23.40795898 107.2746582 C23.41581421 110.85651978 23.41581421 110.85651978 23.42382812 114.51074219 C23.44036416 122.38175991 23.45143026 130.25277839 23.45977116 138.12380886 C23.46499991 142.898141 23.47209742 147.67245541 23.48339844 152.44677734 C23.49422758 157.05032082 23.50023587 161.6538472 23.50283623 166.25740242 C23.50469043 168.01775443 23.50831095 169.77810547 23.51368904 171.53845024 C23.52089984 173.99538098 23.52194991 176.45224015 23.52148438 178.90917969 C23.52507965 179.64429276 23.52867493 180.37940582 23.53237915 181.13679504 C23.52201115 186.16060604 23.52201115 186.16060604 22.40795898 187.2746582 C17.76780573 187.5288137 13.11674592 187.45988618 8.47045898 187.4621582 C7.15625977 187.4744043 5.84206055 187.48665039 4.48803711 187.49926758 C3.23571289 187.50120117 1.98338867 187.50313477 0.69311523 187.50512695 C-1.04119751 187.51129028 -1.04119751 187.51129028 -2.81054688 187.51757812 C-5.59204102 187.2746582 -5.59204102 187.2746582 -7.59204102 185.2746582 C-7.78934892 182.84557918 -7.86139059 180.53043326 -7.8460083 178.10021973 C-7.84912828 177.35263193 -7.85224826 176.60504413 -7.85546279 175.83480215 C-7.86347348 173.31662832 -7.8571073 170.79869342 -7.85083008 168.28051758 C-7.85353858 166.48053343 -7.85709872 164.68055039 -7.8614502 162.88056946 C-7.87059323 157.98192202 -7.86702208 153.08335852 -7.86069202 148.18470955 C-7.85564191 143.0673512 -7.86032071 137.95000022 -7.86346436 132.8326416 C-7.86710689 124.23761703 -7.86229737 115.64262679 -7.8527832 107.04760742 C-7.84189811 97.09897342 -7.84542348 87.15042139 -7.85643601 77.20178938 C-7.86550071 68.6726942 -7.86679818 60.14362375 -7.86155868 51.61452532 C-7.85843446 46.51495043 -7.85804196 41.41541411 -7.86463165 36.31584167 C-7.87039262 31.52243891 -7.86643123 26.72914222 -7.85484314 21.93575096 C-7.85218984 20.17245345 -7.85297299 18.40914707 -7.85736847 16.64585304 C-7.86279909 14.24681214 -7.85602036 11.8481154 -7.8460083 9.44909668 C-7.85046974 8.74424306 -7.85493119 8.03938945 -7.85952783 7.31317663 C-7.80745572 0.9212446 -6.14032855 0.02735253 0 0 Z " fill="#FDFEFE" transform="translate(1945.592041015625,598.725341796875)"/>
<path d="M0 0 C4.35990873 -0.07418046 8.71948279 -0.12861544 13.07983398 -0.16479492 C14.56297199 -0.17987768 16.04606544 -0.20034689 17.52905273 -0.22631836 C19.66140745 -0.26272616 21.79317235 -0.27973073 23.92578125 -0.29296875 C25.85031128 -0.31653442 25.85031128 -0.31653442 27.8137207 -0.34057617 C31 0 31 0 32.57479858 1.20803833 C34.3072683 3.38634049 35.07396834 5.38236288 35.98950195 8.01196289 C36.3503035 9.03475845 36.71110504 10.05755402 37.08283997 11.11134338 C37.46413559 12.22057663 37.84543121 13.32980988 38.23828125 14.47265625 C38.64153122 15.62430771 39.04478119 16.77595917 39.46025085 17.96250916 C40.75244915 21.65973299 42.03246078 25.36105125 43.3125 29.0625 C44.16264681 31.49831389 45.0135502 33.93386385 45.86523438 36.36914062 C49.71972781 47.41310103 53.54426339 58.46593346 57.18415833 69.58277893 C58.59891723 73.88769721 60.19567684 78.06962442 61.9375 82.25 C63.73214918 86.89497434 65.22884949 91.64117239 66.77587891 96.37329102 C68.42862031 101.39337407 70.23096088 106.30062934 72.3359375 111.15234375 C73 113 73 113 73 116 C73.66 116 74.32 116 75 116 C74.99907821 115.40824258 74.99815641 114.81648516 74.99720669 114.20679569 C74.97515075 99.82766698 74.9585881 85.44853977 74.94818783 71.06939793 C74.94302504 64.11583919 74.93598266 57.16229173 74.92456055 50.20874023 C74.91355306 43.50442791 74.90772379 36.80012975 74.90512276 30.09580803 C74.90326798 27.53162387 74.89964636 24.96744038 74.89426994 22.40326118 C74.88706341 18.82554842 74.88600889 15.24788481 74.88647461 11.67016602 C74.88287933 10.59842636 74.87928406 9.52668671 74.87557983 8.42247009 C74.8769545 7.45346771 74.87832916 6.48446533 74.87974548 5.48609924 C74.87882369 4.63897149 74.8779019 3.79184374 74.87695217 2.91904545 C75 1 75 1 76 0 C78.0605531 -0.09993532 80.1245259 -0.13080906 82.1875 -0.1328125 C83.44304687 -0.13410156 84.69859375 -0.13539063 85.9921875 -0.13671875 C86.64928711 -0.13462402 87.30638672 -0.1325293 87.98339844 -0.13037109 C89.99161335 -0.12502234 91.99960459 -0.13031691 94.0078125 -0.13671875 C95.89113281 -0.13478516 95.89113281 -0.13478516 97.8125 -0.1328125 C98.97394531 -0.13168457 100.13539062 -0.13055664 101.33203125 -0.12939453 C104 0 104 0 105 1 C105.09987036 3.38838158 105.13442407 5.74790165 105.12698364 8.13684082 C105.12932363 9.27024989 105.12932363 9.27024989 105.13171089 10.42655611 C105.13572376 12.97774951 105.13253014 15.5288842 105.12939453 18.08007812 C105.13074845 19.90124039 105.13252832 21.72240238 105.13470459 23.54356384 C105.1392801 28.50416416 105.13748888 33.46474377 105.1343255 38.42534447 C105.13180251 43.6045678 105.13413927 48.7837893 105.13571167 53.9630127 C105.13753354 62.66235677 105.13512659 71.36169237 105.13037109 80.06103516 C105.12492844 90.13404726 105.12669108 100.20703914 105.1321975 110.28005075 C105.13672812 118.91186398 105.13737943 127.5436711 105.13475883 136.17548513 C105.13319578 141.33818996 105.13300306 146.50088526 105.13629532 151.66358948 C105.1391733 156.51604223 105.13719969 161.36846876 105.13140106 166.22091866 C105.13007307 168.00721251 105.13046824 169.79350856 105.13266373 171.57980156 C105.13537371 174.00761774 105.13199599 176.43534852 105.12698364 178.86315918 C105.12921436 179.57938965 105.13144509 180.29562013 105.13374341 181.03355455 C105.11414986 185.88585014 105.11414986 185.88585014 104 187 C99.47705863 187.29045063 94.94854589 187.3139741 90.41748047 187.35009766 C88.89258569 187.36666201 87.3677687 187.39395914 85.84326172 187.43212891 C83.64770142 187.48683951 81.45396216 187.50875899 79.2578125 187.5234375 C77.9392627 187.54325684 76.62071289 187.56307617 75.26220703 187.58349609 C72 187 72 187 70.12646484 184.69897461 C68.68948311 181.25601123 67.54528329 177.76393071 66.5 174.1875 C66.0654597 172.74819642 65.62928266 171.3093859 65.19140625 169.87109375 C64.98531738 169.19288574 64.77922852 168.51467773 64.56689453 167.81591797 C63.73753191 165.15924305 62.76038563 162.57454409 61.74609375 159.984375 C60.40042275 156.40531285 59.24773422 152.75971828 58.0625 149.125 C57.02637076 146.07756107 55.91048768 143.07211697 54.77197266 140.06201172 C53.5302761 136.7453232 52.35957281 133.4042981 51.1875 130.0625 C50.66282165 128.57029097 50.13808021 127.07810412 49.61328125 125.5859375 C49.34725098 124.82893555 49.0812207 124.07193359 48.80712891 123.29199219 C48.01402863 121.03983691 47.21677268 118.78920046 46.41796875 116.5390625 C43.82817233 109.23847359 41.29286587 101.92753531 38.8671875 94.5703125 C37.88813766 91.66844405 36.82282328 88.80931458 35.71875 85.953125 C34.60842449 82.9359361 33.67992827 79.86100668 32.74609375 76.78515625 C32.14471089 74.80035681 32.14471089 74.80035681 30 74 C30.00184359 74.5702207 30.00368717 75.1404414 30.00558662 75.72794151 C30.04971729 89.59000811 30.0827054 103.45206244 30.10362434 117.31418419 C30.11394563 124.01774998 30.12802217 130.72126895 30.15087891 137.42480469 C30.17254588 143.88922246 30.18455562 150.35359149 30.18975449 156.81804276 C30.19346132 159.28930046 30.20069939 161.76055539 30.21146011 164.23179245 C30.22589332 167.68241984 30.22798137 171.13284357 30.22705078 174.58349609 C30.23783661 176.12960823 30.23783661 176.12960823 30.24884033 177.70695496 C30.246091 178.64367538 30.24334167 179.58039581 30.24050903 180.54550171 C30.24235262 181.36221029 30.24419621 182.17891888 30.24609566 183.02037621 C30 185 30 185 28 187 C25.21850586 187.24291992 25.21850586 187.24291992 21.71484375 187.23046875 C20.46251953 187.22853516 19.21019531 187.22660156 17.91992188 187.22460938 C16.60572266 187.21236328 15.29152344 187.20011719 13.9375 187.1875 C12.61943359 187.18685547 11.30136719 187.18621094 9.94335938 187.18554688 C0.14009123 187.14009123 0.14009123 187.14009123 -1 186 C-1.09986083 183.6264561 -1.13442537 181.28195544 -1.12698364 178.90785217 C-1.12854363 178.15703525 -1.13010362 177.40621832 -1.13171089 176.63264936 C-1.13572376 174.09760935 -1.13253013 171.56262843 -1.12939453 169.02758789 C-1.13074846 167.21790023 -1.13252834 165.40821285 -1.13470459 163.598526 C-1.13928029 158.66884925 -1.13748872 153.73919333 -1.1343255 148.80951619 C-1.13180222 143.66145726 -1.13413939 138.51340018 -1.13571167 133.36534119 C-1.13753362 124.71727171 -1.13512656 116.06921076 -1.13037109 107.42114258 C-1.12493014 97.41063442 -1.12668982 87.40014663 -1.1321975 77.38963896 C-1.13672995 68.80961433 -1.13737848 60.22959585 -1.13475883 51.64957041 C-1.13319656 46.51869176 -1.13300088 41.3878227 -1.13629532 36.25694466 C-1.13917588 31.4332159 -1.1371949 26.60951349 -1.13140106 21.78578758 C-1.13007439 20.01120167 -1.13046602 18.23661355 -1.13266373 16.4620285 C-1.13537889 14.04769916 -1.13198954 11.63345531 -1.12698364 9.21913147 C-1.12921436 8.50970479 -1.13144509 7.8002781 -1.13374341 7.06935364 C-1.11414998 2.22829996 -1.11414998 2.22829996 0 0 Z " fill="#FEFEFE" transform="translate(1545,599)"/>
<path d="M0 0 C1.27617187 -0.05800781 2.55234375 -0.11601563 3.8671875 -0.17578125 C12.93787892 -0.29886996 12.93787892 -0.29886996 16.23681641 2.02392578 C17.88634874 4.13023487 19.04838225 6.23430069 20.25 8.625 C21.37224324 10.54436006 22.49464964 12.46362473 23.6171875 14.3828125 C24.79219899 16.50203556 25.96129442 18.62454765 27.125 20.75 C28.35372028 22.97029917 29.58288454 25.19035271 30.8125 27.41015625 C31.69421875 29.00754639 31.69421875 29.00754639 32.59375 30.63720703 C34.73843113 34.50610556 36.92177073 38.35171397 39.125 42.1875 C39.74117187 43.26128906 40.35734375 44.33507812 40.9921875 45.44140625 C41.40726563 46.16199219 41.82234375 46.88257813 42.25 47.625 C42.91 47.625 43.57 47.625 44.25 47.625 C44.61649658 46.93688232 44.98299316 46.24876465 45.3605957 45.53979492 C51.60802495 33.82744862 57.85971664 22.12098348 64.5 10.625 C65.17929565 9.44393677 65.17929565 9.44393677 65.87231445 8.23901367 C66.29085693 7.52076416 66.70939941 6.80251465 67.140625 6.0625 C67.50188477 5.44246094 67.86314453 4.82242188 68.23535156 4.18359375 C69.25 2.625 69.25 2.625 71.25 0.625 C74.015625 0.36621094 74.015625 0.36621094 77.5 0.359375 C79.37171875 0.35550781 79.37171875 0.35550781 81.28125 0.3515625 C83.24578125 0.36316406 83.24578125 0.36316406 85.25 0.375 C86.5596875 0.36726562 87.869375 0.35953125 89.21875 0.3515625 C90.4665625 0.35414063 91.714375 0.35671875 93 0.359375 C94.14984375 0.36163086 95.2996875 0.36388672 96.484375 0.36621094 C99.25 0.625 99.25 0.625 101.25 2.625 C101.44513138 5.05424472 101.51497202 7.36926046 101.49723816 9.79943848 C101.49965257 10.54702628 101.50206699 11.29461408 101.50455457 12.06485605 C101.51021391 14.58303837 101.50151172 17.1009695 101.49291992 19.61914062 C101.49399225 21.41912403 101.4959302 23.21910711 101.49867249 25.01908875 C101.50353183 29.9177426 101.49585158 34.81630577 101.48571944 39.71494865 C101.47695655 44.83230364 101.47869604 49.94965564 101.4790802 55.0670166 C101.47814275 63.6620435 101.46944792 72.25703515 101.45581055 80.85205078 C101.44008418 90.80066582 101.4348124 100.74924225 101.4355461 110.69786882 C101.43615572 120.25318979 101.43105631 129.80849813 101.42275429 139.36381531 C101.41921639 143.43715005 101.41739032 147.51048032 101.41686058 151.58381653 C101.41585859 156.37719456 101.40977376 161.17053997 101.39969444 165.96390724 C101.39676497 167.72720452 101.39554497 169.49050555 101.39612198 171.25380516 C101.39661007 173.65275904 101.39098273 176.05162048 101.38371277 178.45056152 C101.38526137 179.15541514 101.38680997 179.86026875 101.3884055 180.58648157 C101.36417892 185.39664217 101.36417892 185.39664217 100.25 187.625 C96.1382744 187.64965746 92.02657722 187.66783959 87.91479492 187.67993164 C86.51504772 187.6849708 85.1153058 187.69180216 83.71557617 187.70043945 C81.70754223 187.7125232 79.69947043 187.71769807 77.69140625 187.72265625 C76.48170166 187.72789307 75.27199707 187.73312988 74.02563477 187.73852539 C71.25 187.625 71.25 187.625 70.25 186.625 C70.15385867 184.95475331 70.12812278 183.28041724 70.12974548 181.60740662 C70.12768349 179.97720581 70.12768349 179.97720581 70.12557983 178.31407166 C70.13097275 176.51009666 70.13097275 176.51009666 70.13647461 174.66967773 C70.13632858 173.41132111 70.13618256 172.15296448 70.1360321 170.85647583 C70.13574415 167.39588747 70.14164051 163.93533348 70.14860606 160.47475314 C70.15483997 156.86191909 70.15544343 153.24908433 70.15663147 149.63624573 C70.15974468 142.79036492 70.16795792 135.9445 70.17798096 129.0986262 C70.18914243 121.30673411 70.19465263 113.51484127 70.19967639 105.72294319 C70.21014054 89.69028614 70.22773977 73.6576451 70.25 57.625 C69.59 57.625 68.93 57.625 68.25 57.625 C67.86279785 58.90648926 67.86279785 58.90648926 67.46777344 60.21386719 C66.19303953 63.78455328 64.60509705 66.88940526 62.765625 70.203125 C62.25850983 71.12034332 62.25850983 71.12034332 61.7411499 72.05609131 C61.02738529 73.34485691 60.31121729 74.63229408 59.59277344 75.91845703 C58.51232694 77.85292938 57.43910278 79.79125863 56.3671875 81.73046875 C52.46139026 88.77661909 48.45914584 95.75448401 44.25 102.625 C39.94341635 101.11867463 38.71269476 98.45117545 36.60546875 94.54296875 C36.27259354 93.9329451 35.93971832 93.32292145 35.59675598 92.69441223 C34.53309564 90.73929255 33.48516116 88.77623086 32.4375 86.8125 C31.74516218 85.5339515 31.05181166 84.25595084 30.35742188 82.97851562 C28.71839249 79.95715906 27.09133437 76.92955561 25.46932983 73.89901733 C22.73716087 68.80359573 19.99210483 63.71507935 17.25 58.625 C17.24668985 59.27768042 17.24337971 59.93036083 17.23996925 60.60281944 C17.15882681 76.46782992 17.06676342 92.33273346 16.96247292 108.19760704 C16.91230394 115.86967338 16.86586164 123.5417288 16.828125 131.21386719 C16.79523283 137.89918266 16.7554172 144.58441447 16.70720994 151.2696377 C16.68191716 154.81097417 16.66014425 158.35225494 16.64665604 161.89365768 C16.63148666 165.84245477 16.60086322 169.7910478 16.56884766 173.73974609 C16.56668747 174.92009933 16.56452728 176.10045258 16.56230164 177.3165741 C16.55113815 178.38792099 16.53997467 179.45926788 16.5284729 180.56307983 C16.52017676 181.96512696 16.52017676 181.96512696 16.51171303 183.39549828 C16.25 185.625 16.25 185.625 14.25 187.625 C11.484375 187.88378906 11.484375 187.88378906 8 187.890625 C6.12828125 187.89449219 6.12828125 187.89449219 4.21875 187.8984375 C2.9090625 187.89070312 1.599375 187.88296875 0.25 187.875 C-1.0596875 187.88273438 -2.369375 187.89046875 -3.71875 187.8984375 C-4.9665625 187.89585937 -6.214375 187.89328125 -7.5 187.890625 C-9.22476563 187.88724121 -9.22476563 187.88724121 -10.984375 187.88378906 C-13.75 187.625 -13.75 187.625 -15.75 185.625 C-15.94730791 183.19592098 -16.01934957 180.88077506 -16.00396729 178.45056152 C-16.00708727 177.70297372 -16.01020725 176.95538592 -16.01342177 176.18514395 C-16.02143247 173.66697012 -16.01506629 171.14903522 -16.00878906 168.63085938 C-16.01149757 166.83087522 -16.0150577 165.03089218 -16.01940918 163.23091125 C-16.02855221 158.33226382 -16.02498107 153.43370031 -16.01865101 148.53505135 C-16.01360089 143.417693 -16.0182797 138.30034202 -16.02142334 133.1829834 C-16.02506588 124.58795883 -16.02025635 115.99296858 -16.01074219 107.39794922 C-15.99985709 97.44931522 -16.00338247 87.50076319 -16.014395 77.55213118 C-16.02345969 69.023036 -16.02475717 60.49396555 -16.01951766 51.96486712 C-16.01639345 46.86529223 -16.01600095 41.76575591 -16.02259064 36.66618347 C-16.0283516 31.87278071 -16.02439021 27.07948402 -16.01280212 22.28609276 C-16.01014883 20.52279525 -16.01093197 18.75948887 -16.01532745 16.99619484 C-16.02075807 14.59715394 -16.01397934 12.19845719 -16.00396729 9.79943848 C-16.00842873 9.09458486 -16.01289017 8.38973125 -16.01748681 7.66351843 C-15.93774982 -2.12432181 -7.7896368 0.11661133 0 0 Z " fill="#FCFDFE" transform="translate(2083.75,598.375)"/>
<path d="M0 0 C3.1328125 -0.37231445 3.1328125 -0.37231445 7.125 -0.36328125 C7.8277002 -0.36377975 8.53040039 -0.36427826 9.25439453 -0.36479187 C10.74058865 -0.36245061 12.22678667 -0.35271888 13.71289062 -0.33618164 C15.99124505 -0.31259065 18.26842953 -0.31561934 20.546875 -0.32226562 C31.72092744 -0.27907256 31.72092744 -0.27907256 34 2 C34.59082031 3.92578125 34.59082031 3.92578125 35.078125 6.3125 C35.26616699 7.20888184 35.45420898 8.10526367 35.64794922 9.02880859 C35.84662598 10.00930176 36.04530273 10.98979492 36.25 12 C36.69368237 14.11752971 37.13905613 16.23470559 37.5859375 18.3515625 C37.81764648 19.45274414 38.04935547 20.55392578 38.28808594 21.68847656 C39.41562754 26.93332372 40.64837684 32.15261435 41.875 37.375 C44.50795871 48.66445954 46.93617945 59.99212189 49.32373047 71.33520508 C51.3418472 80.92008332 53.40048441 90.49512063 55.5 100.0625 C55.64428436 100.72018372 55.78856873 101.37786743 55.93722534 102.05548096 C56.66584849 105.37583144 57.39523477 108.69601365 58.125 112.01611328 C59.00236325 116.00892389 59.87660876 120.00241265 60.75 123.99609375 C60.96703835 124.9881633 60.96703835 124.9881633 61.1884613 126.00027466 C61.91348126 129.31500499 62.63744165 132.62996168 63.35961914 135.9453125 C64.71916222 142.18126706 66.08894197 148.41448323 67.49215698 154.64077759 C68.15265031 157.57421911 68.80773088 160.50885795 69.46240234 163.44360352 C69.77529273 164.83906889 70.09081924 166.23394622 70.40917969 167.62817383 C70.85112538 169.5643954 71.28317335 171.50286797 71.71484375 173.44140625 C71.96355225 174.54170166 72.21226074 175.64199707 72.46850586 176.77563477 C73 180 73 180 73 187 C63.1 187 53.2 187 43 187 C41.55095209 182.65285627 40.58850478 179.16259886 39.9296875 174.7265625 C39.77226074 173.68580566 39.61483398 172.64504883 39.45263672 171.57275391 C39.2620166 170.26999512 39.07139648 168.96723633 38.875 167.625 C38.25625 163.45875 37.6375 159.2925 37 155 C23.14 155 9.28 155 -5 155 C-5.66 159.29 -6.32 163.58 -7 168 C-7.48703173 171.06586473 -7.98187925 174.12717139 -8.5 177.1875 C-8.61730469 177.92291016 -8.73460938 178.65832031 -8.85546875 179.41601562 C-9.7699076 184.7699076 -9.7699076 184.7699076 -12 187 C-14.79736328 187.22705078 -14.79736328 187.22705078 -18.3203125 187.1953125 C-20.20556641 187.18564453 -20.20556641 187.18564453 -22.12890625 187.17578125 C-23.44761719 187.15902344 -24.76632813 187.14226562 -26.125 187.125 C-27.46483721 187.11496983 -28.80468152 187.10584404 -30.14453125 187.09765625 C-33.42986573 187.07402075 -36.71484465 187.04107234 -40 187 C-41.05865351 182.99273236 -40.85772315 180.11875387 -39.99609375 176.08203125 C-39.75318604 174.92405029 -39.51027832 173.76606934 -39.26000977 172.57299805 C-38.98858154 171.33203369 -38.71715332 170.09106934 -38.4375 168.8125 C-38.15816798 167.50379105 -37.87944987 166.19495094 -37.60131836 164.88598633 C-35.610687 155.57494112 -33.49101761 146.29343549 -31.32202148 137.02246094 C-29.30368349 128.38566984 -27.38580338 119.72893544 -25.5 111.0625 C-25.27750076 110.04038422 -25.27750076 110.04038422 -25.05050659 108.99761963 C-24.75190484 107.62586521 -24.45330558 106.25411025 -24.15470886 104.88235474 C-24.00826431 104.20961517 -23.86181976 103.53687561 -23.7109375 102.84375 C-23.56525833 102.17431366 -23.41957916 101.50487732 -23.26948547 100.81515503 C-21.90696598 94.56001498 -20.51858736 88.31077772 -19.125 82.0625 C-16.74682482 71.38311655 -14.38337329 60.70052616 -12.03219604 50.01516724 C-11.63738434 48.22089826 -11.24230602 46.42668792 -10.84695435 44.63253784 C-8.28815392 33.01401678 -5.76779004 21.39096959 -3.49584961 9.7121582 C-3.2368689 8.41991333 -3.2368689 8.41991333 -2.97265625 7.1015625 C-2.83093994 6.37275879 -2.68922363 5.64395508 -2.54321289 4.89306641 C-2 3 -2 3 0 0 Z " fill="#FDFEFE" transform="translate(2251,599)"/>
<path d="M0 0 C11.40840358 9.64385724 17.11496173 20.188985 19 35 C19.29307905 39.6846127 19.50821812 44.32703336 19 49 C16.27765398 51.72234602 14.77237127 51.25788057 10.96875 51.265625 C9.76605469 51.26820313 8.56335937 51.27078125 7.32421875 51.2734375 C6.06222656 51.26570312 4.80023437 51.25796875 3.5 51.25 C2.23800781 51.25773438 0.97601562 51.26546875 -0.32421875 51.2734375 C-1.52691406 51.27085937 -2.72960938 51.26828125 -3.96875 51.265625 C-5.07669922 51.26336914 -6.18464844 51.26111328 -7.32617188 51.25878906 C-10 51 -10 51 -12 49 C-12.20505713 46.43971525 -12.31806308 43.93831727 -12.375 41.375 C-12.68746501 34.28747494 -13.38203603 28.75055951 -18.4921875 23.453125 C-23.20947506 19.27562656 -27.27542305 18.57020752 -33.36328125 18.66796875 C-37.79295241 19.22577919 -40.82753643 20.88601502 -44 24 C-48.54244183 30.28756072 -48.97382123 37.49053322 -48 45 C-44.15413736 59.4731872 -30.00223649 67.73574081 -18.734375 76.20703125 C15.81957113 102.2581333 15.81957113 102.2581333 19.72265625 120.546875 C21.39951099 135.3787733 20.07100446 151.41905885 10.953125 163.7734375 C8.73716484 166.31797106 6.44884795 168.67982034 4 171 C3.07574219 171.87978516 3.07574219 171.87978516 2.1328125 172.77734375 C-7.01356213 180.4909172 -17.66279742 182.43957893 -29.25 182.5 C-30.16023926 182.50628418 -31.07047852 182.51256836 -32.00830078 182.51904297 C-44.76447529 182.28097702 -56.47795821 177.56754843 -65.8125 168.8125 C-75.21000121 158.77617045 -79.20671648 146.98232398 -79.3125 133.4375 C-79.31813965 132.73407471 -79.3237793 132.03064941 -79.32958984 131.3059082 C-79.25676266 126.25676266 -79.25676266 126.25676266 -77 124 C-74.21850586 123.75708008 -74.21850586 123.75708008 -70.71484375 123.76953125 C-69.46251953 123.77146484 -68.21019531 123.77339844 -66.91992188 123.77539062 C-65.60572266 123.78763672 -64.29152344 123.79988281 -62.9375 123.8125 C-61.61943359 123.81314453 -60.30136719 123.81378906 -58.94335938 123.81445312 C-49.14009123 123.85990877 -49.14009123 123.85990877 -48 125 C-47.83948952 126.99746374 -47.72229703 128.99846102 -47.625 131 C-47.04786998 138.74881925 -46.50374676 145.16523414 -40.4375 150.5 C-35.1437201 154.59841025 -30.58445226 154.51222755 -24 154 C-18.53241476 152.11119783 -15.98686633 149.08430513 -12.91796875 144.3203125 C-10.50615176 138.22406019 -11.00449246 129.53733645 -12.76953125 123.265625 C-18.47343142 111.89813491 -31.52211023 104.55665972 -41.484375 97.30859375 C-46.45289746 93.68665147 -51.25719793 89.91351055 -56 86 C-56.60457031 85.54109375 -57.20914063 85.0821875 -57.83203125 84.609375 C-67.91323109 76.69005774 -76.51332356 63.9018172 -78.63671875 51.1875 C-80.21702278 35.50400989 -79.836394 21.36334599 -69.97265625 8.31640625 C-53.38392754 -11.16303162 -21.04111582 -16.10652018 0 0 Z " fill="#FDFEFE" transform="translate(2750,606)"/>
<path d="M0 0 C8.79680587 7.84921458 16.47989515 17.96920668 17.33251953 30.1875 C17.37150689 32.58793663 17.35106689 34.97873377 17.30078125 37.37890625 C17.29175781 38.20583984 17.28273438 39.03277344 17.2734375 39.88476562 C17.25009637 41.90377333 17.21423413 43.92262981 17.17578125 45.94140625 C14.19667339 47.43096018 11.07578888 47.32038801 7.80078125 47.50390625 C7.08849365 47.54563965 6.37620605 47.58737305 5.64233398 47.63037109 C-6.79206623 48.31228 -6.79206623 48.31228 -12.82421875 47.94140625 C-14.57979023 46.18583477 -13.99148046 43.862662 -14.06469727 41.51806641 C-14.29115659 34.59531996 -14.59806245 29.6671664 -18.82421875 23.94140625 C-18.82421875 23.28140625 -18.82421875 22.62140625 -18.82421875 21.94140625 C-25.6065472 18.42464335 -31.14271344 16.90859881 -38.82421875 17.94140625 C-44.14435583 19.92099214 -47.1878628 22.79955586 -49.9609375 27.7839222 C-51.63179846 31.95968284 -51.37807648 36.26713862 -51.34179688 40.70678711 C-51.34880615 41.76785172 -51.35581543 42.82891632 -51.36303711 43.9221344 C-51.38059043 47.41710865 -51.36900226 50.91126801 -51.35546875 54.40625 C-51.35816461 56.84330907 -51.36204781 59.28036709 -51.36706543 61.71742249 C-51.37295708 66.82075254 -51.36440859 71.92380219 -51.34570312 77.02709961 C-51.32292642 83.55842155 -51.33603141 90.08908551 -51.35999298 96.62038326 C-51.37447001 101.65195136 -51.36983591 106.68336435 -51.35948181 111.71493721 C-51.35681919 114.12261598 -51.36006788 116.53030896 -51.36940002 118.93797112 C-51.37959513 122.30790193 -51.36402105 125.67677827 -51.34179688 129.04663086 C-51.3498938 130.03545258 -51.35799072 131.02427429 -51.36633301 132.0430603 C-51.29193067 138.15418273 -50.35130716 142.85581014 -46.82421875 147.94140625 C-41.12835775 153.23042004 -36.95019752 153.35934204 -29.3203125 153.2734375 C-25.34211529 152.89561989 -23.09386734 152.2717686 -20.15234375 149.59765625 C-14.83978266 142.97258007 -14.31036349 136.08516285 -14 127.78515625 C-13.82421875 124.94140625 -13.82421875 124.94140625 -12.82421875 123.94140625 C-11.27207602 123.84207811 -9.71547264 123.8106058 -8.16015625 123.80859375 C-7.20238281 123.80730469 -6.24460937 123.80601562 -5.2578125 123.8046875 C-4.24847656 123.80855469 -3.23914062 123.81242188 -2.19921875 123.81640625 C-0.72001953 123.81060547 -0.72001953 123.81060547 0.7890625 123.8046875 C15.0581133 123.8237383 15.0581133 123.8237383 17.17578125 125.94140625 C17.74202651 134.99044106 17.71048175 143.45812504 14.17578125 151.94140625 C13.79292969 152.946875 13.79292969 152.946875 13.40234375 153.97265625 C8.03012126 166.39284035 -3.08900218 174.31977943 -15.26953125 179.1796875 C-30.30565571 183.66293562 -47.89110273 181.70082033 -61.58203125 174.30859375 C-72.39597222 167.71472731 -78.14171298 157.84025554 -81.82421875 145.94140625 C-82.15421875 144.95140625 -82.48421875 143.96140625 -82.82421875 142.94140625 C-82.91959032 141.39052487 -82.95910729 139.83589036 -82.96466064 138.28208923 C-82.97037079 137.32478912 -82.97608093 136.36748901 -82.98196411 135.38117981 C-82.98308197 134.33234116 -82.98419983 133.2835025 -82.98535156 132.20288086 C-82.99031647 131.09684509 -82.99528137 129.99080933 -83.00039673 128.85125732 C-83.01503324 125.18208193 -83.02182419 121.51294983 -83.02734375 117.84375 C-83.03309563 115.29366556 -83.03885336 112.74358112 -83.0446167 110.1934967 C-83.05378743 105.52400887 -83.06008488 100.85453402 -83.06311345 96.18503946 C-83.06758398 89.33099104 -83.08508398 82.47714305 -83.11411405 75.62315553 C-83.138431 69.67353581 -83.14606257 63.72396537 -83.147789 57.7742939 C-83.15080902 55.25103225 -83.15881548 52.72777131 -83.17197418 50.20454216 C-83.18911064 46.66477367 -83.18713517 43.12548699 -83.18066406 39.58569336 C-83.18987885 38.55102432 -83.19909363 37.51635529 -83.20858765 36.45033264 C-83.14547921 25.37873844 -79.92758223 17.07190712 -73.82421875 7.94140625 C-73.24671875 7.05453125 -72.66921875 6.16765625 -72.07421875 5.25390625 C-53.70986678 -13.62056661 -20.90703021 -16.26883191 0 0 Z " fill="#FDFEFE" transform="translate(2626.82421875,607.05859375)"/>
<path d="M0 0 C1.23282463 0.00607269 1.23282463 0.00607269 2.49055481 0.01226807 C3.35570206 0.00876343 4.2208493 0.00525879 5.11221313 0.00164795 C7.98124641 -0.00717794 10.85003451 -0.0013172 13.71907043 0.00543213 C15.7068232 0.00408573 17.69457564 0.0021454 19.68232727 -0.00036621 C23.85199615 -0.00331864 28.02157945 0.00098398 32.1912384 0.01031494 C37.54496319 0.02170953 42.89848747 0.01515069 48.2522049 0.00317001 C52.35790019 -0.00404538 56.46354768 -0.00176213 60.56924438 0.0034256 C62.54368107 0.00476298 64.51812204 0.00311129 66.49255371 -0.00153351 C69.24851534 -0.00659348 72.00414896 0.001104 74.76008606 0.01226807 C75.58196915 0.0082196 76.40385223 0.00417114 77.25064087 0 C82.89679237 0.04252907 82.89679237 0.04252907 85.12532043 2.27105713 C85.36824036 4.68536377 85.36824036 4.68536377 85.35578918 7.68121338 C85.35385559 8.75306885 85.351922 9.82492432 85.34992981 10.92926025 C85.33768372 12.05267822 85.32543762 13.17609619 85.31282043 14.33355713 C85.31185364 16.02448486 85.31185364 16.02448486 85.31086731 17.74957275 C85.26545361 26.13092396 85.26545361 26.13092396 84.12532043 27.27105713 C82.22288282 27.36497009 80.31693585 27.38849371 78.41218567 27.38458252 C77.19099533 27.38450699 75.96980499 27.38443146 74.71160889 27.38435364 C73.36904358 27.37924624 72.02647868 27.37403023 70.68391418 27.36871338 C69.31770886 27.36684912 67.95150286 27.36542526 66.58529663 27.36442566 C62.98330348 27.36060107 59.38135043 27.3507713 55.77937317 27.33972168 C52.10628308 27.32950629 48.43318635 27.32487307 44.76008606 27.31988525 C37.54846206 27.30967916 30.33694829 27.29010751 23.12532043 27.27105713 C23.12532043 44.76105713 23.12532043 62.25105713 23.12532043 80.27105713 C35.21207954 80.19189909 35.21207954 80.19189909 47.29866028 80.09088135 C48.81118997 80.08504146 50.3237228 80.07994472 51.83625793 80.07574463 C52.62492249 80.0655127 53.41358704 80.05528076 54.22615051 80.04473877 C56.19398695 80.04410541 58.16133569 80.14799381 60.12532043 80.27105713 C62.69520724 82.84094393 62.38238819 83.86015765 62.39094543 87.42730713 C62.39481262 88.96064697 62.39481262 88.96064697 62.39875793 90.52496338 C62.39102356 91.59617432 62.38328918 92.66738525 62.37532043 93.77105713 C62.386922 95.37787354 62.386922 95.37787354 62.39875793 97.01715088 C62.39617981 98.03937744 62.39360168 99.061604 62.39094543 100.11480713 C62.38868958 101.05517822 62.38643372 101.99554932 62.3841095 102.9644165 C62.12532043 105.27105713 62.12532043 105.27105713 60.12532043 107.27105713 C57.32847247 107.44630768 54.63203964 107.50248902 51.83625793 107.46636963 C50.60862228 107.46212479 50.60862228 107.46212479 49.35618591 107.45779419 C46.7374165 107.44658245 44.11898679 107.42147642 41.50032043 107.39605713 C39.72688787 107.3860286 37.95344995 107.37690253 36.18000793 107.36871338 C31.82831418 107.34663991 27.47687493 107.31210357 23.12532043 107.27105713 C23.12754105 108.25855453 23.12976166 109.24605194 23.13204956 110.26347351 C23.15228126 119.54904742 23.16729271 128.83461688 23.17713261 138.12020779 C23.18236136 142.89453993 23.18945887 147.66885434 23.20075989 152.44317627 C23.21158903 157.04671975 23.21759732 161.65024612 23.22019768 166.25380135 C23.22205188 168.01415336 23.2256724 169.77450439 23.23105049 171.53484917 C23.23826129 173.9917799 23.23931136 176.44863908 23.23884583 178.90557861 C23.2424411 179.64069168 23.24603638 180.37580475 23.2497406 181.13319397 C23.2393726 186.15700497 23.2393726 186.15700497 22.12532043 187.27105713 C19.9917887 187.37109002 17.85494502 187.4018676 15.71907043 187.40386963 C14.41840637 187.40515869 13.11774231 187.40644775 11.77766418 187.40777588 C11.09687805 187.40568115 10.41609192 187.40358643 9.7146759 187.40142822 C7.63403529 187.39607953 5.55361055 187.40137393 3.47297668 187.40777588 C1.52198059 187.40584229 1.52198059 187.40584229 -0.46842957 187.40386963 C-1.67176941 187.4027417 -2.87510925 187.40161377 -4.11491394 187.40045166 C-6.87467957 187.27105713 -6.87467957 187.27105713 -7.87467957 186.27105713 C-7.97675417 183.89757949 -8.01355858 181.55304825 -8.00839233 179.1789093 C-8.01065789 178.42809237 -8.01292345 177.67727545 -8.01525766 176.90370649 C-8.0216263 174.3686707 -8.02076647 171.83368797 -8.01994324 169.29864502 C-8.02293294 167.48895701 -8.02633503 165.67926965 -8.03012085 163.86958313 C-8.03898415 158.93990981 -8.04129993 154.01025383 -8.04193664 149.08057332 C-8.04288377 144.97246218 -8.04655978 140.86435513 -8.05010873 136.75624555 C-8.05826211 127.06822818 -8.06069216 117.38022011 -8.0599823 107.69219971 C-8.05938123 97.68167601 -8.0699368 87.67120615 -8.08572596 77.66069609 C-8.09877916 69.08067064 -8.10416714 60.50066284 -8.10352689 51.92062753 C-8.10327125 46.78973307 -8.10615851 41.65888641 -8.11670494 36.52800179 C-8.1263487 31.70425253 -8.12649086 26.88059717 -8.11918831 22.05684471 C-8.11813782 20.28225697 -8.12053266 18.50766349 -8.12654877 16.73308563 C-8.13420645 14.31867429 -8.12966567 11.90459227 -8.12191772 9.4901886 C-8.12706129 8.78076191 -8.13220485 8.07133523 -8.13750428 7.34041077 C-8.09075474 0.79060859 -6.36917764 0.04797519 0 0 Z " fill="#FDFEFE" transform="translate(1694.8746795654297,598.7289428710938)"/>
<path d="M0 0 C1.29988106 -0.00422974 1.29988106 -0.00422974 2.62602234 -0.00854492 C3.58398209 -0.00652069 4.54194183 -0.00449646 5.52893066 -0.00241089 C6.53208817 -0.00416321 7.53524567 -0.00591553 8.56880188 -0.00772095 C11.90253401 -0.01214152 15.23621357 -0.00920075 18.56994629 -0.00582886 C20.87540701 -0.00650184 23.18086765 -0.00747181 25.48632812 -0.00872803 C30.32524285 -0.01020528 35.16413916 -0.00804957 40.00305176 -0.00338745 C46.22114274 0.00230985 52.43919057 -0.00096901 58.65727997 -0.00695992 C63.42002694 -0.01056479 68.18276359 -0.00942728 72.94551086 -0.00683212 C75.23895777 -0.00616265 77.53240561 -0.00699198 79.82585144 -0.00931168 C83.02508035 -0.011837 86.22423832 -0.0079993 89.42346191 -0.00241089 C90.86040154 -0.00544724 90.86040154 -0.00544724 92.32637024 -0.00854492 C93.19295761 -0.0057251 94.05954498 -0.00290527 94.95239258 0 C95.70972939 0.00037703 96.46706619 0.00075405 97.2473526 0.0011425 C98.97619629 0.12698364 98.97619629 0.12698364 99.97619629 1.12698364 C100.0757925 2.96857387 100.10700039 4.81395331 100.10900879 6.65823364 C100.11029785 7.77842896 100.11158691 8.89862427 100.11291504 10.05276489 C100.10904785 11.23225708 100.10518066 12.41174927 100.10119629 13.62698364 C100.10506348 14.80647583 100.10893066 15.98596802 100.11291504 17.20120239 C100.11162598 18.32139771 100.11033691 19.44159302 100.10900879 20.59573364 C100.10788086 21.63149536 100.10675293 22.66725708 100.10559082 23.73440552 C99.97619629 26.12698364 99.97619629 26.12698364 98.97619629 27.12698364 C96.23725544 27.2155701 93.52366359 27.24221843 90.78479004 27.22463989 C89.96495132 27.22322495 89.14511261 27.22181 88.3004303 27.22035217 C85.67148247 27.21473653 83.04261855 27.20218144 80.41369629 27.18948364 C78.63570272 27.18447065 76.85770783 27.1799074 75.07971191 27.17581177 C70.71184084 27.16476203 66.34403281 27.14748696 61.97619629 27.12698364 C61.97711808 27.93942976 61.97803988 28.75187588 61.9789896 29.58894157 C62.00104954 49.33438683 62.01761015 69.07982998 62.02800846 88.82528496 C62.03317033 98.37393511 62.04021097 107.92257704 62.05163574 117.47122192 C62.06158589 125.79134792 62.06805051 134.11146796 62.07028478 142.43159974 C62.07159132 146.83926321 62.07467363 151.24690968 62.08192635 155.65456772 C62.08869177 159.79949825 62.09081218 163.94440468 62.08930397 168.08934021 C62.08958006 169.61398067 62.0915821 171.1386219 62.09540176 172.6632576 C62.10034715 174.73826296 62.09919143 176.81317629 62.09645081 178.88818359 C62.0973726 180.05148634 62.09829439 181.21478909 62.09924412 182.41334343 C61.97619629 185.12698364 61.97619629 185.12698364 60.97619629 187.12698364 C51.40619629 187.12698364 41.83619629 187.12698364 31.97619629 187.12698364 C30.5753405 184.32527206 30.85345733 182.02355417 30.85594177 178.88818359 C30.85508735 178.24127347 30.85423292 177.59436335 30.85335261 176.92784989 C30.85169967 174.75054768 30.85721613 172.57332177 30.8626709 170.39602661 C30.86295284 168.83910117 30.86279491 167.2821756 30.86222839 165.72525024 C30.86194068 161.48995499 30.86783327 157.25468787 30.87480235 153.01939917 C30.88104015 148.59645065 30.88164003 144.17350155 30.88282776 139.75054932 C30.88593981 131.37119182 30.89415151 122.99184731 30.90417725 114.61249554 C30.91534229 105.07454293 30.92084982 95.53658971 30.92587268 85.99863219 C30.93633422 66.37474208 30.95393124 46.75086368 30.97619629 27.12698364 C29.9211792 27.13222046 28.86616211 27.13745728 27.7791748 27.14285278 C23.87862999 27.16090265 19.97808889 27.17241559 16.07751465 27.18191528 C14.38675313 27.18695554 12.695996 27.19378769 11.00524902 27.2024231 C8.58018922 27.21450221 6.15518685 27.22021487 3.73010254 27.22463989 C2.58947105 27.23238182 2.58947105 27.23238182 1.42579651 27.24028015 C-0.39112941 27.24047602 -2.20793499 27.18895641 -4.02380371 27.12698364 C-5.76925976 25.38152759 -5.15403531 22.96574147 -5.15661621 20.59573364 C-5.15790527 19.47553833 -5.15919434 18.35534302 -5.16052246 17.20120239 C-5.15665527 16.02171021 -5.15278809 14.84221802 -5.14880371 13.62698364 C-5.1526709 12.44749146 -5.15653809 11.26799927 -5.16052246 10.05276489 C-5.1592334 8.93256958 -5.15794434 7.81237427 -5.15661621 6.65823364 C-5.15548828 5.62247192 -5.15436035 4.58671021 -5.15319824 3.51956177 C-4.93929565 -0.43561819 -3.55318669 0.00176889 0 0 Z " fill="#FEFEFE" transform="translate(2349.0238037109375,598.8730163574219)"/>
<path d="M0 0 C1.20269531 -0.00128906 2.40539063 -0.00257813 3.64453125 -0.00390625 C4.90652344 -0.00003906 6.16851563 0.00382813 7.46875 0.0078125 C9.36173828 0.00201172 9.36173828 0.00201172 11.29296875 -0.00390625 C12.49566406 -0.00261719 13.69835938 -0.00132812 14.9375 0 C16.04544922 0.00112793 17.15339844 0.00225586 18.29492188 0.00341797 C20.96875 0.1328125 20.96875 0.1328125 22.96875 1.1328125 C22.99207621 25.23654408 23.0097278 49.34027397 23.02056217 73.44401455 C23.02572572 84.6349621 23.03276954 95.82590265 23.04418945 107.0168457 C23.05413449 116.76710628 23.060603 126.51736179 23.06283849 136.2676273 C23.06414591 141.43370348 23.06723369 146.59976517 23.07448006 151.76583672 C23.08123744 156.62237584 23.08336754 161.4788944 23.08185768 166.33543777 C23.08213414 168.12334492 23.08414092 169.91125271 23.08795547 171.69915581 C23.09288833 174.12921049 23.09174981 176.55918627 23.08900452 178.98924255 C23.09191736 179.70615515 23.0948302 180.42306774 23.09783131 181.16170496 C23.08287121 186.01869129 23.08287121 186.01869129 21.96875 187.1328125 C19.83521826 187.23284539 17.69837458 187.26362298 15.5625 187.265625 C14.26183594 187.26691406 12.96117187 187.26820313 11.62109375 187.26953125 C10.94030762 187.26743652 10.25952148 187.2653418 9.55810547 187.26318359 C7.47746485 187.2578349 5.39704011 187.2631293 3.31640625 187.26953125 C1.36541016 187.26759766 1.36541016 187.26759766 -0.625 187.265625 C-1.82833984 187.26449707 -3.03167969 187.26336914 -4.27148438 187.26220703 C-7.03125 187.1328125 -7.03125 187.1328125 -8.03125 186.1328125 C-8.12890691 183.74213113 -8.16121979 181.38037983 -8.15150452 178.98924255 C-8.15235894 178.23293094 -8.15321337 177.47661933 -8.15409368 176.69738919 C-8.15575076 174.14385768 -8.15022342 171.59039077 -8.14477539 169.03686523 C-8.14449354 167.21408083 -8.14465121 165.3912963 -8.1452179 163.56851196 C-8.14550596 158.60384362 -8.13960779 153.63919922 -8.13264394 148.67453647 C-8.12641188 143.49217775 -8.12580672 138.30981855 -8.12461853 133.12745667 C-8.12150478 123.30663692 -8.11329079 113.48582824 -8.10326904 103.66501337 C-8.09210927 92.48745344 -8.0865978 81.30989298 -8.08157361 70.13232887 C-8.07110822 47.13248393 -8.05350792 24.13264883 -8.03125 1.1328125 C-5.28600448 -0.23981026 -3.06905705 0.0031244 0 0 Z " fill="#FDFEFE" transform="translate(1484.03125,598.8671875)"/>
<path d="M0 0 C1.26199219 -0.01224609 2.52398438 -0.02449219 3.82421875 -0.03710938 C5.02691406 -0.03904297 6.22960938 -0.04097656 7.46875 -0.04296875 C9.13067383 -0.04913208 9.13067383 -0.04913208 10.82617188 -0.05541992 C13.5 0.1875 13.5 0.1875 15.5 2.1875 C15.69513138 4.61674472 15.76497202 6.93176046 15.74723816 9.36193848 C15.74965257 10.10952628 15.75206699 10.85711408 15.75455457 11.62735605 C15.76021391 14.14553837 15.75151172 16.6634695 15.74291992 19.18164062 C15.74399225 20.98162403 15.7459302 22.78160711 15.74867249 24.58158875 C15.75353183 29.4802426 15.74585158 34.37880577 15.73571944 39.27744865 C15.72695655 44.39480364 15.72869604 49.51215564 15.7290802 54.6295166 C15.72814275 63.2245435 15.71944792 71.81953515 15.70581055 80.41455078 C15.69008418 90.36316582 15.6848124 100.31174225 15.6855461 110.26036882 C15.68615572 119.81568979 15.68105631 129.37099813 15.67275429 138.92631531 C15.66921639 142.99965005 15.66739032 147.07298032 15.66686058 151.14631653 C15.66585859 155.93969456 15.65977376 160.73303997 15.64969444 165.52640724 C15.64676497 167.28970452 15.64554497 169.05300555 15.64612198 170.81630516 C15.64661007 173.21525904 15.64098273 175.61412048 15.63371277 178.01306152 C15.63526137 178.71791514 15.63680997 179.42276875 15.6384055 180.14898157 C15.61417892 184.95914217 15.61417892 184.95914217 14.5 187.1875 C10.3882744 187.21215746 6.27657722 187.23033959 2.16479492 187.24243164 C0.76504772 187.2474708 -0.6346942 187.25430216 -2.03442383 187.26293945 C-4.04245777 187.2750232 -6.05052957 187.28019807 -8.05859375 187.28515625 C-9.87315063 187.29301147 -9.87315063 187.29301147 -11.72436523 187.30102539 C-14.5 187.1875 -14.5 187.1875 -15.5 186.1875 C-15.59765691 183.79681863 -15.62996979 181.43506733 -15.62025452 179.04393005 C-15.62110894 178.28761844 -15.62196337 177.53130683 -15.62284368 176.75207669 C-15.62450076 174.19854518 -15.61897342 171.64507827 -15.61352539 169.09155273 C-15.61324354 167.26876833 -15.61340121 165.4459838 -15.6139679 163.62319946 C-15.61425596 158.65853112 -15.60835779 153.69388672 -15.60139394 148.72922397 C-15.59516188 143.54686525 -15.59455672 138.36450605 -15.59336853 133.18214417 C-15.59025478 123.36132442 -15.58204079 113.54051574 -15.57201904 103.71970087 C-15.56085927 92.54214094 -15.5553478 81.36458048 -15.55032361 70.18701637 C-15.53985822 47.18717143 -15.52225792 24.18733633 -15.5 1.1875 C-11.0372169 -1.04389155 -4.90089668 0.00250301 0 0 Z " fill="#FEFEFE" transform="translate(2494.5,598.8125)"/>
<path d="M0 0 C5.9743493 3.99396314 9.1028593 7.99371261 11 15 C11.41322418 18.43714217 11.4308457 21.83725045 11.41992188 25.29638672 C11.42839142 26.29586334 11.43686096 27.29533997 11.44558716 28.32510376 C11.46887537 31.61009652 11.46998123 34.89461863 11.46875 38.1796875 C11.47585651 40.47600489 11.48355622 42.77232052 11.49182129 45.06863403 C11.50524737 49.87507059 11.50684323 54.68134294 11.50097656 59.48779297 C11.49508253 65.62998826 11.52566959 71.77139258 11.56609344 77.91343498 C11.5920134 82.65426843 11.59484391 87.39491251 11.59120178 92.13580704 C11.592889 94.39950676 11.60249291 96.6632156 11.62034607 98.92684555 C11.64262008 102.10003515 11.63279009 105.27163745 11.61523438 108.44482422 C11.62849762 109.36877991 11.64176086 110.2927356 11.65542603 111.24468994 C11.56153272 118.59325446 9.46254316 125.12582679 4.48653412 130.69338799 C-0.62085953 135.20755196 -5.61863507 135.37535985 -12.18359375 135.26171875 C-16.59901895 134.85140878 -19.54755613 133.77593252 -23 131 C-28.34176815 124.31687843 -29.87833917 118.48605665 -29.74462891 110.07763672 C-29.75193024 109.03564117 -29.75923157 107.99364563 -29.76675415 106.92007446 C-29.78285059 103.50593061 -29.75584925 100.09371981 -29.7265625 96.6796875 C-29.72552404 94.29175823 -29.7265643 91.90382724 -29.72958374 89.51589966 C-29.72940482 84.52449845 -29.70865184 79.53374683 -29.67236328 74.54248047 C-29.62694059 68.15580528 -29.625915 61.77007599 -29.63939857 55.38328362 C-29.64609133 50.45720055 -29.63279416 45.53133182 -29.61314011 40.60528946 C-29.60546224 38.25065356 -29.60312881 35.89599377 -29.6063118 33.5413475 C-29.60705631 30.24829661 -29.58172812 26.95644437 -29.54931641 23.66357422 C-29.55427124 22.69816711 -29.55922607 21.73276001 -29.56433105 20.73809814 C-29.45402345 13.69072008 -27.90397056 8.29116663 -23.18359375 2.94140625 C-22.60738281 2.48636719 -22.03117187 2.03132812 -21.4375 1.5625 C-20.85871094 1.08941406 -20.27992187 0.61632812 -19.68359375 0.12890625 C-13.95870907 -3.70982153 -6.01793333 -2.47165119 0 0 Z " fill="#7BBAE7" transform="translate(1863,626)"/>
<path d="M0 0 C3.66623812 -0.1465954 7.331712 -0.23449874 11 -0.3125 C12.02996094 -0.35439453 13.05992188 -0.39628906 14.12109375 -0.43945312 C22.34620656 -0.57042626 26.96088127 1.38974523 33.0234375 6.80859375 C33.69246094 7.61490234 33.69246094 7.61490234 34.375 8.4375 C34.83648438 8.97246094 35.29796875 9.50742187 35.7734375 10.05859375 C40.80090045 18.01607492 39.93074778 28.96335454 39 38 C37.19669223 44.84290893 33.11638286 50.35724482 27 54 C21.59902627 56.397705 16.48120318 56.26641065 10.6875 56.1875 C9.76904297 56.18685547 8.85058594 56.18621094 7.90429688 56.18554688 C1.14055525 56.14055525 1.14055525 56.14055525 0 55 C-0.0935919 53.28134591 -0.11744611 51.55884256 -0.11352539 49.83764648 C-0.11344986 48.73658066 -0.11337433 47.63551483 -0.11329651 46.50108337 C-0.10813522 45.3031868 -0.10297394 44.10529022 -0.09765625 42.87109375 C-0.0962413 41.65172623 -0.09482635 40.4323587 -0.09336853 39.17604065 C-0.08774967 35.2631693 -0.07519396 31.35035419 -0.0625 27.4375 C-0.05748743 24.79231853 -0.0529241 22.14713617 -0.04882812 19.50195312 C-0.03777411 13.00128274 -0.02101764 6.50064539 0 0 Z " fill="#7DBBE7" transform="translate(1969,626)"/>
<path d="M0 0 C0.33 0 0.66 0 1 0 C1.20340143 7.68589895 1.34317283 15.37110039 1.43945312 23.05908203 C1.47960171 25.67230159 1.53413411 28.28534237 1.60351562 30.89794922 C1.70093741 34.66158189 1.74601581 38.42283341 1.78125 42.1875 C1.82254028 43.34926758 1.86383057 44.51103516 1.90637207 45.70800781 C1.91077826 53.73314193 1.91077826 53.73314193 -0.79907227 57.50244141 C-2.78240065 59.47315123 -4.84184687 61.22756735 -7 63 C-7.33 63.66 -7.66 64.32 -8 65 C-8.66 65 -9.32 65 -10 65 C-10.26425781 65.59296875 -10.52851563 66.1859375 -10.80078125 66.796875 C-12.04370425 69.08029054 -13.30401646 70.47426723 -15.1875 72.25 C-18.29993806 75.27296345 -21.15942477 78.42331301 -23.9921875 81.70703125 C-26.41072535 84.46905794 -28.88887734 87.17401141 -31.375 89.875 C-34.77050573 93.56539074 -38.15115183 97.26705455 -41.5 101 C-44.82949339 104.71068763 -48.18833303 108.39253626 -51.5625 112.0625 C-56.09585907 116.99416119 -60.57093188 121.97446712 -65 127 C-65.33 126.34 -65.66 125.68 -66 125 C-64.83520508 122.27636719 -64.83520508 122.27636719 -63.01953125 118.796875 C-62.53398773 117.85936905 -62.53398773 117.85936905 -62.03863525 116.90292358 C-60.97122532 114.84768602 -59.8921123 112.79885041 -58.8125 110.75 C-58.06715163 109.32169977 -57.32228187 107.89314968 -56.57788086 106.46435547 C-52.03954311 97.77580905 -47.39197047 89.15134731 -42.65161133 80.57128906 C-38.10479756 72.2971675 -33.80255325 63.90269461 -29.5 55.5 C-23.71301434 44.19953776 -17.80133793 32.98679997 -11.671875 21.8671875 C-7.68334817 14.63036262 -3.84201169 7.31534549 0 0 Z " fill="#79B8E6" transform="translate(3474,336)"/>
<path d="M0 0 C0.66 0.33 1.32 0.66 2 1 C2.68263632 3.71515325 3.23903835 6.37400886 3.734375 9.125 C3.89302536 9.96703979 4.05167572 10.80907959 4.21513367 11.67663574 C4.73530458 14.44957206 5.24286059 17.22465327 5.75 20 C6.10490088 21.90962598 6.46045543 23.8191306 6.81665039 25.72851562 C7.71627524 30.56301468 8.60516664 35.39942497 9.49176025 40.23632812 C10.11856185 43.64470765 10.75392993 47.05144775 11.39053345 50.45800781 C11.94757986 53.44209261 12.50040575 56.42694515 13.05163574 59.41210938 C13.30578378 60.78729065 13.56088673 62.16229584 13.8170166 63.53710938 C14.17257365 65.45104781 14.52194243 67.36613265 14.87109375 69.28125 C15.16391235 70.87549805 15.16391235 70.87549805 15.46264648 72.50195312 C16.15021854 76.97788788 16.54940362 81.49403616 17 86 C6.44 86 -4.12 86 -15 86 C-13.87504685 72.50056216 -13.87504685 72.50056216 -13.01611328 67.95043945 C-12.82566437 66.92509598 -12.63521545 65.8997525 -12.43899536 64.84333801 C-12.13274734 63.24445992 -12.13274734 63.24445992 -11.8203125 61.61328125 C-11.60688202 60.47199265 -11.39345154 59.33070404 -11.17355347 58.15483093 C-10.49633032 54.53963585 -9.81096606 50.92604527 -9.125 47.3125 C-8.4496805 43.72556105 -7.77606142 40.13830603 -7.10272217 36.55099487 C-6.66788363 34.23580567 -6.23206766 31.92079982 -5.79522705 29.60598755 C-4.31848122 21.76579021 -2.91184892 13.9165028 -1.57373047 6.05151367 C-1 3 -1 3 0 0 Z " fill="#71B5E5" transform="translate(2266,643)"/>
<path d="M0 0 C3.22344672 2.4340312 4.7746971 4.66204565 7 8 C7.49496359 13.24661407 6.7511969 16.51656801 4 21 C1.30689006 24.25417451 -1.05481366 24.87276338 -5.25 25.4375 C-10.1843364 24.86182742 -12.79803186 22.71753928 -16 19 C-17.59436983 14.2168905 -18.14353859 9.57296182 -16.046875 4.85546875 C-11.94040986 -0.93842315 -6.70129296 -1.48123091 0 0 Z " fill="#6CB2E4" transform="translate(1211,923)"/>
<path d="M0 0 C3.99537479 1.54538081 6.58789087 3.3818363 9 7 C9.76387713 11.6632034 9.43034926 15.17004072 7.25 19.375 C3.81330597 23.38447637 2.50369871 24.80597436 -2.875 25.5 C-7.68074746 25.32068106 -9.73367617 23.42186306 -13 20 C-15.54434976 16.53043215 -15.2949518 13.20306308 -15 9 C-12.72353274 0.84265898 -8.01364238 -1.36258902 0 0 Z " fill="#5FABE2" transform="translate(848,426)"/>
<path d="M0 0 C4.68333006 3.25337888 4.68333006 3.25337888 6.03125 5.94921875 C6.60156437 10.62392667 6.46966751 14.07238373 4.34375 18.32421875 C0.95961518 22.16566909 -1.3064532 23.70743012 -6.40625 24.44921875 C-11.18987622 23.77783261 -12.61245524 22.38356687 -15.96875 18.94921875 C-18.51323433 14.73735902 -18.66377408 10.7543235 -17.96875 5.94921875 C-16.17497099 2.82671455 -14.76660562 1.40205572 -11.65625 -0.36328125 C-7.51189671 -1.42346465 -3.92178683 -2.09317591 0 0 Z " fill="#5FABE1" transform="translate(732.96875,453.05078125)"/>
<path d="M0 0 C4.33729795 2.25205855 7.13397371 4.4386024 9 9 C9.54768238 13.92914139 9.54281153 15.98924749 7.1875 20.375 C5 23 5 23 2 25 C-2.7664971 25.35973563 -6.68011575 25.11194341 -11 23 C-14.03640449 19.72387936 -15.29519581 16.95489211 -15.625 12.5625 C-15.43815064 7.9613344 -13.6257662 5.56601691 -10.5078125 2.3125 C-7.18207347 -0.58244382 -4.2973641 -0.35811367 0 0 Z " fill="#74B6E5" transform="translate(1108,844)"/>
<path d="M0 0 C2.90915572 1.50801133 4.53083229 3.06166458 6 6 C6.77259204 10.14288485 6.78878636 13.85887163 6 18 C3.47353559 21.48242391 2.04319535 22.65226822 -2 24 C-8.07402456 24.44992774 -11.18071372 23.4165311 -15.75 19.5 C-18.60668997 16.07197204 -18.35912029 12.23761939 -18 8 C-13.85673702 0.02038242 -8.57361571 -2.61720901 0 0 Z " fill="#6AB1E3" transform="translate(671,798)"/>
<path d="M0 0 C3.67738373 2.00730553 6.80136481 4.92464035 8 9 C8.45599783 14.01597611 8.12987123 17.00671602 5 21 C1.97967037 24.19291989 0.47462133 24.93973063 -3.9375 25.5 C-8.17514217 25.27570136 -10.76348747 23.7741536 -14 21 C-16.53627973 16.81076554 -16.94746042 12.77744875 -16 8 C-12.10258705 1.55611786 -7.68206997 -1.28510464 0 0 Z " fill="#61ACE2" transform="translate(526,642)"/>
<path d="M0 0 C3.32671964 2.34428716 5.54355923 5.02209 6.46875 9.03125 C6.68281563 13.66933862 5.56461891 17.1972892 3 21 C-0.5055242 24.00473503 -3.60129312 24.48341613 -8.07421875 24.28125 C-11.03783918 23.84842917 -12.73050794 22.94527891 -15 21 C-17.63824342 17.08812183 -18.60013158 13.61343427 -18.421875 8.9609375 C-17.6380264 5.31749306 -15.67324109 3.55173013 -13 1 C-8.6450118 -1.66138168 -4.79622505 -1.54075624 0 0 Z " fill="#6EB3E5" transform="translate(1199,540)"/>
<path d="M0 0 C4.33976986 2.25334204 7.09688482 4.45366929 9 9 C9.54223844 13.26044487 9.30065535 15.42096006 7.3125 19.25 C4.52905193 22.56004636 2.44451329 24.59754964 -1.921875 25.31640625 C-5.69178944 25.53608172 -7.58625456 25.25184505 -10.875 23.25 C-14.79497036 19.09944314 -15.3962701 15.75099951 -15.25 10.18359375 C-14.76493823 5.94688235 -12.9894228 3.79703504 -9.75 1.1875 C-6.1888795 -0.35025658 -3.85081154 -0.47290668 0 0 Z " fill="#6BB1E4" transform="translate(1108,496)"/>
<path d="M0 0 C3.78580423 2.03850997 7.05061257 4.10122513 9 8 C9.54192749 12.79992915 9.51086458 14.99719176 7.3125 19.3125 C4.512266 22.566826 2.41364848 24.60263104 -1.921875 25.31640625 C-5.65162713 25.53374143 -7.59559706 25.23736694 -10.875 23.3125 C-13.82032835 20.10728974 -14.94293971 18.03403165 -15.06640625 13.6328125 C-14.84016906 9.01208937 -14.50461967 6.63400933 -11.5625 2.9375 C-7.48809923 -0.14314449 -5.14060391 -0.42838366 0 0 Z " fill="#69B1E3" transform="translate(769,787)"/>
<path d="M0 0 C3.12291165 1.68012647 5.39164837 3.78329674 7 7 C7.51512617 11.09157355 7.94367269 15.23589546 5.953125 18.95703125 C3.53970359 21.87443183 1.59054752 23.80294102 -2.20703125 24.2734375 C-9.26840855 24.54869359 -9.26840855 24.54869359 -13 21.75 C-16.51198274 16.92102373 -17.63579647 14.14603257 -17 8 C-12.834109 0.38647507 -8.33718013 -1.30753912 0 0 Z " fill="#76B7E6" transform="translate(1298,642)"/>
<path d="M0 0 C0.66 0 1.32 0 2 0 C3.67313323 3.28841876 5.33739607 6.58124682 7 9.875 C7.47695312 10.81214844 7.95390625 11.74929688 8.4453125 12.71484375 C8.89648438 13.61074219 9.34765625 14.50664063 9.8125 15.4296875 C10.23144531 16.25710449 10.65039062 17.08452148 11.08203125 17.93701172 C12 20 12 20 12 22 C3.77781287 24.34919632 -2.79107473 24.73630842 -11 22 C-9.48968084 16.73877829 -7.09625809 12.32767414 -4.375 7.625 C-3.95476563 6.88894531 -3.53453125 6.15289063 -3.1015625 5.39453125 C-2.07247236 3.5936235 -1.03689244 1.79642682 0 0 Z " fill="#6AB1E3" transform="translate(1021,655)"/>
<path d="M0 0 C0.99 0.495 0.99 0.495 2 1 C-2.41293355 5.51856228 -6.90223341 9.85564802 -11.69140625 13.97265625 C-14.55559932 16.4879121 -17.33730708 19.08836071 -20.125 21.6875 C-24.57319085 25.82667222 -29.10616841 29.83214037 -33.75 33.75 C-40.76662233 39.68210908 -47.41805626 45.974525 -54.08203125 52.296875 C-58.64310908 56.62167832 -63.30353043 60.8226566 -68 65 C-69.70897011 66.54096076 -71.41729363 68.08263888 -73.125 69.625 C-76.02101428 72.23321162 -78.93142136 74.8206549 -81.875 77.375 C-85.84252724 80.82851561 -89.7084764 84.3900394 -93.57763672 87.95263672 C-96.96174699 91.06336983 -100.39296458 94.1081325 -103.8671875 97.1171875 C-107.16380488 100.02738819 -110.38982111 103.01506368 -113.61328125 106.00585938 C-116.98787259 109.1226066 -120.45274854 112.08430667 -124 115 C-124.66 114.67 -125.32 114.34 -126 114 C-111.06340203 99.97068366 -111.06340203 99.97068366 -105.01953125 94.76953125 C-102.30513851 92.39115618 -99.65425983 89.94492818 -97 87.5 C-93.7214895 84.48069231 -90.43418914 81.4779775 -87.0625 78.5625 C-83.47041409 75.45035876 -79.98448008 72.23127914 -76.5 69 C-72.41429121 65.21118064 -68.29606727 61.47828136 -64.08203125 57.83203125 C-60.86353123 54.99999277 -57.71706589 52.08972052 -54.56225586 49.18725586 C-50.59108822 45.53542823 -46.5861756 41.92296782 -42.5703125 38.3203125 C-39.655715 35.68920168 -36.76464406 33.03343641 -33.875 30.375 C-29.98331657 26.79665859 -26.05318931 23.27168387 -22.05859375 19.80859375 C-18.56011343 16.73497631 -15.1355936 13.57982424 -11.6953125 10.44140625 C-8.64919869 7.68224519 -5.56565099 4.97020749 -2.4609375 2.27734375 C-1.61953273 1.54167701 -0.79030613 0.79030613 0 0 Z " fill="#75B7E6" transform="translate(2063,68)"/>
<path d="M0 0 C0.99 0.33 1.98 0.66 3 1 C3 1.66 3 2.32 3 3 C2.34 3 1.68 3 1 3 C1 39.63 1 76.26 1 114 C0.67 114 0.34 114 0 114 C0 76.38 0 38.76 0 0 Z " fill="#BEDCF3" transform="translate(1574,670)"/>
<path d="M0 0 C0.99 0.33 1.98 0.66 3 1 C3 1.66 3 2.32 3 3 C2.34 3 1.68 3 1 3 C1 12.24 1 21.48 1 31 C0.67 31 0.34 31 0 31 C0 20.77 0 10.54 0 0 Z " fill="#AAD3EF" transform="translate(1574,670)"/>
</svg>
